<svg xmlns="http://www.w3.org/2000/svg" viewBox="0 0 160.01 101.69">
  <title>fenom-footer</title>
  <g>
    <g>
      <rect x="71.34" y="59.24" width="16.58" height="42.46" fill="#e6e6e6"/>
      <path d="M79,0,71.34,7.65v35H87.93V16.58h25.91V0Z" fill="#e6e6e6"/>
      <rect x="87.93" y="42.65" width="20.04" height="16.58" fill="#e6e6e6"/>
    </g>
    <g>
      <path d="M117,54a.72.72,0,0,0,.38-.07.29.29,0,0,0,.21-.28s0,0,0-.06a.21.21,0,0,1,.27-.13l0,0,.14.09h0s-.06,0,0,0h0l0,0,.21-.06a.92.92,0,0,0,.32-.1,2.81,2.81,0,0,1,.62-.26,1.46,1.46,0,0,0,.36-.16c.24-.15.51-.22.76-.36s.32-.1.47-.17l.45-.23a1.92,1.92,0,0,0,.51-.22,2,2,0,0,1,.74-.27.72.72,0,0,0,.2-.09,1.52,1.52,0,0,1,.42-.16l.31-.11a1.78,1.78,0,0,1,.52-.21l.52-.22.16,0c.28,0,.54-.15.81-.2a.84.84,0,0,0,.49-.26.72.72,0,0,1,.24-.14.85.85,0,0,1,.26-.11l.32-.07.11,0a1.63,1.63,0,0,0,.34.19.19.19,0,0,1,.14.17,1,1,0,0,0,.15.35v0a1.2,1.2,0,0,1,.31.13c.06.05.11.1.08.18a.22.22,0,0,0,.07.25l.08.07a.6.6,0,0,0,.08.08.34.34,0,0,1,.09.2V52a.2.2,0,0,0,.11.17l.05,0a.31.31,0,0,1,.18.36.37.37,0,0,0,0,.11s0,0,0,0l.26-.1.24-.14a.4.4,0,0,1,.32,0h0s0,0,0,0,.08.1.12.08c.21-.09.4-.2.62-.27l.3-.15a7,7,0,0,1,1.17-.55l.25-.13a2.94,2.94,0,0,1,.51-.23,3.57,3.57,0,0,0,.57-.23l.16-.05a1,1,0,0,0,.31-.14,1.14,1.14,0,0,1,.36-.15l.16,0c.3-.15.62-.26.93-.39l.1-.05a5.33,5.33,0,0,0,.63-.23,2.37,2.37,0,0,1,.58-.21,1.84,1.84,0,0,0,.87-.49.21.21,0,0,1,.26,0,1.22,1.22,0,0,0,.29.17.17.17,0,0,1,.1.12.38.38,0,0,0,.17.28,1.88,1.88,0,0,1,.32.31s0,.07,0,.21a.2.2,0,0,0,0,.11l.3.4a.36.36,0,0,1,.09.31.24.24,0,0,0,.1.25l.11.12a.14.14,0,0,1,0,.16l-.26.3c-.09.1-.21.21-.3.33s-.44.51-.67.75a.52.52,0,0,0-.11.19,2,2,0,0,1-.25.45l-.43.65a6.77,6.77,0,0,1-.43.66,1.24,1.24,0,0,0-.1.2,1.83,1.83,0,0,1-.26.5,1.17,1.17,0,0,0-.18.41c0,.21-.13.42-.19.64a2.63,2.63,0,0,0-.06.39.41.41,0,0,0,0,.16,2,2,0,0,0,.14.25.77.77,0,0,0,.28.26l.25.14a.28.28,0,0,1,.11.13.15.15,0,0,0,.14.07.67.67,0,0,1,.28,0,6.43,6.43,0,0,0,.76.17.89.89,0,0,0,.23,0c.18,0,.36.07.55.06a5.15,5.15,0,0,1,.56,0h.39a1.5,1.5,0,0,1,.56,0,.2.2,0,0,0,.11,0l.45-.08a5.17,5.17,0,0,1,1.1-.19,3.11,3.11,0,0,0,.61-.1l.45-.06a5.77,5.77,0,0,0,.83-.15l.22,0a3.53,3.53,0,0,0,.55-.1l.33-.06c.2,0,.41-.07.61-.12a1.59,1.59,0,0,1,.38-.07l.28,0a6.56,6.56,0,0,1,.88-.19,2,2,0,0,0,.33-.08,2.32,2.32,0,0,1,.38-.06,1.69,1.69,0,0,0,.39-.08,2,2,0,0,1,.54-.13,5.84,5.84,0,0,0,.83-.18.29.29,0,0,0,.12-.1h0a2.42,2.42,0,0,0,.38,0,1.91,1.91,0,0,0,.33-.06,1.28,1.28,0,0,1,.27,0,1.13,1.13,0,0,0,.61-.22h.26a.66.66,0,0,0,.28-.05c.17-.08.36-.08.53-.15l.42-.12a.49.49,0,0,1,.16-.05c.21,0,.39-.12.6-.11h0a.24.24,0,0,1-.06.08.76.76,0,0,1-.19.12,2.35,2.35,0,0,1-.42.15,6.8,6.8,0,0,0-.8.26,1.12,1.12,0,0,1-.44.09.93.93,0,0,0-.33,0c-.21.07-.43.14-.64.19s-.45.08-.66.15-.69.15-1,.26a1.27,1.27,0,0,1-.28.06c-.33.06-.65.16-1,.24a7,7,0,0,1-.93.18,3.26,3.26,0,0,0-.6.14,6.72,6.72,0,0,1-.87.18l-.45.07c-.06,0-.1.08-.1.17a.1.1,0,0,1-.08.12h0a.55.55,0,0,1-.22,0l0-.09,0,0a0,0,0,0,0-.05,0s0,.05.05.05l.09,0a.24.24,0,0,1-.1.12.26.26,0,0,0-.1.13h0l.16,0a1.37,1.37,0,0,1,.28,0,1.19,1.19,0,0,0,.56-.07.19.19,0,0,1,.1,0,6.54,6.54,0,0,0,.88-.18l.11,0a3,3,0,0,0,.93-.18l.11,0a4.4,4.4,0,0,0,.88-.16,3.21,3.21,0,0,1,.61-.09.78.78,0,0,0,.22,0,.41.41,0,0,0,.25-.13.21.21,0,0,1,.2-.06.78.78,0,0,0,.34,0l.32-.1a1.91,1.91,0,0,1,.52-.19l.26-.12a.13.13,0,0,1,.18.13.14.14,0,0,1-.1.12.41.41,0,0,1-.16,0,1.67,1.67,0,0,0-.59.16,2,2,0,0,1-.33.09,4.33,4.33,0,0,0-.7.21.9.9,0,0,1-.32.09.29.29,0,0,0-.1,0,2,2,0,0,1-.53.17l-.17,0a9.15,9.15,0,0,1-1,.22.6.6,0,0,1-.23,0,.36.36,0,0,0-.31.09.38.38,0,0,1-.21.07h-.17a4,4,0,0,1-.77.14,3.43,3.43,0,0,1-.71.14l-.45.07-.33.06a1.27,1.27,0,0,1-.28,0,3,3,0,0,0-.78.07l-.17,0a2.1,2.1,0,0,0-.66.09.34.34,0,0,1-.22,0,1.58,1.58,0,0,1-.24-.15.54.54,0,0,0-.43-.07.5.5,0,0,1-.32,0c-.05,0-.1,0-.13.1a.22.22,0,0,0,0,.16.21.21,0,0,1,0,.11c0,.12,0,.12.08.14s.18.08.14.24a.43.43,0,0,0,0,0,.15.15,0,0,1-.12.1l-.22,0H140s0,0-.06.08A.13.13,0,0,0,140,60l.11,0,.34,0a1.31,1.31,0,0,1,.39,0,.54.54,0,0,1,.2.1h0l.06-.08a.36.36,0,0,1,.18-.12.41.41,0,0,1,.22,0,.27.27,0,0,1,.13.17.11.11,0,0,0,.14.06l.16-.05a.85.85,0,0,1,.32,0,.26.26,0,0,0,.19-.1l.11-.12a.17.17,0,0,0,0,.1h0l0-.08c.13,0,.17,0,.21.06a.31.31,0,0,1,.05.1.52.52,0,0,1,0,.21h0l-.38.09a.93.93,0,0,1-.33,0l-.17,0-.16,0a1.28,1.28,0,0,0-.43.1,1.12,1.12,0,0,1-.44.09,6,6,0,0,1-.61.06,1.61,1.61,0,0,0-.44.06,7.09,7.09,0,0,1-.78.14,1.14,1.14,0,0,0-.26.09l-.16,0-.17,0a2.12,2.12,0,0,1-.44,0c-.14-.05-.3-.05-.44-.11a.81.81,0,0,0-.27,0,1.33,1.33,0,0,0-.28,0,.87.87,0,0,1-.55-.06,4.55,4.55,0,0,1-.51-.21,1.63,1.63,0,0,1-.47-.2,1.22,1.22,0,0,1-.52-.41,1.71,1.71,0,0,0-.21-.26,2.1,2.1,0,0,1-.4-.54,1,1,0,0,1-.15-.53v-.06a1.21,1.21,0,0,0-.11-.65.41.41,0,0,1,0-.22c0-.13,0-.13,0-.21a.33.33,0,0,1,0-.32s0,0,0,0a.39.39,0,0,1,.09-.26.23.23,0,0,0,0-.21,1,1,0,0,1,0-.34l.09-.5a.86.86,0,0,0,0-.28.57.57,0,0,1,0-.22c.08-.24.16-.5.23-.75a1.37,1.37,0,0,1,.13-.31l.22-.39a.35.35,0,0,0,.07-.15,1.08,1.08,0,0,1,.2-.45.76.76,0,0,0,.13-.31.49.49,0,0,0,0-.17h0a.78.78,0,0,0-.22,0,.54.54,0,0,1-.28,0,.22.22,0,0,0-.16,0,2.13,2.13,0,0,1-.79.41,1.08,1.08,0,0,0-.3.16,3.46,3.46,0,0,1-.6.32,5.17,5.17,0,0,0-.75.36,2.17,2.17,0,0,1-.41.19,2.87,2.87,0,0,0-.49.26,1.36,1.36,0,0,1-.4.2.48.48,0,0,0-.16.08c-.2.14-.44.2-.63.36a.72.72,0,0,1-.24.14,1.85,1.85,0,0,0-.37.25,2.65,2.65,0,0,1-.26.21A3.69,3.69,0,0,1,129,56a.76.76,0,0,1-.16.06.26.26,0,0,0-.13.1.4.4,0,0,1-.18.13,2,2,0,0,0-.55.27,4.6,4.6,0,0,1-.8.4.85.85,0,0,0-.3.15.42.42,0,0,1-.14.09c-.17,0-.29.19-.45.23a1,1,0,0,0-.42.26.44.44,0,0,1-.19.12l-.32.13a1.42,1.42,0,0,0-.25.12,1.76,1.76,0,0,1-.73.28l-.16,0a.61.61,0,0,1-.33,0,.43.43,0,0,0-.27,0,.17.17,0,0,1-.15-.07.52.52,0,0,0-.19-.2.26.26,0,0,1-.1-.2.5.5,0,0,0-.1-.31.22.22,0,0,1,0-.16c0-.08.06-.14.08-.21a.43.43,0,0,0,.06-.22,2,2,0,0,1,.1-.6.41.41,0,0,0,0-.22.2.2,0,0,1,0-.17.42.42,0,0,1,.09-.14.56.56,0,0,0,.13-.24,1,1,0,0,1,.23-.38l.26-.3a1.18,1.18,0,0,0,.17-.22,1.44,1.44,0,0,1,.23-.32,3.56,3.56,0,0,0,.41-.53,0,0,0,0,0,0-.05.08.08,0,0,0-.09,0c-.17,0-.32.12-.48.15s-.12,0-.16,0a.88.88,0,0,1-.38.24,2.67,2.67,0,0,0-.26.09,1.25,1.25,0,0,0-.4.2.14.14,0,0,1-.1,0,1.47,1.47,0,0,0-.57.22.7.7,0,0,1-.27.08h-.28a.36.36,0,0,0-.26.11l-.08.07a.48.48,0,0,1-.3.13h-.11a.44.44,0,0,0-.16.06l-.17.14a.58.58,0,0,1-.24.14,1.6,1.6,0,0,1-.37.12h-.06a1.92,1.92,0,0,1-.46.21,4.58,4.58,0,0,0-.46.2,1.7,1.7,0,0,0-.43.26.55.55,0,0,1-.15.08,1.15,1.15,0,0,0-.25.12,1.22,1.22,0,0,1-.36.14,1.21,1.21,0,0,0-.46.21.85.85,0,0,1-.3.15.72.72,0,0,0-.25.12,2.76,2.76,0,0,1-.44.25,1.15,1.15,0,0,0-.25.12,2,2,0,0,1-.5.25,3.13,3.13,0,0,0-.45.22,1,1,0,0,1-.37.14.39.39,0,0,0-.14.08,1.19,1.19,0,0,1-.23.16c-.21.12-.4.29-.62.39a1.69,1.69,0,0,1-.31.13c-.2.07-.38.15-.57.23a5.92,5.92,0,0,1-1.25.34.22.22,0,0,1-.16,0,3.72,3.72,0,0,1-.79-.28.18.18,0,0,1-.07-.08c-.06-.12-.1-.24-.15-.36a.32.32,0,0,1,0-.27.87.87,0,0,0,0-.28.41.41,0,0,1,0-.11,1.75,1.75,0,0,0,.07-.72.5.5,0,0,1,0-.27c.13-.23.19-.49.34-.71a1.8,1.8,0,0,0,.08-.21,2,2,0,0,1,.1-.26,1.22,1.22,0,0,1,.3-.47.64.64,0,0,0,.18-.28,1.47,1.47,0,0,1,.32-.46,3.07,3.07,0,0,0,.29-.34c.06-.11.16-.2.23-.32s.25-.32.37-.5a.79.79,0,0,1,.17-.14v-.05a.08.08,0,0,0,0,0,.82.82,0,0,0-.49,0l-.16.06c-.38.09-.76.2-1.15.26a1.64,1.64,0,0,0-.38.1c-.2.06-.4.1-.6.17s-.34.13-.52.18c-.4.12-.8.22-1.2.32a2.43,2.43,0,0,0-.65.19.2.2,0,0,1-.11,0,.43.43,0,0,0-.22,0,1.92,1.92,0,0,1-.48.15c-.16,0-.31.11-.48.15s-.29.06-.44.09a1.67,1.67,0,0,1-.54.15.83.83,0,0,0-.21.06,2.13,2.13,0,0,1-.56.1.52.52,0,0,0-.27,0,2,2,0,0,1-.53.17l-.32.1a.73.73,0,0,0-.36.26c-.1.12-.18.24-.27.36a3.35,3.35,0,0,1-.53.65.69.69,0,0,1-.13.11,1.25,1.25,0,0,0-.45.49.66.66,0,0,1-.27.28l-.13.1a5.78,5.78,0,0,0-.53.58,2.93,2.93,0,0,1-.42.37,3.3,3.3,0,0,0-.35.28,2.87,2.87,0,0,1-.49.37.47.47,0,0,0-.13.11.38.38,0,0,1-.16.15,2.73,2.73,0,0,0-.55.39l-.19.13a.42.42,0,0,0-.14.09,4,4,0,0,1-.89.57.79.79,0,0,0-.29.18.75.75,0,0,1-.29.16,1.19,1.19,0,0,0-.25.13.36.36,0,0,1-.15.08l-.22,0a2.25,2.25,0,0,1-1,0,1,1,0,0,1-.41-.15,4,4,0,0,1-.43-.28,2.68,2.68,0,0,0-.28-.18,2.47,2.47,0,0,1-.27-.21,1,1,0,0,1-.36-.68,2.69,2.69,0,0,0-.14-.54,1.21,1.21,0,0,1-.07-.5.83.83,0,0,1,0-.22,2.73,2.73,0,0,0,.05-.5,1.24,1.24,0,0,1,0-.33,4.79,4.79,0,0,0,.09-.84.21.21,0,0,0-.07-.15.18.18,0,0,0-.16,0,.83.83,0,0,1-.18.13,2.17,2.17,0,0,0-.53.31l-.38.23a.76.76,0,0,0-.21.19.32.32,0,0,1-.13.1,2.27,2.27,0,0,0-.32.22,5.86,5.86,0,0,1-.82.59,1.07,1.07,0,0,0-.28.19.72.72,0,0,1-.24.14.36.36,0,0,0-.15.08,4.15,4.15,0,0,1-.57.35l-.34.2a.42.42,0,0,1-.14.09,2.11,2.11,0,0,0-.58.34.76.76,0,0,1-.19.12.76.76,0,0,0-.39.22l0,0c-.24.1-.45.27-.69.37a1.39,1.39,0,0,0-.4.21c-.21.09-.41.19-.62.27a8,8,0,0,1-1.35.39,3.43,3.43,0,0,1-.56,0l-.16,0-.7-.21a.21.21,0,0,1-.1-.06l-.11-.13-.16-.15c-.11-.1-.28-.12-.34-.28s-.11-.23-.17-.35a.61.61,0,0,1,0-.44,1.29,1.29,0,0,0,0-.39,1.71,1.71,0,0,1,0-.45.51.51,0,0,0,0-.27.41.41,0,0,1,0-.22,3,3,0,0,1,.31-.84.94.94,0,0,0,.13-.43.32.32,0,0,1,0-.16,2.88,2.88,0,0,0,.13-.31A3.84,3.84,0,0,1,84,56a.31.31,0,0,0,0-.1.61.61,0,0,1,.18-.21l.13-.11,0-.05c.09-.27.26-.5.37-.76,0,0,0,0,0,0a.07.07,0,0,0,0,0c-.32.1-.62.26-.93.39a.21.21,0,0,0-.1.06,1.88,1.88,0,0,1-.67.39l-.1,0a.76.76,0,0,0-.19.12,1.15,1.15,0,0,1-.33.21c-.35.22-.71.42-1.07.62l-.1.06c-.37.31-.82.53-1.17.87-.08.07-.18.13-.27.2a1,1,0,0,1-.24.15,1.28,1.28,0,0,0-.45.32,1.35,1.35,0,0,1-.35.28,1.19,1.19,0,0,0-.23.16c-.11.09-.22.2-.34.29s-.25.16-.38.25l-.44.35-.4.3-.2.11a8.46,8.46,0,0,0-.79.41,2,2,0,0,1-.61.29.3.3,0,0,1-.16,0l-.61-.08a.53.53,0,0,1-.2-.09l-.22-.18a.26.26,0,0,1-.1-.13.85.85,0,0,0-.15-.3s0,0,0,0a4.28,4.28,0,0,1,0-.62.29.29,0,0,0,0-.27.32.32,0,0,1,0-.27q.09-.4.21-.81a3.06,3.06,0,0,1,.13-.43.78.78,0,0,1,.09-.21c.23-.38.4-.8.66-1.17L75,55.8a.59.59,0,0,0,.12-.37l0,0v0H75a4,4,0,0,0-.51.24,3.36,3.36,0,0,1-.6.3c-.21.09-.4.22-.6.3a.76.76,0,0,0-.19.12,1.51,1.51,0,0,1-.37.25l-.3.16a.47.47,0,0,1-.17,0,.18.18,0,0,0-.1,0c-.21.19-.46.33-.68.5a1.16,1.16,0,0,1-.39.22.37.37,0,0,0-.15.08,7.6,7.6,0,0,0-.72.43,1.13,1.13,0,0,0-.39.21.55.55,0,0,1-.15.08,1.16,1.16,0,0,0-.4.2,2.43,2.43,0,0,1-.44.26c-.25.12-.5.26-.74.4s-.44.22-.65.34l-.1,0a3.38,3.38,0,0,0-.52.22.73.73,0,0,0-.4.18c-.38.15-.77.31-1.16.44s-.61.18-.9.3a9.09,9.09,0,0,1-1.37.32l-.21,0a1.77,1.77,0,0,1-.5.07,1.42,1.42,0,0,1-.5-.08,4.49,4.49,0,0,0-.59-.19.12.12,0,0,1-.1,0,.68.68,0,0,0-.35-.17.51.51,0,0,1-.23-.15,3.1,3.1,0,0,1-.47-.56.6.6,0,0,1-.12-.32q0-.39-.09-.78a.2.2,0,0,1,0-.11c.07-.31,0-.64.1-.95l0-.16a1.41,1.41,0,0,1,.07-.5,3.11,3.11,0,0,1,.08-.44c.06-.16.08-.33.14-.49V56.2a.12.12,0,0,0-.07-.07h-.11a1.81,1.81,0,0,1-.61.1.83.83,0,0,0-.22,0,7.68,7.68,0,0,1-.95.11.78.78,0,0,0-.22,0l-.62.08h-.61a2.07,2.07,0,0,1-.5.06c-.17,0-.33,0-.5,0s-.33,0-.5,0a5.11,5.11,0,0,1-.78.05,1.79,1.79,0,0,0-.61.07,1.29,1.29,0,0,1-.39,0,3.38,3.38,0,0,0-.9,0l-.45,0a2.09,2.09,0,0,1-.56,0l-.22,0a.15.15,0,0,0-.12.11.88.88,0,0,0,0,.16,5.09,5.09,0,0,1,.08,1.29l0,.39a1.26,1.26,0,0,1-.13.54c0,.2-.13.39-.19.59a.88.88,0,0,1-.13.3l-.06.1c-.09.25-.23.47-.33.71a2.35,2.35,0,0,1-.29.54A2.33,2.33,0,0,0,50,62a2.2,2.2,0,0,1-.38.62.22.22,0,0,0-.07.09c-.1.2-.26.36-.37.56a3.56,3.56,0,0,1-.4.61.51.51,0,0,0-.07.15,1.09,1.09,0,0,1-.08.15,3.5,3.5,0,0,1-.44.5.34.34,0,0,0-.09.08c-.14.22-.34.39-.47.63a.38.38,0,0,1-.11.11,1.24,1.24,0,0,0-.18.14c-.08.13-.22.2-.3.32a3.13,3.13,0,0,1-.43.52s0,0,0,0a2.94,2.94,0,0,1-.58.68c-.12.12-.22.26-.34.38a3.79,3.79,0,0,0-.3.4,2.44,2.44,0,0,1-.54.57c-.19.15-.34.35-.53.5s-.34.31-.49.47-.21.21-.32.31l-1,.87a3,3,0,0,1-.35.27,9.89,9.89,0,0,1-1.23.79l-.19.12-.3.16a.85.85,0,0,0-.3.15,2.32,2.32,0,0,1-.57.22.67.67,0,0,1-.28,0l-.61-.06-.11,0h-.06a2.55,2.55,0,0,0-.53-.18c-.1,0-.2-.09-.31-.13a.45.45,0,0,1-.21-.26.41.41,0,0,1,0-.16.59.59,0,0,0-.2-.45l-.06-.1,0-.1a8.46,8.46,0,0,0,0-1,.49.49,0,0,1,0-.17c0-.35.07-.71.11-1.06a1,1,0,0,1,0-.17.54.54,0,0,0,0-.22,4,4,0,0,1,.13-.77l.06-.16a4,4,0,0,0,.22-.57,4.43,4.43,0,0,0,.2-.58.77.77,0,0,1,.07-.16,3,3,0,0,0,.18-.41.75.75,0,0,1,.1-.2c.07-.11.18-.19.22-.32a1,1,0,0,1,.19-.34c.07-.11,0-.27.14-.36a1.15,1.15,0,0,0,.21-.33,2.28,2.28,0,0,1,.44-.71,3,3,0,0,1,.34-.45.54.54,0,0,0,.1-.2c0-.12.16-.21.18-.34a.46.46,0,0,1,.17-.29,1.49,1.49,0,0,0,.36-.5,1.57,1.57,0,0,1,.3-.47,1.9,1.9,0,0,0,.3-.4l.4-.62a1.63,1.63,0,0,1,.42-.45.3.3,0,0,0,.13-.18,1.41,1.41,0,0,1,.32-.52l.3-.34a2.46,2.46,0,0,0,.3-.4,2.27,2.27,0,0,1,.29-.4,1,1,0,0,1,.21-.19.39.39,0,0,0,.15-.23.39.39,0,0,1,.12-.19,1.79,1.79,0,0,1,.28-.27.37.37,0,0,0,.11-.19.22.22,0,0,0,0-.16.5.5,0,0,0-.1-.14,1.9,1.9,0,0,0-.21-.19l-.13-.18a.29.29,0,0,1,0-.27.72.72,0,0,0,.06-.33,2.21,2.21,0,0,1,.08-.72.43.43,0,0,0,0-.16.23.23,0,0,1,.06-.25,2.26,2.26,0,0,1,.35-.28c.12-.06.23-.13.35-.18a.14.14,0,0,1,.11,0,.49.49,0,0,0,.17,0,1.26,1.26,0,0,1,.28,0,.81.81,0,0,0,.22,0,1.23,1.23,0,0,1,.33,0,3.18,3.18,0,0,0,.62,0,.33.33,0,0,1,.17,0,.33.33,0,0,0,.3-.1s0,0,0,0a.23.23,0,0,1,.21-.05.19.19,0,0,1,.12.11v0a.44.44,0,0,0,.16-.06.79.79,0,0,1,.3-.12.29.29,0,0,0,.22-.15A1.18,1.18,0,0,0,48,53.2a.48.48,0,0,1,.17-.2.26.26,0,0,0,.1-.3l-.06-.21c.07,0,.13,0,.13-.12a.21.21,0,0,0,.15,0,.12.12,0,0,0,.12-.09.8.8,0,0,1,0-.21.74.74,0,0,0,0-.21l.17.11A.15.15,0,0,0,49,52h0l.24-.26a.28.28,0,0,0,.12-.12.27.27,0,0,0,.08-.07.64.64,0,0,0,.08-.14.18.18,0,0,1,.16-.14.5.5,0,0,0,.2-.08A.32.32,0,0,0,50,51a.3.3,0,0,1,0-.1.39.39,0,0,1,.14-.17,1.3,1.3,0,0,0,.43-.34l.17-.15a.36.36,0,0,1,.2-.06h0l0,0a.49.49,0,0,1,.12-.34.81.81,0,0,0,.33-.28.93.93,0,0,1,.36-.35.59.59,0,0,0,.22-.25.29.29,0,0,1,.16-.15.32.32,0,0,0,.13-.1,2.43,2.43,0,0,1,.33-.38,1.64,1.64,0,0,1,.42-.37.25.25,0,0,0,.11-.12.73.73,0,0,1,.26-.29.41.41,0,0,0,.16-.34.42.42,0,0,0,0-.22l.13.1a.15.15,0,0,0,.2,0l.2-.17a1.21,1.21,0,0,1,.2-.19l0,0v0a.26.26,0,0,0-.21,0,.5.5,0,0,1-.26.08.21.21,0,0,0-.14.07l-.11.12a1.42,1.42,0,0,0-.29.26.32.32,0,0,1-.11.12,3.79,3.79,0,0,0-.4.3,4.68,4.68,0,0,0-.39.38.73.73,0,0,0-.25.42h0a.86.86,0,0,0-.23.13l-.31.3a.23.23,0,0,0,0,.16.11.11,0,0,0-.11.11l-.1,0a.65.65,0,0,0-.34.4l-.13.12a.35.35,0,0,0-.24.22h0a1,1,0,0,0-.41.29,2.1,2.1,0,0,1-.41.38.22.22,0,0,0-.08.15.11.11,0,0,1,0,0,.13.13,0,0,1-.09.13.49.49,0,0,0-.32.29s0,0,0,0c-.23.22-.44.46-.69.66a1,1,0,0,1-.1.17l-.21.3-.13.11a.91.91,0,0,1-.18.21,2.17,2.17,0,0,0-.32.36.25.25,0,0,1-.3.09h0a.42.42,0,0,1,.12-.25c.12-.1.16-.25.27-.35a1.64,1.64,0,0,0,.29-.35l0,0c.08-.11.22-.16.28-.28s.1-.2.15-.3a.63.63,0,0,1,.12-.11c.06-.05.14-.07.2-.12l.17-.14a.59.59,0,0,1,.24-.23.15.15,0,0,0,.06-.09.36.36,0,0,1,.13-.24c.16-.13.27-.32.45-.42a.34.34,0,0,0,.12-.12,3.58,3.58,0,0,1,.51-.52,4.47,4.47,0,0,0,.42-.45l.2-.2a1.86,1.86,0,0,0,.29-.27c.1-.11.19-.22.28-.34A2.26,2.26,0,0,0,52,48a.16.16,0,0,1,.07-.09c.2-.13.36-.32.56-.46a.74.74,0,0,0,.29-.34s0,0,0,0l0,0a.19.19,0,0,0-.1,0,.37.37,0,0,1-.2.09.47.47,0,0,0-.25.11.19.19,0,0,1-.1,0H52.1l-.44.05-.3.25a.55.55,0,0,1-.19.12,2.62,2.62,0,0,0-.53.2l-.16,0c-.07,0-.16,0-.22,0a4.71,4.71,0,0,0-.45.22c-.06.05-.13.09-.18.14a.33.33,0,0,1-.31.08.11.11,0,0,0-.11,0,.75.75,0,0,1-.32.1l-.34,0a.24.24,0,0,0-.1,0,3.07,3.07,0,0,1-.53.31.73.73,0,0,1-.32.09.52.52,0,0,0-.31.12.43.43,0,0,1-.31.1.12.12,0,0,0-.1.05.31.31,0,0,1-.4.1l-.41-.17a.19.19,0,0,0-.24-.06.1.1,0,0,0,0,0h0a.74.74,0,0,0,.21,0,1.6,1.6,0,0,1,.05.21.13.13,0,0,1,0,.1l-.31.13-.16,0a4,4,0,0,0-.58.2,2.07,2.07,0,0,1-.52.2.36.36,0,0,0-.15.08.2.2,0,0,1-.17,0,.26.26,0,0,0-.21,0l-.1.06a1.33,1.33,0,0,1-.63.22.3.3,0,0,0-.16.05,1.24,1.24,0,0,1-.52.18.88.88,0,0,0-.32.12.9.9,0,0,1-.47.17.21.21,0,0,0-.1,0,2.82,2.82,0,0,1-.69.24.36.36,0,0,0-.18.12.16.16,0,0,1-.16,0l-.16-.06a.27.27,0,0,0-.26.06.59.59,0,0,1-.18.13l-.31.13a.42.42,0,0,1-.27,0,.33.33,0,0,0-.31.11l-.12.11a.19.19,0,0,1-.21,0l-.05,0a.22.22,0,0,0-.21,0,1.72,1.72,0,0,1-.6.31.26.26,0,0,0-.19.1.15.15,0,0,1-.09.06,1.71,1.71,0,0,1-.55.09.6.6,0,0,0-.37.09.62.62,0,0,1-.26.09.52.52,0,0,0-.32.11l-.05,0a.76.76,0,0,0-.41.15.34.34,0,0,1-.15.07.19.19,0,0,0-.18.18.08.08,0,0,1-.08.07.05.05,0,0,1,0,0,.34.34,0,0,0-.26-.08h-.17a.49.49,0,0,0-.37.07.3.3,0,0,1-.16,0,.12.12,0,0,0-.1,0,.39.39,0,0,1-.25.1.17.17,0,0,0-.1,0,.53.53,0,0,0-.15.08.78.78,0,0,1-.53.16.2.2,0,0,0-.15.06.3.3,0,0,1-.16.05h-.11a.47.47,0,0,0-.33,0,.31.31,0,0,1-.21,0l-.34,0-.16,0c-.23.12-.49.2-.72.3a1,1,0,0,1-.33.09.39.39,0,0,0-.21.06,2.77,2.77,0,0,1-.46.22l-.16,0a1.21,1.21,0,0,0-.37.11,3.78,3.78,0,0,0-.35.17.11.11,0,0,1-.11,0l-.16,0a.77.77,0,0,0-.34,0l-.21.08c-.13,0-.22.14-.35.16l-.38.13h-.05a.14.14,0,0,1-.11,0,.35.35,0,0,0-.41.07.31.31,0,0,1-.26.08.24.24,0,0,0-.16.05.68.68,0,0,1-.31.11,2.07,2.07,0,0,1-.49.12l-.24.13-.1.06a.45.45,0,0,1-.27.06.6.6,0,0,0-.23,0,2.62,2.62,0,0,0-.38.09,1.69,1.69,0,0,0-.29.17.52.52,0,0,1-.2.09,1.12,1.12,0,0,0-.46.2.18.18,0,0,1-.16,0,.44.44,0,0,1-.16-.06.16.16,0,0,0-.15,0,3.3,3.3,0,0,1-.73.3.3.3,0,0,1-.16,0,.41.41,0,0,0-.22,0l-.46.21a.88.88,0,0,1-.33.07.17.17,0,0,0-.1,0,.72.72,0,0,1-.43.1.54.54,0,0,0-.22,0,3,3,0,0,0-.42.15c-.19.08-.4.09-.6.16h-.11a.45.45,0,0,0-.37.11.34.34,0,0,1-.2.09,1.36,1.36,0,0,0-.48.12l-.27.08a1.31,1.31,0,0,0-.5.25h0a.83.83,0,0,0-.44.06.42.42,0,0,1-.27,0,.14.14,0,0,0-.15.06l-.13.11a.57.57,0,0,0-.28.17.12.12,0,0,1-.1,0,.36.36,0,0,0-.27,0l-.22,0a.31.31,0,0,0-.16.06l-.21.18a.17.17,0,0,1-.15,0l-.17,0a.3.3,0,0,0-.29.14c-.09.14-.25.16-.38.23s0,0,0,0a1,1,0,0,0-.55.1.71.71,0,0,1-.38.08.57.57,0,0,0-.22,0c-.15.08-.33.06-.48.15a.19.19,0,0,1-.1,0A.92.92,0,0,0,12,60a.52.52,0,0,1-.27.05l-.22,0a1.8,1.8,0,0,1-.39.08.49.49,0,0,0-.16,0l-.15.06-.28,0a1.38,1.38,0,0,1-.27.08c-.36,0-.69.16-1,.21-.07,0-.1.05-.15.08a.47.47,0,0,1-.15.06.84.84,0,0,0-.39.06.19.19,0,0,1-.1,0,1.24,1.24,0,0,0-.5.1,1,1,0,0,1-.38.05.53.53,0,0,0-.22,0c-.18.08-.37,0-.55.12a.25.25,0,0,1-.17,0,1.77,1.77,0,0,0-.5.07c-.36.1-.73.12-1.1.2a1.94,1.94,0,0,1-.34,0,.61.61,0,0,0-.27,0,.9.9,0,0,1-.28,0,3.47,3.47,0,0,0-.56,0,8.43,8.43,0,0,1-1-.06l-.28-.05a1.37,1.37,0,0,0-.28,0,1.72,1.72,0,0,1-.39,0,.3.3,0,0,1-.19-.1.49.49,0,0,0-.24-.14,1.24,1.24,0,0,1-.2-.1A.46.46,0,0,0,.75,61a.66.66,0,0,1-.29-.17.3.3,0,0,1-.07-.15v-.17a.19.19,0,0,0,0-.16.44.44,0,0,1-.12-.18,2.88,2.88,0,0,0-.13-.31,1,1,0,0,1-.07-.6c0-.11.06-.22.07-.33a1,1,0,0,1,.16-.36.31.31,0,0,1,.28-.16H.75a.88.88,0,0,1,.28,0,3.06,3.06,0,0,1,.59.17.47.47,0,0,0,.17,0,5.54,5.54,0,0,1,.56.05,1.76,1.76,0,0,0,.56,0,5,5,0,0,1,.67,0,.86.86,0,0,0,.39,0l.11,0a1.59,1.59,0,0,0,.38-.06,2.58,2.58,0,0,1,.39,0,1.27,1.27,0,0,1,.34,0,.63.63,0,0,0,.27,0,.83.83,0,0,1,.22,0,1.48,1.48,0,0,0,.66-.1.85.85,0,0,1,.22,0c.24,0,.48-.08.72-.14a.32.32,0,0,1,.17,0A1.44,1.44,0,0,0,8,58a.59.59,0,0,1,.22-.05,2.07,2.07,0,0,0,.55-.11l.38-.09a1.88,1.88,0,0,0,.33-.05,1.78,1.78,0,0,1,.33-.09,2.46,2.46,0,0,1,.53-.15,3.58,3.58,0,0,1,.54-.14,2.72,2.72,0,0,0,.49-.13c.13,0,.27,0,.39,0a1.76,1.76,0,0,1,.39-.06.53.53,0,0,0,.32-.08,4.73,4.73,0,0,0,.47-.2,1.36,1.36,0,0,1,.48-.12.14.14,0,0,1,.11,0,.18.18,0,0,0,.16,0l.15-.08a.23.23,0,0,1,.26,0l.09.06a.22.22,0,0,0,.11,0l.43-.13c.14-.06.3,0,.44-.1l.1,0c.25-.09.5-.15.75-.25A2.48,2.48,0,0,0,16.6,56a.45.45,0,0,1,.16,0l.45-.06a.32.32,0,0,0,.16,0,2.08,2.08,0,0,1,.8-.25.49.49,0,0,0,.3-.14.51.51,0,0,1,.34-.17.13.13,0,0,0,.1,0l.14-.1a.49.49,0,0,1,.47-.07l.11,0a.34.34,0,0,0,.22,0,1.05,1.05,0,0,0,.27-.2.54.54,0,0,1,.2-.1,5.56,5.56,0,0,1,.7-.19l.39-.06.36-.15a.29.29,0,0,1,.27,0,.47.47,0,0,0,.33,0,1,1,0,0,0,.37-.1.76.76,0,0,0,.19-.12.25.25,0,0,1,.2-.1h.16A.32.32,0,0,0,23.5,54l.05,0a.2.2,0,0,1,.15-.06c.13,0,.25-.1.38-.07h.06a.2.2,0,0,0,.15-.06.46.46,0,0,1,.17-.14,3.89,3.89,0,0,1,.74-.28l.1,0,.43-.14a3.13,3.13,0,0,0,.44-.1h.11a.36.36,0,0,0,.27,0,1.07,1.07,0,0,1,.27-.08.89.89,0,0,0,.32-.08,4.77,4.77,0,0,0,.52-.22,2.21,2.21,0,0,1,.34-.18.22.22,0,0,1,.22,0,.22.22,0,0,0,.21,0,1.75,1.75,0,0,1,.32-.12.19.19,0,0,0,.1,0,1.76,1.76,0,0,1,.62-.25.88.88,0,0,1,.28-.06A.42.42,0,0,0,30,52a.39.39,0,0,1,.14-.08l.66-.17a.17.17,0,0,1,.1,0,.65.65,0,0,0,.34,0l.27-.08a1.15,1.15,0,0,0,.31-.11,1.24,1.24,0,0,1,.2-.1.53.53,0,0,1,.32-.08l.17,0a.28.28,0,0,0,.2-.08,1.35,1.35,0,0,1,.45-.22.39.39,0,0,1,.28,0l.05,0a.16.16,0,0,0,.2,0,.31.31,0,0,1,.17-.13,3.83,3.83,0,0,0,.73-.29l.1,0h.06a.42.42,0,0,0,.27-.05,1.24,1.24,0,0,1,.53-.18,1,1,0,0,0,.37-.12,1.06,1.06,0,0,1,.43-.12c.23-.07.47-.11.7-.2a5.79,5.79,0,0,1,.8-.27,1.17,1.17,0,0,0,.26-.1.66.66,0,0,1,.27-.06,1.34,1.34,0,0,0,.44-.1.75.75,0,0,1,.32-.1l.1,0,.41-.17a8.11,8.11,0,0,1,1.17-.41,4,4,0,0,1,.58-.2c.22,0,.42-.15.64-.21s.39-.14.58-.21l.16-.07a10.12,10.12,0,0,1,1-.4c.21-.07.43-.14.65-.19l.31-.11a.6.6,0,0,1,.21-.08,1.19,1.19,0,0,0,.48-.16,4,4,0,0,1,.85-.28,1.82,1.82,0,0,0,.37-.13l.26-.1a2.09,2.09,0,0,0,.41-.17l.31-.14L48.1,46l.26-.1a3.39,3.39,0,0,0,.53-.2,2.64,2.64,0,0,1,.47-.17,1.94,1.94,0,0,0,.33-.07c.1,0,.2-.11.3-.16l.63-.24a3.38,3.38,0,0,0,.52-.22l.16-.05c.4-.13.81-.28,1.21-.44l.05,0c.2-.09.4-.2.61-.28s.4-.12.59-.2a4,4,0,0,0,.56-.25c.08,0,.19,0,.27-.09s.29-.08.42-.16a1.84,1.84,0,0,1,.4-.19c.15,0,.27-.14.41-.18a.78.78,0,0,0,.2-.11.52.52,0,0,1,.15-.07.91.91,0,0,0,.4-.18.54.54,0,0,1,.2-.1,1.28,1.28,0,0,0,.42-.17,1,1,0,0,1,.25-.12c.46-.12.43-.21.77-.45s.41-.32.62-.48a.69.69,0,0,0,.11-.13.61.61,0,0,1,.19-.2,1.63,1.63,0,0,0,.45-.42.88.88,0,0,1,.24-.23,3.57,3.57,0,0,0,.5-.45l.12-.12a2.84,2.84,0,0,0,.54-.5c.13-.18.32-.31.44-.5a1.26,1.26,0,0,1,.2-.2l.23-.16a1.22,1.22,0,0,0,.31-.33c.05-.07.12-.14.17-.22a.8.8,0,0,1,.29-.26,2,2,0,0,0,.46-.4,4.33,4.33,0,0,1,.71-.64.38.38,0,0,0,.24-.22.74.74,0,0,1,.18-.21,1.94,1.94,0,0,0,.51-.52.75.75,0,0,1,.17-.14,2.24,2.24,0,0,0,.45-.42,2.73,2.73,0,0,1,.25-.23,4.89,4.89,0,0,0,.4-.39,3.57,3.57,0,0,1,.28-.27,1.15,1.15,0,0,0,.42-.37,1.7,1.7,0,0,1,.38-.33c.19-.12.34-.3.54-.4a.3.3,0,0,0,.08-.08,4.09,4.09,0,0,1,.76-.74,2.35,2.35,0,0,0,.33-.3,2.37,2.37,0,0,1,.39-.32,3.14,3.14,0,0,0,.64-.62l.12-.11c.19-.1.31-.27.5-.37s.18-.19.3-.25.28-.19.4-.3a3,3,0,0,1,.38-.33l.39-.32a1.64,1.64,0,0,1,.5-.36.41.41,0,0,0,.13-.1,1.8,1.8,0,0,0,.19-.2.87.87,0,0,1,.22-.17,1.06,1.06,0,0,0,.35-.28,1.88,1.88,0,0,1,.23-.16l.22-.17a.67.67,0,0,0,.25-.22.44.44,0,0,1,.18-.12,1.08,1.08,0,0,0,.3-.16c.18-.16.4-.27.59-.43s.18-.13.27-.2a6.42,6.42,0,0,1,.6-.42c.26-.15.5-.33.74-.5l.39-.23a1.19,1.19,0,0,0,.23-.16.41.41,0,0,1,.19-.12.42.42,0,0,0,.18-.11.92.92,0,0,1,.49-.27.42.42,0,0,0,.14-.09,9.52,9.52,0,0,1,1.16-.68,2.5,2.5,0,0,0,.74-.39c.1-.06.18-.14.3-.13a2.17,2.17,0,0,0,.41-.19,1.07,1.07,0,0,1,.31-.13.87.87,0,0,0,.46-.2,6,6,0,0,1,.84-.31l.25-.11c.1,0,.23,0,.32-.09a1.35,1.35,0,0,1,.32-.11l.32-.1a.48.48,0,0,1,.56.12.86.86,0,0,0,.18.14,2.2,2.2,0,0,1,.28.18,5.35,5.35,0,0,1,.45.5,2.15,2.15,0,0,1,.35.5,1.27,1.27,0,0,0,.13.19,2.33,2.33,0,0,1,.39,1,1,1,0,0,1,0,.17.48.48,0,0,0,0,.17.64.64,0,0,1,0,.43,5.48,5.48,0,0,0-.1.56,1.32,1.32,0,0,1-.19.46,4.92,4.92,0,0,0-.26.43,1.4,1.4,0,0,1-.15.24,9.12,9.12,0,0,1-.9,1.15.79.79,0,0,1-.27.2l-.1,0a.61.61,0,0,0-.19.2,1.85,1.85,0,0,1-.54.64c-.2.17-.42.31-.61.49s-.24.24-.37.35l-.35.27a1.18,1.18,0,0,0-.33.3.2.2,0,0,1-.08.08,4.69,4.69,0,0,0-.63.47l-.15.17a.43.43,0,0,1-.12.11,4.67,4.67,0,0,1-.49.27.35.35,0,0,0-.18.2.19.19,0,0,1-.11.12,2,2,0,0,0-.51.23.61.61,0,0,0-.2.19.22.22,0,0,1-.12.11.52.52,0,0,0-.26.2.19.19,0,0,1-.14.09.21.21,0,0,0-.15.07,1.6,1.6,0,0,1-.35.28,1,1,0,0,0-.25.22.45.45,0,0,1-.19.11l-.21.08-.14.09a1.24,1.24,0,0,1-.22.18l-.2.09a.37.37,0,0,0-.21.18s0,0,0,0a4.68,4.68,0,0,0-.6.5.29.29,0,0,1-.2.07.26.26,0,0,0-.15.07.72.72,0,0,1-.22.17,3.9,3.9,0,0,0-.35.19.63.63,0,0,0-.12.11.27.27,0,0,1-.17.13.33.33,0,0,0-.24.14.44.44,0,0,1-.21.17l-.26.11c-.13,0-.25.08-.37.12l-.15.09-.16.15c-.19.1-.35.23-.54.31a2.28,2.28,0,0,0-.71.44l0,0h-.1s-.06-.09,0-.14.08-.08.12-.11a.21.21,0,0,0,.06-.1.09.09,0,0,0,0-.1h0l-.1,0a1.22,1.22,0,0,0-.54.28.9.9,0,0,1-.3.17.93.93,0,0,0-.2.1.22.22,0,0,0-.1.24c-.07,0-.09.08-.12.13l-.15-.08,0,0h-.05c-.15.07-.32.1-.4.26s-.18.12-.28.17v0h0a.3.3,0,0,0,.4,0l.11-.12a.31.31,0,0,1,.19-.11.4.4,0,0,0,.2-.09l.12-.12a.39.39,0,0,0,.36-.1l.17-.15.13-.11a.3.3,0,0,1,.21,0,.13.13,0,0,1,.1.11.23.23,0,0,1-.08.2l-.38.32a.17.17,0,0,1-.1,0,.51.51,0,0,0-.15.07.34.34,0,0,1-.14.09.39.39,0,0,0-.25.1l-.1,0a.54.54,0,0,0-.45.29.08.08,0,0,1-.09,0,.15.15,0,0,0-.14.07.27.27,0,0,1-.08.07.74.74,0,0,0-.21.07l-.39.23c-.3.16-.23.2-.68.12l.07-.08a.33.33,0,0,1,.15-.16s0,0,0-.09a.08.08,0,0,0-.1,0l-.36.14c-.18.06-.31.2-.49.27l-.13.1-.07.09a.06.06,0,0,0,0,0,.1.1,0,0,0,0,0h0l.31-.13c.12-.07.26,0,.38-.1l.15-.08a.35.35,0,0,1-.1.2L68,40c-.14,0-.25.17-.4.18a1.28,1.28,0,0,1-.47.18l0,0-.09.06c-.1.15-.26.21-.36.35a.1.1,0,0,1-.14,0h0a.18.18,0,0,0-.25,0L66,41a.68.68,0,0,0-.12.12.41.41,0,0,1-.4.25.39.39,0,0,0-.26.09l-.26.21a.29.29,0,0,1-.27.06.43.43,0,0,0-.16,0,.13.13,0,0,0-.1,0c-.13.14-.33.18-.46.31a2.93,2.93,0,0,1-.53.33l-.2.09-.15.07a.7.7,0,0,1-.34.18l-.33.1a.42.42,0,0,0-.2.1A.43.43,0,0,1,62,43a.89.89,0,0,0-.4.2l0,0a1.2,1.2,0,0,0-.45.23.8.8,0,0,1-.36.14.52.52,0,0,0-.15.07l-.24.15a.71.71,0,0,0-.32.1s-.07,0-.11,0h-.11l-.14.07-.47.32a2.86,2.86,0,0,1-.54.3,1.92,1.92,0,0,0-.53.32,2.78,2.78,0,0,0-.53.5,1.94,1.94,0,0,1-.36.34c-.14.1-.26.22-.39.33l-.12.12a4.69,4.69,0,0,1-.62.64l-.2.2c-.19.21-.4.4-.61.59l-.08.07-.35.37c-.12.12-.22.2-.33.3a.69.69,0,0,0-.11.13,1.63,1.63,0,0,1-.42.45c-.14.13-.26.26-.39.4a11,11,0,0,1-.84.83c-.21.19-.39.41-.59.6s-.37.38-.53.58l-.08.09a3.19,3.19,0,0,0-.54.56c-.11.13-.26.21-.37.34a2.35,2.35,0,0,1-.3.33,3.63,3.63,0,0,0-.47.49l-.2.2-.37.35a1.13,1.13,0,0,0-.12.18s0,.07,0,.1l.1.05h.11a1.36,1.36,0,0,1,.45,0l.5.08a.55.55,0,0,0,.22,0c.28,0,.56,0,.84,0a1.29,1.29,0,0,0,.28,0,6.37,6.37,0,0,1,1.07,0,.38.38,0,0,1,.21.07.15.15,0,0,0,.16,0,1.15,1.15,0,0,1,.61-.07l.1,0a.28.28,0,0,0,.22,0,.51.51,0,0,1,.27,0,.32.32,0,0,0,.17,0,.75.75,0,0,1,.49,0l.17,0a.3.3,0,0,0,.16,0,.45.45,0,0,1,.16,0,2.67,2.67,0,0,0,.89-.09,1.08,1.08,0,0,1,.44,0,1.79,1.79,0,0,0,.4,0l.89-.11.5-.08a1.14,1.14,0,0,1,.55,0h.12a1.63,1.63,0,0,0,.31-.11,3.75,3.75,0,0,1,.53-.19,1,1,0,0,1,.33-.06.77.77,0,0,0,.27-.08.1.1,0,0,1,.13.06s0,.1-.1.12h-.05a.47.47,0,0,0-.17,0,1.27,1.27,0,0,1-.54.14l-.33.07a.39.39,0,0,0-.15.06A1.09,1.09,0,0,1,59,54s0,0,0,0a.05.05,0,0,0,0,0,.1.1,0,0,0,.1,0,.93.93,0,0,1,.33,0A.7.7,0,0,0,59.8,54a.69.69,0,0,1,.28,0l.39,0a.5.5,0,0,0,.27-.07l.21-.07.34-.05a.82.82,0,0,0,.31-.11.32.32,0,0,1,.16,0,.6.6,0,0,0,.43-.1l.05,0a.35.35,0,0,0,.25-.39.17.17,0,0,1,.08-.14l0,0a2.3,2.3,0,0,0,.8-.5,2.35,2.35,0,0,0,.29-.26c.23-.22.48-.42.71-.64l.19-.13.32-.23c.25-.3.62-.48.9-.76a3,3,0,0,1,.4-.3.83.83,0,0,1,.18-.13c.23-.13.43-.3.65-.44a.39.39,0,0,1,.14-.08,1.11,1.11,0,0,0,.3-.17,3.24,3.24,0,0,1,.85-.43.47.47,0,0,0,.15-.06,1,1,0,0,1,.53-.18.3.3,0,0,0,.19-.1.2.2,0,0,1,.26,0,3.65,3.65,0,0,1,.78.63,1,1,0,0,0,.23.17,1.06,1.06,0,0,1,.3.33.42.42,0,0,1,0,.1,1.38,1.38,0,0,0,.26.36.91.91,0,0,1,.24.38,2.76,2.76,0,0,1,.08.27,1.64,1.64,0,0,1,0,.22c0,.06,0,.11,0,.17a1.23,1.23,0,0,1-.3.88,2,2,0,0,1-.19.28c-.07.09-.16.16-.23.24l-.31.33a.8.8,0,0,1-.19.13l-.05,0a3.83,3.83,0,0,0-.42.28,1.71,1.71,0,0,0-.4.21.2.2,0,0,1-.09.06,4.41,4.41,0,0,0-.65.33c-.26,0-.46.24-.73.29l-.78.32a5.66,5.66,0,0,1-1,.36c-.36.09-.71.21-1.08.27a2.4,2.4,0,0,0-.38.12.83.83,0,0,1-.27.07,1.9,1.9,0,0,0-.81.2,1.16,1.16,0,0,0-.61.38l-.7.73a4.77,4.77,0,0,0-.58.76,2.6,2.6,0,0,0-.36.75.16.16,0,0,0,.11.17.57.57,0,0,0,.22,0L62,58.3a1,1,0,0,1,.17,0l.61-.07c.33-.13.68-.2,1-.35l1-.4.32-.1a.47.47,0,0,0,.2-.1.28.28,0,0,1,.22,0h0s0-.07.07-.08A1,1,0,0,0,66,57a1.88,1.88,0,0,1,.23-.16.48.48,0,0,1,.37-.06.1.1,0,0,0,.12-.07h0a.19.19,0,0,1,.2-.14H67a.78.78,0,0,0,.36-.13l.09-.06c.08,0,.19,0,.24-.11a1.24,1.24,0,0,0,.1-.2c0-.06.1-.07.2,0L68,56h0l0,0h.11a.4.4,0,0,0,.39-.26h0a.33.33,0,0,0,.17,0,6.59,6.59,0,0,1,.65-.33l.09-.06a.57.57,0,0,1,.3-.15.36.36,0,0,0,.24-.21h0a2.87,2.87,0,0,0,.4-.18s.06,0,.09-.07h0a.44.44,0,0,0,.42-.3c0-.07.05-.07.13-.06s.08,0,.11,0a4.54,4.54,0,0,0,.45-.21.28.28,0,0,0,.17-.21s0,0,0-.05.09-.12.23-.09.13,0,.13-.12a.15.15,0,0,1,.06-.09.68.68,0,0,1,.35-.17.43.43,0,0,1,.16,0h0a.08.08,0,0,0,0,.08s0,0,0,0v0a.31.31,0,0,0,.21,0c.18-.14.39-.22.58-.34s.36-.18.54-.28l.24-.14a1.64,1.64,0,0,1,.29-.16.14.14,0,0,0,.09-.13c0-.14.08-.19.2-.22l.1,0h0l0,.1a.09.09,0,0,0,.08.09h0a.3.3,0,0,0,.17-.12.43.43,0,0,1,0,0h0a.43.43,0,0,0,.3-.09l.08-.06h0a.13.13,0,0,0,.17-.06v0h0l.24-.12h0l.05,0a.23.23,0,0,0,.15-.15.31.31,0,0,1,.27-.24.16.16,0,0,1,.15,0c.08.08.09.08.14.05l.1-.05.08-.07c.08-.08.14-.19.27-.19.19-.17.43-.28.63-.45a.15.15,0,0,1,.16,0,.87.87,0,0,0,.24.15.36.36,0,0,1,.29.23.32.32,0,0,0,.12.11l.21.08c.09,0,.16.09.14.21a.13.13,0,0,0,.07.14.18.18,0,0,0,.09.06.78.78,0,0,1,.42.5,1.18,1.18,0,0,0,.27.49.64.64,0,0,1,.1.13.27.27,0,0,1,0,.31l-.09.08a2.26,2.26,0,0,0-.35.28.75.75,0,0,0-.16.15c-.18.22-.42.37-.58.6a.45.45,0,0,1-.14.1.49.49,0,0,0-.22.25c0,.11-.15.16-.22.25a.09.09,0,0,0,0,.05.06.06,0,0,0,.07,0h0l.44-.25a.61.61,0,0,1,.56-.18.32.32,0,0,0,.26-.09.84.84,0,0,0,.23-.23h0a1.4,1.4,0,0,0,.67-.45h0a1.44,1.44,0,0,0,.64-.32.1.1,0,0,0,0-.14.15.15,0,0,1,0-.2.38.38,0,0,1,.2-.1.14.14,0,0,1,.18.06h0a.06.06,0,0,0,.09,0h0a2.83,2.83,0,0,0,.69-.36c.12-.08.27-.13.4-.2a1,1,0,0,1,.41-.18c.18-.1.38-.14.56-.24a7.43,7.43,0,0,1,1.21-.57,2,2,0,0,0,.57-.34h0a.3.3,0,0,0,.21,0,.15.15,0,0,0,.08-.08l0,0,.17,0a.24.24,0,0,0,.17-.12.36.36,0,0,1,.27-.18,2.8,2.8,0,0,0,.64-.2.28.28,0,0,1,.22,0l.4.19a.16.16,0,0,1,.07.09.31.31,0,0,0,.15.22l.24.14a.24.24,0,0,1,.12.24.1.1,0,0,0,0,.1.27.27,0,0,0,.08.07c.2.09.29.28.42.44a.15.15,0,0,1,0,.11c0,.14,0,.14.06.21s.2.27.29.41a.16.16,0,0,1,0,.2,1.42,1.42,0,0,0-.3.25,3.6,3.6,0,0,0-.51.59,1.21,1.21,0,0,0-.35.43,1.87,1.87,0,0,1-.36.43l-.2.2a2.22,2.22,0,0,0-.4.47.72.72,0,0,1-.17.22,2.07,2.07,0,0,0-.34.44,2.42,2.42,0,0,1-.25.31,4.72,4.72,0,0,0-.52.72c-.13.21-.29.39-.4.6s-.24.38-.36.57a1,1,0,0,0-.16.36.12.12,0,0,0,.1.11.42.42,0,0,0,.22,0c.21-.08.41-.17.62-.24h.17l.09.06a0,0,0,0,0,0,0,0,0,0,0,0,0,0l0,0-.1,0a1,1,0,0,1,.46-.31,5.61,5.61,0,0,0,.54-.29s.09-.07.14-.09a3.07,3.07,0,0,0,.68-.39l1-.6c.2-.12.37-.27.57-.37a4.92,4.92,0,0,0,.56-.37l.9-.57a2.39,2.39,0,0,0,.34-.21c.41-.32.86-.59,1.3-.87s.56-.38.86-.54.55-.38.81-.59l.28-.19c.16-.1.31-.21.47-.3a3.08,3.08,0,0,0,.41-.3,3.76,3.76,0,0,0,.46-.32l.1,0A.48.48,0,0,0,95.8,52l.22-.26.11-.12a.27.27,0,0,1,.3-.08l.15.07a.09.09,0,0,0,.11,0,1.15,1.15,0,0,1,.25-.12.71.71,0,0,0,.25-.11.93.93,0,0,1,.2-.1,1.38,1.38,0,0,0,.28-.19l.2-.1a.58.58,0,0,0,.43-.24.29.29,0,0,1,.14-.08c.24-.1.49-.19.74-.27a.58.58,0,0,0,.25-.12.83.83,0,0,1,.44-.24,2.13,2.13,0,0,0,.41-.18l.15-.07s.77-.2.82-.2a1.46,1.46,0,0,1,.55,0H102a1.06,1.06,0,0,0,.5,0,.23.23,0,0,1,.28.11l.13.18a1.29,1.29,0,0,0,.16.17,4,4,0,0,1,.35.36,3.51,3.51,0,0,0,.46.56A.42.42,0,0,1,104,51a1.88,1.88,0,0,0,.25.56,2.85,2.85,0,0,1,.31.72.08.08,0,0,0,0,.05.23.23,0,0,0,.17.13.66.66,0,0,0,.28,0,2.87,2.87,0,0,1,.5-.07.87.87,0,0,0,.38-.11l.59-.16.14-.09h0a.42.42,0,0,0,.2-.1.3.3,0,0,1,.36-.06.18.18,0,0,0,.2,0,.14.14,0,0,1,.15,0,.33.33,0,0,0,.22,0,.72.72,0,0,1,.32-.08.55.55,0,0,0,.22-.06.67.67,0,0,0,.33-.27.08.08,0,0,1,.12,0l0,0a.16.16,0,0,0,.14.08.22.22,0,0,0,.11,0,3.58,3.58,0,0,1,.64-.18,2,2,0,0,0,.32-.11.5.5,0,0,1,.21,0,.93.93,0,0,0,.51-.21h0a.55.55,0,0,0,.22,0,1.28,1.28,0,0,1,.55-.1.81.81,0,0,0,.27,0l.59-.18a.15.15,0,0,0,.09-.06.23.23,0,0,1,.17-.13l.22,0a.47.47,0,0,1,.43,0,.17.17,0,0,0,.2,0,.41.41,0,0,1,.36-.13h.45a.5.5,0,0,1,.21,0l.2.1a.5.5,0,0,1,.17.15l.11.19c.06.1,0,.24.14.3s.24.29.42.37l0,0a.21.21,0,0,1,.1.19,1.38,1.38,0,0,0,.1.49.42.42,0,0,0,.09.14l.18.29a.22.22,0,0,1,0,.16l-.06.09c-.15.11-.16.3-.26.43a1.87,1.87,0,0,0-.28.35c-.08.13-.17.25-.24.38a1.75,1.75,0,0,1-.43.51.63.63,0,0,0-.2.33.08.08,0,0,0,0,0h0l.32-.12a1.69,1.69,0,0,1,.31-.13l.31-.11a.28.28,0,0,1,.22,0,.21.21,0,0,0,.24-.09s0-.1.07-.15a.12.12,0,0,1,.1,0h0l.07.08a.12.12,0,0,0,.15,0l.35-.14a.79.79,0,0,0,.24-.21Zm-73.5,13.2s0-.05,0,0h0Zm-.12-.6.12-.12,0,0v0l-.14.11v0Zm.81-.1.11-.12.06-.08a.16.16,0,0,0,0-.15.44.44,0,0,0,.13-.14.22.22,0,0,1,.14-.08s0-.11.1-.14l.13-.08a.18.18,0,0,0,.09-.13c.05,0,.06,0,0,0l0,0s-.08,0-.09.12l-.14.09a.08.08,0,0,1,0,.08l-.08,0-.14.1-.13.12a.22.22,0,0,0-.07.24s-.09.06-.1.12l-.13.14a.29.29,0,0,0-.16,0s-.1.07,0,.06,0,0,.05,0l.09-.06a.37.37,0,0,1,.12-.13Zm.31-1.15c.06,0,.09-.06.14-.1l.1-.12c.05,0,.06,0,0,0l0,0-.1.12a.4.4,0,0,0-.15.1v0Zm1-.32s0,0,0,0v0a.06.06,0,0,0-.07,0h0a0,0,0,0,0,0,0s0,0,0-.06,0,0,0,0Zm.54-.7s0,0,0,0v0Zm.34-.44c0-.07.09-.08.15-.1l.11-.12.11-.11h0v0l-.12.11-.1.12a.48.48,0,0,1-.17.1s0,0,0,0Zm-.44-.23a.14.14,0,0,0,.12-.11l.13-.1c.05,0,.08-.07.12-.1l.09-.13h0l0,0a.11.11,0,0,1-.08.13h0c-.05,0-.11,0-.12.1l-.12.1a.28.28,0,0,0-.13.11s0,0,0,0,0,0,0,0Zm1.58-1.12.15-.09.11-.17a.48.48,0,0,0,.06-.18.44.44,0,0,0,.15-.12.25.25,0,0,0,.08-.22.26.26,0,0,0,.14-.11l0,0v0l-.14.11a.21.21,0,0,0-.07.13s0,.06,0,.1l-.15.11c-.05.07-.1.14-.14.21a.17.17,0,0,0,0,.14l-.14.1a.14.14,0,0,0-.13.12.25.25,0,0,0-.08.22l-.14.13v0h0s0-.05,0-.06l.14-.12a.36.36,0,0,0,.08-.23.11.11,0,0,0,.12-.1v0Zm-.54,0v0h0Zm2.13-2.3s0,0,0,0h0a.29.29,0,0,1-.14.13s0,0,0,0l0,0a.1.1,0,0,1,.05-.08.47.47,0,0,1,.09-.06ZM64.84,38.4a.37.37,0,0,1,0,.18c0,.05-.09.05-.13.08a.7.7,0,0,0-.18.2s0,0,0,0v0a.7.7,0,0,0,.42-.11,7,7,0,0,1,.65-.39.56.56,0,0,0,.21-.17h0a.3.3,0,0,0,.21,0,7.49,7.49,0,0,1,.84-.44.75.75,0,0,0,.15-.09c.37-.18.7-.41,1.07-.6.12,0,.21-.15.34-.2a2.17,2.17,0,0,0,.57-.33,2.5,2.5,0,0,1,.39-.23,6.33,6.33,0,0,1,.68-.36,4.59,4.59,0,0,1,.66-.42c.16-.14.36-.2.52-.32a1.35,1.35,0,0,0,.47-.3c.06-.05.13-.07.16-.15a.29.29,0,0,0,.23-.12l.16,0,.29-.15A1.27,1.27,0,0,0,73,34a.55.55,0,0,0,.24-.12.15.15,0,0,0,.07-.13h.16l0,0a.07.07,0,0,0,.05-.08s0,0,0,0h-.05l-.17.14-.16,0A.27.27,0,0,0,73,34c-.1,0-.18,0-.27,0l0,0,0,0a.27.27,0,0,1,.1-.13l.47-.32c.14-.08.28-.18.42-.28s.33-.17.48-.28l0,0c.21-.16.42-.31.64-.45a.2.2,0,0,0,.09-.06,1.92,1.92,0,0,1,.5-.36c.12-.07.21-.16.32-.23a3.54,3.54,0,0,1,.51-.35.57.57,0,0,0,.18-.12,1.61,1.61,0,0,1,.52-.34l.13-.1a3.06,3.06,0,0,1,.53-.42l.14-.08a7,7,0,0,1,.77-.57l.3-.26c.4-.39.85-.73,1.28-1.09l.19-.13a.31.31,0,0,0,.13-.1,1.6,1.6,0,0,1,.43-.43,1.54,1.54,0,0,0,.36-.36,1.19,1.19,0,0,1,.2-.19,1.29,1.29,0,0,0,.21-.19,1.7,1.7,0,0,1,.37-.34,2,2,0,0,1,.35-.37.69.69,0,0,0,.11-.13,2.07,2.07,0,0,1,.34-.44,2.32,2.32,0,0,0,.3-.4.13.13,0,0,0,0-.06.05.05,0,0,0,0,0,.05.05,0,0,0,0,0,1.4,1.4,0,0,0-.42.15c-.46.16-.91.35-1.36.53a1.4,1.4,0,0,0-.3.15.61.61,0,0,1-.3.15.77.77,0,0,0-.26.12,5.42,5.42,0,0,1-1.1.56l-.1.05a1.11,1.11,0,0,1-.34.18c-.21.09-.38.24-.58.34a2.57,2.57,0,0,1-.67.41,4.86,4.86,0,0,0-.93.62,5.85,5.85,0,0,1-.93.63l-.11,0a.32.32,0,0,0-.18.12,1.64,1.64,0,0,1-.47.4,4.66,4.66,0,0,1-.47.3.32.32,0,0,0-.12.11.72.72,0,0,1-.22.17l-.2.11a2.44,2.44,0,0,1-.51.35,4,4,0,0,1-.67.5.81.81,0,0,0-.33.38.11.11,0,0,1-.09.06.58.58,0,0,0-.25.12,4.75,4.75,0,0,0-.75.59,4.15,4.15,0,0,1-.52.42.3.3,0,0,0-.08.08,5,5,0,0,1-.54.49c-.07.06-.15.11-.22.18-.29.26-.6.51-.87.78a.8.8,0,0,1-.17.15,1.64,1.64,0,0,0-.35.29l-.17.14a.64.64,0,0,0-.27.27c0,.07-.11.1-.17.15s-.34.29-.5.45a3.06,3.06,0,0,1-.61.58,1.31,1.31,0,0,0-.25.22c-.14.15-.25.33-.39.48s-.31.27-.46.41l-.12.12a1.71,1.71,0,0,1-.25.22l-.2.19a.41.41,0,0,0-.14.3.11.11,0,0,1-.06.09,1.18,1.18,0,0,1-.19.11,1.09,1.09,0,0,0,0-.18h0ZM42.33,59.45s0,0,0,0h0s0,0,0,0ZM64,38.55s-.06,0,0,0l0,0c.05,0,.06,0,0,0Zm.2-.9h0v0ZM44.94,58.11h0v0Zm31.63-.46h0Zm-32.75,0a.17.17,0,0,0,.09-.15h0l0,0s-.09.07-.1.14,0,0,0,0Zm7.75-7-.1.14a.2.2,0,0,0-.11.11s0,0,0,0l0,0,.11-.11.1-.12,0,0Zm11-11,0,0,0,0a.11.11,0,0,0,0,.05h0s0-.05,0-.05Zm13.5-13a.14.14,0,0,0-.1.11h-.1a.12.12,0,0,0-.13.12.37.37,0,0,0-.21.06l0,0a0,0,0,0,0,0,.05s0,0,0,0a.35.35,0,0,0,.2-.18h.11a.14.14,0,0,0,.12-.1.18.18,0,0,0,.1-.11.19.19,0,0,0,.11-.15.41.41,0,0,0,.26-.07l.09-.05,0,0s0,0,0,0a.09.09,0,0,0-.08,0l-.06.08a.79.79,0,0,0-.26.08Zm13,30.17.09-.15a.59.59,0,0,0,.2-.12.33.33,0,0,0,.25-.08.33.33,0,0,1,.11-.15.44.44,0,0,0,.25-.08.52.52,0,0,0,.26-.2s0,0,0,0,.06,0,.06,0h0l-.1,0a.49.49,0,0,0-.18.2.67.67,0,0,0-.25.08.4.4,0,0,1-.12.16.37.37,0,0,0-.25.07l-.19.12a.26.26,0,0,0-.1.13h0Zm-68-.14a.06.06,0,0,0,0,0s0,0,0,0,0-.05-.05,0l0,0ZM60.36,40.34s-.08.09-.15.08l-.15.08c-.15.13-.3.28-.44.42l-.07.09a.14.14,0,0,0,0,.16.17.17,0,0,0,.15,0,1.62,1.62,0,0,0,.35-.17,1.21,1.21,0,0,0,.16-.16.25.25,0,0,0,0-.26c0-.07-.05-.14-.07-.21l.17,0,0,0c.09.05.15.05.2,0a.91.91,0,0,1,.21-.18.75.75,0,0,0,.17-.14,2.35,2.35,0,0,1,.33-.3c.1-.1.19-.22.3-.33a.7.7,0,0,1,.2-.18c.19-.1.26-.31.42-.43l0-.16.15,0a3.5,3.5,0,0,1,.43-.33l.18-.2s0,0,0,0a.19.19,0,0,1,.2,0,.27.27,0,0,0,.07.08h0l0,0s0,0-.06,0a.16.16,0,0,0-.1,0,.73.73,0,0,1,.15-.35.84.84,0,0,0,.23-.23.42.42,0,0,0,.18-.11,1.52,1.52,0,0,0,.26-.35l.15-.07c.08-.07.14-.17.23-.24s.2-.16.3-.24l.12-.12s0-.07.07-.08c.19-.09.3-.28.47-.4l.06-.09a.1.1,0,0,0,0-.14h0a.28.28,0,0,0-.34.11c-.06.12-.12.23-.26.26a.36.36,0,0,0-.15.08,2.41,2.41,0,0,0-.41.37.05.05,0,0,0,0,.05.88.88,0,0,1,0,.15l-.15.16a.1.1,0,0,0,0,.1,1,1,0,0,0,0,.1.86.86,0,0,0-.23,0h0a.08.08,0,0,0,0,0c-.08,0-.13,0-.17,0a2.1,2.1,0,0,0-.15.22v0c.09.07.09.19.15.27h-.1a.14.14,0,0,0-.12.09.26.26,0,0,0,0,.15.6.6,0,0,0-.35.1L63,38a.18.18,0,0,1-.2,0l0,0h0a.92.92,0,0,1-.24.28l-.15.15a.44.44,0,0,0-.14.28.31.31,0,0,0-.1.05l-.2.16a.63.63,0,0,0-.19.24h0a1.09,1.09,0,0,0-.23.14,7.71,7.71,0,0,0-.7.7,1.38,1.38,0,0,0-.27.27ZM68,56.53c.07,0,.09-.06.11-.11h0v0c-.06,0-.12,0-.12.11h0ZM62.49,40.79h0a.14.14,0,0,0,.12-.14.14.14,0,0,0,.15.06l0,0c0-.05,0-.08,0-.08a.11.11,0,0,0-.14.07.3.3,0,0,0-.12.13Zm11.39-7.32a.11.11,0,0,0,.09-.12v0a.26.26,0,0,0,.25-.08l.1,0c.21-.12.42-.24.62-.38a.7.7,0,0,0,.27-.27l.16,0a3.5,3.5,0,0,1,.49-.37A.24.24,0,0,0,76,32a.27.27,0,0,0,.22-.11.14.14,0,0,0,.11-.13h0a.24.24,0,0,0-.11.13l-.16,0S76,32,76,32a.79.79,0,0,0-.52.24,1.71,1.71,0,0,1-.2.18.21.21,0,0,0-.07.14.56.56,0,0,0-.35.15.29.29,0,0,1-.14.08,1.33,1.33,0,0,0-.38.23.29.29,0,0,0-.12.23.27.27,0,0,0-.26.08.14.14,0,0,0-.09.14h0l0,0s.05,0,.05,0ZM67,35.59v0h0Zm2.46-2.25s0,0,0,0h0v0ZM85.35,55.5l.12-.09h.06a.2.2,0,0,0,.21-.14.46.46,0,0,0,.05-.21.09.09,0,0,0,.1,0s0,0,0-.07a0,0,0,0,0,0,0,.07.07,0,0,0,0,.08h-.06a.16.16,0,0,0-.18.09.54.54,0,0,0-.09.25l-.12.1-.12.13c-.09,0-.12.07-.15.14a0,0,0,0,0,0,0,.05.05,0,0,0,.08,0l0,0a.18.18,0,0,0,0-.2ZM65.63,36.81h0v0ZM61,43.16,61,43l.11,0s0,0,0,0,0,0,0,0-.06,0-.08,0A.7.7,0,0,1,61,43a.25.25,0,0,1-.12.11l-.19,0h0a.3.3,0,0,1-.19.1h-.11a.32.32,0,0,0-.17,0c-.17.1-.37.17-.54.28a.19.19,0,0,0-.1.19.34.34,0,0,0,0,.1h0a.47.47,0,0,1,.44-.19.22.22,0,0,0,.15-.06l.08-.08a.42.42,0,0,1,.28-.16.47.47,0,0,0,.16,0,.22.22,0,0,0,.12-.11l0-.1.15,0ZM27.16,54.84h0v0L27,55a1,1,0,0,0-.19.12h0L27,55a.3.3,0,0,0,.13-.12ZM30,54.18h0ZM80.29,28.75v0h0s0,0,0,0S80.29,28.71,80.29,28.75Zm1.9.22s-.08.07-.12.1h0a.12.12,0,0,0,.12-.1.18.18,0,0,0,.14-.11.18.18,0,0,0,.23-.09l.06-.09a.5.5,0,0,1,.19-.19l.2-.1a.11.11,0,0,0,0-.09c0-.07,0-.14,0-.21l0,0v0a.51.51,0,0,0-.29.13,3,3,0,0,0-.49.58s0,0,0,.06a.28.28,0,0,0-.13.11Zm-2.49.19a.37.37,0,0,1-.08.18c-.07,0-.1,0-.12.1a.11.11,0,0,0-.1.12.18.18,0,0,0-.24.09.13.13,0,0,0-.14.06s0,0,0,.05l0,0c.09,0,.12-.06.1-.15a.24.24,0,0,0,.25-.09.86.86,0,0,1,.22-.22v-.1s0-.05.07-.06h0Zm1.93.25a.14.14,0,0,0-.08.15h-.06a.2.2,0,0,0-.19.08c-.06.08-.1.16-.16.23A.28.28,0,0,1,81,30a.75.75,0,0,0-.2.1,3.48,3.48,0,0,1-.48.38.43.43,0,0,0-.11.12l-.12.19a.36.36,0,0,0-.26.07.9.9,0,0,0-.28.27.91.91,0,0,1-.3.25,2,2,0,0,0-.26.11l-.26.2-.15.09a.42.42,0,0,0-.14.09,1.26,1.26,0,0,1-.46.3.51.51,0,0,0-.27.27.29.29,0,0,1-.1.12c-.06.05-.14.07-.19.12a1.12,1.12,0,0,1-.44.24.45.45,0,0,0-.19.11c-.25.2-.51.38-.77.56a.91.91,0,0,0-.21.18.13.13,0,0,0,0,.1.86.86,0,0,0,0,.16.12.12,0,0,0,.1.12,1.8,1.8,0,0,1,.22.06s.08,0,.1,0,0-.07,0-.11a.11.11,0,0,1,0-.15.78.78,0,0,1,.51-.31.18.18,0,0,0,.08-.07c0-.13.14-.22.18-.35a.17.17,0,0,1,.13-.1l.11,0a.29.29,0,0,0,.14-.08.48.48,0,0,1,.3-.24.63.63,0,0,0,.26-.2.2.2,0,0,1,.2-.07.18.18,0,0,0,.18-.1,1.27,1.27,0,0,1,.13-.19.2.2,0,0,1,.15-.06h0c.1,0,.11,0,.12-.06s0-.19.12-.23a.46.46,0,0,0,.16-.07,1.27,1.27,0,0,1,.49-.25.2.2,0,0,0,.09-.07l.22-.32a.57.57,0,0,1,.16-.15.19.19,0,0,0,.1-.23,1.93,1.93,0,0,0,.62-.23.2.2,0,0,0,.1-.12l0-.1a.14.14,0,0,1,.11-.11l.17,0a.8.8,0,0,0,.27-.18l0,0a1.13,1.13,0,0,1,.16-.41.19.19,0,0,0,.09-.15h0ZM56.19,46.06a.24.24,0,0,0-.09.15h0l0,0a.32.32,0,0,0,.1-.13l0,0Zm-7,.21v0h0Zm1,1.11h0v0ZM71.6,30.75s0,.05,0,.06v0h0ZM67,52.51l.08-.17h.11a.13.13,0,0,0,.12-.1h.1a.12.12,0,0,0,.13-.11s0,0,0,0v0a.23.23,0,0,0-.24.1.49.49,0,0,0-.22.1l-.08.14h0ZM64.77,37.76h0s0,0,0,0,0,0,.06,0v0ZM86.6,52h0v0Zm39.3.24a.43.43,0,0,0,0-.05.1.1,0,0,0,0-.09l-.06-.1c0-.07,0-.1,0-.15l.07-.08a0,0,0,0,0,0-.05.07.07,0,0,0-.08,0h0l-.81.2a.58.58,0,0,0-.34.19.16.16,0,0,1-.15.06l-.11,0-.46.2a2.07,2.07,0,0,0-.47.18l-.16,0-.33.06-.3.14c-.36.15-.7.35-1.06.5a1.28,1.28,0,0,0-.22.17.11.11,0,0,0,0,.15.61.61,0,0,0,.37.1H122a.51.51,0,0,0,.26-.09h0l.16,0a.38.38,0,0,1,.1,0c.1,0,.13-.08.13-.21s.1-.2.23-.15a.31.31,0,0,1,.09.07l.09.06a.11.11,0,0,0,.14,0c.07-.14.07-.14.2-.1l.05,0,.11,0s.06,0,0-.14V53a.11.11,0,0,1,.11-.1L124,53a.1.1,0,0,0,.1,0l.17-.21a1.31,1.31,0,0,0,.35-.27.36.36,0,0,1,.26-.09.72.72,0,0,0,.36-.1l.06,0c.08,0,.1-.08.1-.17s0-.09.09-.09a.11.11,0,0,1,.07,0,.56.56,0,0,0,.36.1.77.77,0,0,1,0,.15l0,0ZM76.68,31.57l0,0v0a.2.2,0,0,0,.12-.13h.1l0,0s0,0,0,0a.07.07,0,0,0-.09,0,.11.11,0,0,0,0,.09.17.17,0,0,0-.11.12ZM49.32,52.36a.08.08,0,0,0,.09,0,0,0,0,0,0,0,0s-.06,0-.08.09Zm21.17-20.7.05,0,0,0,0,0v0s0,0,0-.05Zm6.76-.56.26-.08a3.43,3.43,0,0,0,.5-.43s0,0,0-.05a.5.5,0,0,0,.42-.29s0,0,0-.05a.16.16,0,0,0,.11-.14.15.15,0,0,0,.16,0l0,0a0,0,0,0,0,0-.05s0,0-.08,0a.22.22,0,0,0-.1.13l-.12.13a.59.59,0,0,0-.37.2.17.17,0,0,0-.07.14.31.31,0,0,0-.29.1.58.58,0,0,1-.17.14.2.2,0,0,0-.07.23.25.25,0,0,0-.25.09h0s0,0,0,0,.06,0,0-.06ZM64,53.08l0,0s0,0,0,0l0,0v0Zm62.36-1.48a.06.06,0,0,0-.08,0,0,0,0,0,0,0,0s0,0,.06-.08l0,0Zm-28,0a.61.61,0,0,0-.26.08.53.53,0,0,0-.2.07l0,0-.14.07a.17.17,0,0,0-.1.21s0,0,0,0l0,0a.45.45,0,0,1,.32-.2l.1-.05a.18.18,0,0,0,.07-.15.38.38,0,0,0,.27-.08h0ZM69,51.53s0,0,0,0l0,0s0,0,0,.05,0,0,0,0v-.06Zm22.11,4a.23.23,0,0,0-.25.07l-.1,0a.05.05,0,0,0,0,0,0,0,0,0,0,0,.05.06.06,0,0,0,.08,0h0l0-.1a.27.27,0,0,0,.25-.08l.12-.13.16,0c.08,0,.14-.12.22-.17.23-.12.42-.3.64-.44a.26.26,0,0,0,.1-.13.53.53,0,0,0,.27-.06L93.5,54a.57.57,0,0,0,.15-.16.17.17,0,0,0,0-.1.31.31,0,0,0,.21,0l.22-.16a1.27,1.27,0,0,1,.27-.18.23.23,0,0,0,.09-.19s0,0,0,0l0,0-.1,0a4.36,4.36,0,0,0-.65.48.13.13,0,0,0,0,0l-.16,0a4.53,4.53,0,0,0-.46.3.68.68,0,0,1-.23.14.18.18,0,0,0-.09.06c-.13.1-.25.21-.37.32s0,0,0,0a.81.81,0,0,0-.39.17,2.85,2.85,0,0,1-.37.23,1,1,0,0,0-.29.24.2.2,0,0,0-.06.14Zm-22.54.63h.05l0,0-.07,0s0,0,0,0Zm6.68-28.9,0,0,0,0s0,0,.06,0,0,0,0,0ZM65.07,37.38l.08,0-.09,0h0s0,0,0,0ZM76.44,26.81l.3-.06.13-.07a.21.21,0,0,0,.12-.21l.17,0a.09.09,0,0,0,.08-.07l.11-.15a.37.37,0,0,0,.21,0h.37v-.21a.18.18,0,0,0,.12-.13.48.48,0,0,0,.31-.08l.23-.15a.72.72,0,0,1,.2-.09.09.09,0,0,0,0-.09c0-.05,0-.07-.07-.06l-.36.14a.3.3,0,0,0-.13.09,1.27,1.27,0,0,0-.21.25.15.15,0,0,0-.12.13.62.62,0,0,0-.49.12l-.08.06-.11.15a.75.75,0,0,0-.25.09,1,1,0,0,0-.17.1.2.2,0,0,0-.09.17.4.4,0,0,0-.28.07l0,0v0s0,0,0-.07Zm1.46,30s0,0,0,0h0v0Zm22,.38a.6.6,0,0,1-.27.07l-.23.14c-.24.1-.45.25-.69.35a.76.76,0,0,0-.19.12.86.86,0,0,1-.42.25.42.42,0,0,0-.21.16c-.06.08-.13.14-.19.21a.22.22,0,0,0,0,.16h0c.26-.13.52-.27.77-.42a1.64,1.64,0,0,0,.26-.2l.18-.12a.72.72,0,0,0,.24-.14,2.11,2.11,0,0,1,.45-.31.18.18,0,0,0,.07-.19.61.61,0,0,0,.26-.08.33.33,0,0,1,.13-.13.17.17,0,0,0,.16-.1s0,0,0,0h-.05a.18.18,0,0,0-.1.16.53.53,0,0,1-.13.13Zm-50.31.55s0,0,0,0,0,0,0,0Zm29.49-33a.23.23,0,0,0,.23-.1l.42-.15a.55.55,0,0,0,.14-.09,1.06,1.06,0,0,0,.15-.15.42.42,0,0,0,0-.1h0a.86.86,0,0,0-.4.18.47.47,0,0,1-.2.1.24.24,0,0,0-.15.22h-.1a.19.19,0,0,1-.19.11.23.23,0,0,0,0,0s.06,0,.06-.05ZM52.37,49l0,0,0-.05ZM80.51,24a.53.53,0,0,1,.27-.08l.22-.05a.16.16,0,0,0,.08-.06s0-.07,0-.09a.09.09,0,0,0-.1,0,.34.34,0,0,0-.2.17.13.13,0,0,0,0,.06,1.22,1.22,0,0,0-.27.09l-.1,0,0,0a.09.09,0,0,0,.06-.09Zm-33.95,25,0-.11h0l0,.1-.09,0h0A.08.08,0,0,1,46.56,49.05ZM42.7,69c-.05,0-.07,0-.06,0l0,0,0,0v0ZM67.89,33.9l.1,0c.05,0,.06,0,0,0l-.05,0-.08,0v0Zm-25,26.7a.23.23,0,0,0-.07.07s0,0,0,0,0-.07.06-.12h0Zm34.33-27s0,.05,0,0h0l-.1-.12s-.07,0-.06,0,0,0,0,0l.15,0ZM65.84,51.32l-.18.25-.11.15h-.11a1.33,1.33,0,0,0-.3.23.12.12,0,0,0,0,.1s-.07,0-.06,0h.05a.66.66,0,0,0,.19-.09,1,1,0,0,0,.23-.26l.11-.15.1,0a.12.12,0,0,0,.1-.12s0-.06,0-.1h0Zm73,8.82h0a.12.12,0,0,0,0-.1.19.19,0,0,0-.1,0s0,0,0,0a.07.07,0,0,0,.07.07h.11ZM63.41,38.53l.1,0s.05,0,0-.07l-.05,0a.1.1,0,0,0-.06.09.08.08,0,0,0-.1,0s0,.07,0,.06,0,0,0-.09ZM77.12,25.92,77,26l0,0a.06.06,0,0,0,0,0,.08.08,0,0,0,.09,0,.1.1,0,0,0,0-.09l.15,0,.15,0a1.11,1.11,0,0,1,.38-.22.57.57,0,0,0,.29-.24,0,0,0,0,0,0-.05.06.06,0,0,0-.07,0h0l-.42.27a.38.38,0,0,0-.17.27h-.1A.2.2,0,0,0,77.12,25.92Zm-2.9,9.93a.12.12,0,0,0-.1,0c-.05,0-.06,0,0,.07h0a.09.09,0,0,0,.06-.07l0,0s0,0,0,0,0,0,0,.07ZM49.32,58.44a.09.09,0,0,0,.06-.08l0,0,0,.11,0,0Zm33.55-32.2a.27.27,0,0,0,.22-.2s0,0,0,0v0a.2.2,0,0,0-.18.1l0,.1a.37.37,0,0,1-.13.12l-.16.21a.17.17,0,0,0,0,.14.14.14,0,0,0-.12.12.35.35,0,0,0-.11,0,1.43,1.43,0,0,0-.45.4.51.51,0,0,0-.1.24.71.71,0,0,0-.29.14l-.09.05a.55.55,0,0,1-.13.17l-.08.07a.24.24,0,0,0-.11.13.36.36,0,0,0-.21.17v.06a.12.12,0,0,0-.1,0s0,0,0,0a0,0,0,0,0,0,0,.08.08,0,0,0,.09,0,.11.11,0,0,0,0-.1l.1,0a.13.13,0,0,0,.1-.11v-.1c.1,0,.1,0,.11-.13a.17.17,0,0,0,.2-.13h0a.34.34,0,0,0,0-.1.38.38,0,0,0,.3-.11l.08-.08a3.49,3.49,0,0,0,.66-.67.22.22,0,0,0,.12-.11.42.42,0,0,0,.19-.35ZM48.62,53.69l0,.1a.09.09,0,0,0,0,.05s0-.1,0-.14h0Zm18.17.06-.15,0h0s0,0,0,0,0,0,.08,0l.14-.06v0ZM52,45.31h-.16a.23.23,0,0,0-.18.08h0A2.09,2.09,0,0,0,52,45.3v0Zm-22.9,8.83,0,.1,0,0c0-.05,0-.09,0-.14a.45.45,0,0,0,.2,0v.11s0,0,0,0l0,0h.05s0-.05,0-.08a.32.32,0,0,1-.11-.12Zm45.06.24a.38.38,0,0,0,.1,0s0,0,0,0-.08,0-.11.07v0Zm-4.06,1H70s0,0,0,0a.06.06,0,0,0,.09,0s0,0,.08-.07a.28.28,0,0,0,.12-.14.42.42,0,0,0,.31,0,1.23,1.23,0,0,1,.61-.23l.28,0,.1,0A2,2,0,0,0,72,54.6h0a.37.37,0,0,1,.33-.19h0c.12.08.18.08.25,0a1.81,1.81,0,0,1,.57-.33l.1-.05a1.14,1.14,0,0,1,.38-.23.15.15,0,0,0,.09-.06.3.3,0,0,1,.28-.15,1.21,1.21,0,0,0,.32-.11.39.39,0,0,0,.21-.17.45.45,0,0,1,.3-.24l0,0c.13-.12.29-.18.42-.28a.2.2,0,0,0,.07-.2.59.59,0,0,0,.14.06h.11l.79-.49a.15.15,0,0,0,.07-.14h.06l0,0s-.06,0-.08,0l-.62.23a2.31,2.31,0,0,0-.35.18.33.33,0,0,0-.15.16.52.52,0,0,0-.21,0l-.85.42a2.31,2.31,0,0,0-.35.18,1.58,1.58,0,0,1-.35.16l-.31.12a.46.46,0,0,0-.18.13,1.39,1.39,0,0,1-.52.31,1.35,1.35,0,0,0-.45.22,1.64,1.64,0,0,1-.49.26.21.21,0,0,0-.13.1.4.4,0,0,1-.22.16,1.57,1.57,0,0,0-.45.22,3.57,3.57,0,0,1-.56.36Zm22.09.9.07-.09a.08.08,0,0,0,0,0s0,0,0,0,0,0,0,.07,0,.07,0,.11a.41.41,0,0,0-.26.09.21.21,0,0,0-.2.19s0,0,0,0a3.79,3.79,0,0,0-.34.2.27.27,0,0,0-.08.07.06.06,0,0,0,0,.06l0,0a1.43,1.43,0,0,1,.27-.09c.06,0,.08-.06.09-.12s0-.11,0-.16l.11,0c.08,0,.11-.06.11-.16a.13.13,0,0,0,0-.06.44.44,0,0,0,.27-.09Zm1-.58h0a.19.19,0,0,0,0-.1h0a.06.06,0,0,0-.05.06h0l0,0ZM63.4,41.81h0l-.05,0s0,.07,0,.1,0,.07.07.07,0,0,0-.09V41.8Zm1-4.4.15-.08a0,0,0,0,0,0-.08l0,0a1.13,1.13,0,0,0-.1.13l0,0Zm9.14-1.1a.37.37,0,0,0-.21,0s-.06,0,0,.08h0l.19-.1s.08,0,0-.08ZM56.85,43H57l0,0a0,0,0,0,0,0,0s0,0-.08,0l-.13.09v0ZM75.77,27.25a.15.15,0,0,0,.16,0,.23.23,0,0,0,.07-.07,0,0,0,0,0,0-.05.06.06,0,0,0-.07,0h0a.25.25,0,0,0-.14.16l-.11.15a.84.84,0,0,0-.41.14,2.35,2.35,0,0,0-.37.24c-.18.16-.39.28-.57.44a1.88,1.88,0,0,0-.12.18h-.11a2.84,2.84,0,0,0-.56.33l-.29.25-.32.21s0,0,0,0a.54.54,0,0,0-.14.16.71.71,0,0,1-.22.13.14.14,0,0,0-.09.17s0,.06,0,.1a.44.44,0,0,0-.2,0,.17.17,0,0,0-.16.17V30A.41.41,0,0,0,72,30a2.92,2.92,0,0,1-.5.25s0,.05-.07.08a.57.57,0,0,1-.11.11l-.46.33a.57.57,0,0,0-.15.16.31.31,0,0,1-.19.12h-.11a.27.27,0,0,0-.2.09,3.51,3.51,0,0,0-.39.61s0,.07,0,.08a.12.12,0,0,0,.1,0c0-.06.09-.12.14-.17l.23-.17A3,3,0,0,0,70.8,31a.26.26,0,0,1,.14-.09.75.75,0,0,0,.41-.26,1.41,1.41,0,0,1,.54-.4A.25.25,0,0,0,72,30.1l0-.11a.85.85,0,0,1,.37-.21l.16-.13a.3.3,0,0,0,.12-.27l.05,0c.16.06.2.06.28-.07a.33.33,0,0,1,.16-.15.66.66,0,0,0,.36-.25,1.13,1.13,0,0,1,.3-.24,1.33,1.33,0,0,0,.26-.21.24.24,0,0,0,.06-.09l.16,0a.53.53,0,0,0,.32-.19.88.88,0,0,1,.4-.28l.15-.05,0,0h0a1.33,1.33,0,0,1,.26-.27l.2-.17ZM57.1,43.83a.3.3,0,0,0-.21,0l-.14.09a.42.42,0,0,0-.2.1c-.08.08-.15.17-.22.25s0,0,0,0a.08.08,0,0,0,0,0c.11.06.18.05.21-.07a.23.23,0,0,1,.13-.17.22.22,0,0,0,.14-.09.41.41,0,0,0,.23-.22v0ZM75.57,56.44l-.13.09a.3.3,0,0,0-.11.23.09.09,0,0,0-.08.05s0,0,0,0a.08.08,0,0,0,0,0s0,0,.06-.06a.31.31,0,0,0,0-.1l.09,0a.61.61,0,0,0,.15-.26l.06-.09s0,0,0,0,0,0,0,.13ZM53.35,44.7h-.27a.14.14,0,0,0-.13.14h-.2a.29.29,0,0,0-.18.07,1,1,0,0,0-.24.14s0,0,0,0a.06.06,0,0,0,.08,0h0a.34.34,0,0,0,.14-.15.11.11,0,0,0,0,0,.44.44,0,0,0,.2,0l.19-.07a.77.77,0,0,0,.26,0,.15.15,0,0,0,.13-.13s.07,0,.06,0Zm30.2,8.8s0-.06,0,0l0,0-.07.09a.2.2,0,0,0,0,.15h0l.15,0a.09.09,0,0,0,.05-.08.11.11,0,0,0-.05-.09s0,0,0,0Zm22.06-.79h-.22c-.06,0-.07,0,0,.07h0a.49.49,0,0,0,.21-.08Zm6.1-.22.11,0,.05,0s0,0,0-.07v0a.07.07,0,0,0-.09,0h0a.15.15,0,0,0-.1.17h0s0,0,0,0a.07.07,0,0,0,.06,0Zm-25,6.87h.21s.07,0,.08-.05,0,0,0,0h-.1a.2.2,0,0,0-.16.12.23.23,0,0,0-.16,0s-.07,0,0,.07h0a.18.18,0,0,0,.16-.05ZM78.59,25a.5.5,0,0,0-.21,0s-.07,0-.07.07,0,.06.08.05a.27.27,0,0,0,.18-.1.07.07,0,0,0,0,0,.14.14,0,0,0,.15,0l0,0a.07.07,0,0,0-.08-.05h0s0,0-.07.12ZM48.88,59.36l-.1.12s0,0,0,.05,0,0,0,0,.06,0,.06-.07a.21.21,0,0,1,0-.15s.1,0,.11-.09a.06.06,0,0,0,0-.07h0l0,0a.78.78,0,0,1,0,.16ZM68.23,34l-.16,0,0,0s0,0,0,0a.06.06,0,0,0,0,.07.06.06,0,0,0,.08,0h0a1.15,1.15,0,0,0,.14-.17h0Zm9.15,18.24a.21.21,0,0,0-.24,0,.31.31,0,0,0-.13.17.68.68,0,0,0-.48.12c-.33.2-.7.34-1,.52a1.86,1.86,0,0,0-.58.33,1.46,1.46,0,0,1-.3.17,1.18,1.18,0,0,0-.29.16,1,1,0,0,1-.39.21l-.32.1-.1,0a3.46,3.46,0,0,1-.47.31s0,.05-.08.07a.55.55,0,0,1-.14.09,7.52,7.52,0,0,0-1.2.61l-.25.13a2.27,2.27,0,0,0-.34.19.3.3,0,0,1-.15.07.75.75,0,0,0-.25.13.42.42,0,0,1-.14.09c-.29.1-.52.3-.81.39a.76.76,0,0,0-.19.12.92.92,0,0,1-.43.24,9.09,9.09,0,0,0-.93.52.5.5,0,0,1-.26.08.4.4,0,0,0-.2.08.52.52,0,0,1-.3.14l-.17,0a.68.68,0,0,0-.31.11,1.83,1.83,0,0,0-.36.26.56.56,0,0,1-.2.11A1.68,1.68,0,0,1,66,58l-.22,0-.31.13a.08.08,0,0,0,0,.09.08.08,0,0,0,.07.08.2.2,0,0,0,.11,0,.49.49,0,0,0,.16,0,.67.67,0,0,1,.37-.08.23.23,0,0,0,.2-.1.43.43,0,0,1,.33-.18.7.7,0,0,0,.37-.11l.2-.11a.45.45,0,0,1,.31-.1.29.29,0,0,0,.25-.1l0,0a2.77,2.77,0,0,1,.6-.29.33.33,0,0,0,.16-.07,2.41,2.41,0,0,1,.6-.3.27.27,0,0,0,.1-.06,1.55,1.55,0,0,1,.55-.26h.22c.1,0,.12,0,.13-.13s0-.12.08-.12l.11,0a.3.3,0,0,0,.26-.06s.11-.1.16-.16a2.27,2.27,0,0,1,.32-.22,1.32,1.32,0,0,1,.41-.17.35.35,0,0,0,.19-.12.15.15,0,0,1,.14-.07.4.4,0,0,0,.26-.06.41.41,0,0,1,.32-.06.06.06,0,0,0,.07-.07c0-.12,0-.22.16-.26a.72.72,0,0,0,.22-.17.75.75,0,0,1,.17-.14l.39-.23c.14-.08.3-.16.43-.25a3.35,3.35,0,0,1,.66-.32l.2-.1.28-.19a1.87,1.87,0,0,1,.39-.22l.31-.12a1.77,1.77,0,0,0,.49-.26.3.3,0,0,1,.16,0l.1,0,.21-.19a.4.4,0,0,1,.2-.09c.12,0,.13-.06.13-.2h.15a.3.3,0,0,0,.21-.2v0ZM47.85,48.43l-.31,0a0,0,0,0,0,0,0v0l0,0,.26-.06s0,0,.05-.08h0ZM80,31.79c-.1,0-.16.07-.25.1a0,0,0,0,0,0,.08l0,0a.18.18,0,0,0,.14-.06.21.21,0,0,0,.07-.14l0,0s0,0,0,0,0,.05,0,.09Zm57.4,27a.06.06,0,0,0,.06.06.15.15,0,0,0,0,0,.07.07,0,0,0-.09,0c-.06-.12-.16-.13-.28-.1l0,0a.43.43,0,0,0,0,.05.14.14,0,0,0,.1,0,.29.29,0,0,0,.22,0Zm-90.09,3.1c.07-.05.17-.06.22-.15a.08.08,0,0,0,0,0s0,0-.08,0-.09.16-.16.23a.1.1,0,0,1,0,.09h0a.34.34,0,0,0,0-.1ZM103,52.51l-.14.09a.24.24,0,0,0-.06.09.06.06,0,0,0,0,.09h0a.07.07,0,0,0,.09,0h0a2,2,0,0,0,.1-.26v0Zm-69.34.4h0a.52.52,0,0,0,0,.11.13.13,0,0,0,.15.13l0,0,0,0a.1.1,0,0,0,0-.1.68.68,0,0,0-.2-.07ZM79.47,25.37h0l.09-.19a.28.28,0,0,0,0-.2l0,0s.06,0,.06,0l-.06,0h0l-.19.1a.09.09,0,0,0,0,.12h0l.15.17ZM41.55,60.7a.82.82,0,0,0-.22.16l-.06.08a.07.07,0,0,0,0,.09h.05a.15.15,0,0,0,.12-.1c0-.08,0-.17.08-.26h.15l0,0a.07.07,0,0,0-.08,0,.11.11,0,0,0-.09.11Zm-6.1-8.15a.12.12,0,0,0,.1,0s0-.05,0-.14a.08.08,0,0,0,0-.05l-.05,0a0,0,0,0,0-.06,0v0c0,.05,0,.1,0,.15v0ZM66.87,40.09a.39.39,0,0,0-.21,0,.16.16,0,0,0-.1.11.09.09,0,0,0,0,.1.12.12,0,0,0,.1,0,.41.41,0,0,0,.17-.2,0,0,0,0,0,0,0h.28s0,0,0,0a0,0,0,0,0,0,0,.33.33,0,0,0-.25.08ZM12.48,57.85a.44.44,0,0,0,.25,0,.11.11,0,0,0,.11-.1.2.2,0,0,0,0-.15s0,0,.05,0l.17,0,0,0s0,0,0,0-.17,0-.21.08l-.2,0a.17.17,0,0,0-.14.13s0,0,0,0v0Zm86.71-6.59-.22,0a.16.16,0,0,0-.13.17v0a.11.11,0,0,0,.13.07.1.1,0,0,0,.08-.06,1.15,1.15,0,0,1,.12-.25Zm11.85,0,.32-.05a.5.5,0,0,0,.2-.08s0,0,0-.07h0l-.32.07a.36.36,0,0,0-.16.14.86.86,0,0,0-.59.08s-.06,0,0,.06,0,0,0,0a1.69,1.69,0,0,0,.58-.17ZM84,53.18l.33-.06a.31.31,0,0,0,.1,0,.08.08,0,0,0,0-.1.07.07,0,0,0-.1,0h0l-.25.12a.28.28,0,0,0-.11.13h-.1s-.07,0-.08,0l0,0,0,0a.18.18,0,0,0,.1,0ZM76.77,34.12h.11l.05,0,.2-.11a.07.07,0,0,0,0-.09,0,0,0,0,0-.06,0c-.13,0-.25.1-.28.25l0,0v0s0,0,0-.06ZM38.53,51.7a4.61,4.61,0,0,1,.53-.15s0-.06,0-.09a.21.21,0,0,0-.2-.05.69.69,0,0,0-.34.29h0Zm35.89,2.9a.74.74,0,0,0,.41-.1.11.11,0,0,0,0-.14s0-.07-.08,0a1.84,1.84,0,0,0-.39.28v0ZM43.47,58.46c-.35-.05-.33,0-.51.22l-.08.07a.42.42,0,0,1-.09.14.83.83,0,0,0-.19.26.11.11,0,0,0,0,.05s0,0,0,0a.06.06,0,0,0,.08,0l0,0a.59.59,0,0,0,.16-.4.41.41,0,0,1,0-.11.42.42,0,0,0,.5-.17l.1-.12v0ZM107.4,53.6a.25.25,0,0,0,.21,0,.06.06,0,0,0,0-.09h0a.44.44,0,0,0-.19-.19.14.14,0,0,0-.15,0l0,0a.64.64,0,0,1,.1.13.76.76,0,0,1,0,.16l-.27,0s0,.05,0,.08a.15.15,0,0,0,.2.05.12.12,0,0,0,.06-.08.36.36,0,0,0,0-.09ZM44.29,57.24a.48.48,0,0,1,.19-.09.2.2,0,0,0,.13-.21s-.09-.1-.13-.08l-.13.09a.18.18,0,0,0-.07.19.36.36,0,0,1,0,.1l-.09,0v0a.09.09,0,0,1,.1,0Zm37.33-2.87.24.14a.16.16,0,0,0,.2-.07l.06-.15a.09.09,0,0,0-.05-.1h0a.75.75,0,0,0-.4.19.16.16,0,0,0-.11.13l-.11,0a1.18,1.18,0,0,1-.19.11,1.52,1.52,0,0,0-.67.56.31.31,0,0,0,0,.21h0l0,0,.19-.1a.62.62,0,0,0,.36-.33.75.75,0,0,1,.15-.16,2.65,2.65,0,0,0,.26-.21.23.23,0,0,0,0-.1.11.11,0,0,0,.13-.1v0ZM45.06,64.75a5,5,0,0,0,.65-.73l0,0v0h-.11a.14.14,0,0,0-.1.05q-.16.21-.36.42a.36.36,0,0,0-.11.3ZM77.68,51.48a.84.84,0,0,0-.27,0,3.1,3.1,0,0,1-.45.21l0,0a0,0,0,0,0,0,.05l0,0a1.06,1.06,0,0,0,.65-.28.41.41,0,0,0,0-.09Zm6.84,4.9.15.08a.41.41,0,0,1,.1.13c0,.08.06.08.12,0s.08-.11,0-.25a.75.75,0,0,0,0-.16.05.05,0,0,0-.08,0h0c-.12,0-.24.11-.27.26l0,.09s0,.06.05,0,0,0,0-.05a.14.14,0,0,0,0-.09ZM109,51.82a4.67,4.67,0,0,1,.81-.17s.07,0,.1-.06l0,0s0-.06-.07-.06h-.17a3.54,3.54,0,0,0-.57.22.32.32,0,0,0-.12.11.34.34,0,0,0-.26,0c-.06,0-.07,0,0,.07l.05,0a.26.26,0,0,0,.25-.08Zm-43.35-11a.46.46,0,0,0,.4-.15,1.1,1.1,0,0,1,.31-.22.07.07,0,0,0,0-.1h0a.08.08,0,0,0-.09-.05.17.17,0,0,0-.1,0,1,1,0,0,1-.32.21.42.42,0,0,0-.14.09.21.21,0,0,0-.08.19l-.22,0a.44.44,0,0,0-.15.05.12.12,0,0,0,0,.14.07.07,0,0,0,.09,0,.58.58,0,0,0,.31-.2ZM42.44,50.1a1.17,1.17,0,0,1,.49.07H43l.25-.12a.08.08,0,0,0,0-.13h0c-.17,0-.32.08-.49,0l-.21.08a.24.24,0,0,0-.09.06v0Zm37.63,5.56-.15-.07,0,0h-.06a.49.49,0,0,0-.36.21.09.09,0,0,0,0,.1l0,0a.69.69,0,0,0,.42-.1l.15-.16.12-.1,0,0a.07.07,0,0,0,0,0s0,0,0,0a.07.07,0,0,0-.09,0,.5.5,0,0,0,0,.21Zm-14.55-1.6a.53.53,0,0,0-.15-.08.38.38,0,0,0-.41.07.73.73,0,0,0-.24.22,0,0,0,0,0,0,0l0,0a4.75,4.75,0,0,0,.64-.2l.09,0,0-.05h.27a.06.06,0,0,0,.06-.08l0,0a.22.22,0,0,0-.16,0,.43.43,0,0,0-.11.12Zm0-15.19h.11c.09,0,.12,0,.13.14s.07.13.13.08l.18-.14a.2.2,0,0,0,.06-.24,1.8,1.8,0,0,0-.08-.21l.17,0a.18.18,0,0,1,.16.13.07.07,0,0,0,.09.05.45.45,0,0,0,.16,0l.73-.41a.5.5,0,0,1,.25-.13,3.13,3.13,0,0,0,.45-.22.6.6,0,0,0,.08-.08.25.25,0,0,1,.2-.09.51.51,0,0,0,.31-.11l.31-.25a.38.38,0,0,1,.26-.08.14.14,0,0,0,.1,0l.15-.16a.31.31,0,0,1,.13-.1,8.56,8.56,0,0,0,.93-.53.43.43,0,0,1,.3-.13,2.68,2.68,0,0,0,.68-.38.76.76,0,0,1,.23-.17c.24-.1.45-.27.7-.35l.14-.08.23-.17a.75.75,0,0,1,.4-.19.11.11,0,0,0,.07-.08l0-.05.15-.06a1.24,1.24,0,0,1,.18-.14c.14-.08.28-.18.43-.25a4.27,4.27,0,0,0,.41-.29.91.91,0,0,1,.26-.13.34.34,0,0,0,.15-.07,2.07,2.07,0,0,0,.54-.39.22.22,0,0,1,.09-.07l.56-.36a1.24,1.24,0,0,0,.23-.17l.39-.32.18-.13a1.45,1.45,0,0,0,.34-.2c.13-.11.27-.2.4-.3a1.19,1.19,0,0,1,.42-.28l.13-.1.35-.29a1.31,1.31,0,0,1,.37-.24.74.74,0,0,0,.32-.22.64.64,0,0,1,.2-.2c.15-.12.29-.23.43-.36a2.83,2.83,0,0,1,.28-.2.72.72,0,0,0,.22-.17,2.26,2.26,0,0,1,.56-.46.49.49,0,0,0,.27-.26c.13-.15.29-.25.4-.4a.18.18,0,0,1,.09-.06l.16-.06a.43.43,0,0,0,.24-.22.21.21,0,0,1,.06-.1,2.86,2.86,0,0,0,.38-.4,1.49,1.49,0,0,1,.41-.3.32.32,0,0,0,.22-.23.08.08,0,0,1,0-.05.24.24,0,0,1,.14-.17.54.54,0,0,0,.3-.31,1.81,1.81,0,0,0,.25-.3A.69.69,0,0,1,84,26.5l.17-.14a.09.09,0,0,0,0-.11,1.09,1.09,0,0,0-.08-.15.09.09,0,0,0-.13,0h0l-.12.12a3.08,3.08,0,0,1-.3.41.52.52,0,0,1-.21.18.62.62,0,0,0-.22.17,1.64,1.64,0,0,1-.47.4c-.18.11-.3.29-.48.39a.75.75,0,0,0-.16.15,1.5,1.5,0,0,1-.29.27.44.44,0,0,0-.12.18l-.08.15,0,0c-.08,0-.13,0-.16.05l0,.1-.15.07a1.24,1.24,0,0,0-.4.39.2.2,0,0,1-.13.09.52.52,0,0,0-.15.07l-1,.83-.22.17c-.33.19-.61.44-.92.65-.08.05-.15.11-.23.15a1.2,1.2,0,0,0-.4.3.71.71,0,0,1-.14.1c-.27.16-.52.37-.78.54a1.54,1.54,0,0,0-.36.27.18.18,0,0,1-.09.06,1.9,1.9,0,0,0-.37.26,1.54,1.54,0,0,1-.32.23,1.47,1.47,0,0,0-.37.24c-.21.16-.43.3-.65.44a1.62,1.62,0,0,0-.46.31.27.27,0,0,1-.1.06,1.38,1.38,0,0,0-.33.2,5,5,0,0,1-.63.38,3.94,3.94,0,0,0-.61.39s0,.07,0,.1,0,.13-.2.1a.28.28,0,0,0-.22,0,6.3,6.3,0,0,1-.87.5,4.15,4.15,0,0,1-.53.32,9.52,9.52,0,0,1-.87.52c-.09.06-.2.08-.3.14a3.62,3.62,0,0,0-.32.22,1.23,1.23,0,0,1-.25.14.8.8,0,0,0-.24.13,5.67,5.67,0,0,1-.66.42,2.38,2.38,0,0,1-.55.28l-.15.07-.47.3a.75.75,0,0,1-.15.09,4.75,4.75,0,0,0-.59.31.46.46,0,0,0-.19.08,1.23,1.23,0,0,1-.31.19.08.08,0,0,0,0,.09.27.27,0,0,0-.27,0c-.11.1-.11.13-.06.24a.37.37,0,0,0,.06.1.13.13,0,0,0,.15,0,.07.07,0,0,0,0-.08h0a.43.43,0,0,1,.08-.29ZM124.4,53.15h-.17a.53.53,0,0,0-.32.08,2,2,0,0,1-.65.29,1.83,1.83,0,0,0-.34.18.86.86,0,0,1-.21.07.67.67,0,0,0-.31.1,1,1,0,0,1-.4.18.58.58,0,0,0-.25.12.54.54,0,0,1-.3.13.32.32,0,0,0-.16,0,2.11,2.11,0,0,0-.52.31l-.06.09,0,0,0,0,0,0,0,0,.33,0a.32.32,0,0,0,.2-.08.57.57,0,0,1,.18-.12.8.8,0,0,0,.25-.11,1.09,1.09,0,0,1,.35-.15l.35-.16a3.45,3.45,0,0,0,.42-.14l.09-.06a.1.1,0,0,0,0-.1v-.1a.62.62,0,0,0,.38,0l.33,0a.19.19,0,0,0,.1-.05,1.36,1.36,0,0,1,.38-.24,1.18,1.18,0,0,0,.19-.11.22.22,0,0,0,.1-.13l.16,0,.54-.15,0,0s0,0,0,0a.08.08,0,0,0,0-.07h0a1.22,1.22,0,0,0-.43.09.49.49,0,0,0-.26.21Zm4,1.7a.92.92,0,0,0,.37-.09,4,4,0,0,1,.54-.29,1.88,1.88,0,0,0,.23-.16c.1-.06.22,0,.32-.1l.14-.07a.41.41,0,0,0,.2-.19.29.29,0,0,0,.22,0,1.35,1.35,0,0,0,.3-.14,3.73,3.73,0,0,1,.4-.2,5.48,5.48,0,0,1,.56-.23c.09,0,.1-.1.12-.17s.05-.11.11-.1a1.23,1.23,0,0,0,.38,0,.31.31,0,0,0,.23-.14.22.22,0,0,1,.2-.08.39.39,0,0,0,.21,0l.21-.07a.45.45,0,0,0,.19-.11.46.46,0,0,1,.35-.14l.21-.07a.19.19,0,0,0,.11-.12l0-.1h0l.16-.07a2,2,0,0,1,.52-.32.69.69,0,0,1,.25-.1l.44-.06.34,0a.2.2,0,0,0,.11-.11c0-.09,0-.19,0-.27s0-.06-.06,0l-.21.06a.87.87,0,0,1-.22,0l-.05,0a1.79,1.79,0,0,1-1,.36h-.06a.44.44,0,0,0-.24.13,1.17,1.17,0,0,1-.55.37.39.39,0,0,0-.14.08,1.9,1.9,0,0,1-.39.23.29.29,0,0,1-.16,0,.5.5,0,0,0-.27,0,3,3,0,0,0-.59.31.32.32,0,0,1-.21.08.59.59,0,0,0-.36.13,1.83,1.83,0,0,1-.31.24l-.23.16c-.12,0-.24.11-.36.15a.62.62,0,0,1-.33,0s-.08,0-.09,0a.09.09,0,0,0,.05.09.49.49,0,0,1,.14.18l-.16,0a.38.38,0,0,0-.31.08.65.65,0,0,1-.33.19,1.19,1.19,0,0,0-.26.11,3.4,3.4,0,0,1-.68.36c-.06,0-.06.08-.07.14v.05a1.22,1.22,0,0,0-.33,0,.05.05,0,0,0,0,0,.08.08,0,0,0,0,.05.18.18,0,0,0,.16,0A.23.23,0,0,0,128.36,54.85ZM63.31,40.35a4.5,4.5,0,0,0,.48-.16,5.36,5.36,0,0,0,.57-.34.46.46,0,0,1,.25-.1,1.05,1.05,0,0,0,.45-.22.07.07,0,0,0,0-.1s0-.07,0-.1-.09-.12-.18-.12-.1.1-.11.17a.08.08,0,0,1-.08.06h-.11c-.1,0-.13,0-.16.09s0,.09-.05.09-.15.1-.2.18,0,0,0,0a.19.19,0,0,1-.1,0l-.16-.06a.1.1,0,0,0-.13.05h0c0,.15,0,.15-.17.14l-.11,0s-.12.07-.12.1v.28h-.2s0,0,0,0l0,0C63.21,40.45,63.25,40.37,63.31,40.35ZM99.19,50.8a3.91,3.91,0,0,0-.76.14,1.19,1.19,0,0,0-.26.11l-1,.58a.27.27,0,0,0-.07.08v0s0,0,0,0a2.07,2.07,0,0,0,.67-.24l.15-.08a.91.91,0,0,1,.31-.12.88.88,0,0,0,.35-.17A.83.83,0,0,1,99,51a.2.2,0,0,0,.17-.19h.21a.11.11,0,0,0,.07-.06.07.07,0,0,0,0-.09h0a.65.65,0,0,0-.2.17Zm5.57,3.67c.27-.08.55-.14.82-.2a.12.12,0,0,0,.08-.13v-.06c0-.09.09-.13.16-.08s.16.11.24,0,0,0,0,0a.1.1,0,0,1,.15,0l0,0c.06.1.14.09.24,0s.09-.06,0-.12,0-.1,0-.16a.13.13,0,0,0-.07-.16h0a.66.66,0,0,0-.28,0,3.92,3.92,0,0,0-.49.13,2.16,2.16,0,0,1-.49.11.72.72,0,0,0-.32.11.12.12,0,0,0,0,.1.08.08,0,0,0,.08.07l.11,0h0a.23.23,0,0,1-.07.07.52.52,0,0,0-.2.24l-.14-.08c-.05,0-.08,0-.07,0a0,0,0,0,0,0,0c.06,0,.12,0,.17,0ZM69.91,51.8a1.23,1.23,0,0,1-.42.14.49.49,0,0,0-.21.08,1.14,1.14,0,0,1-.36.15.7.7,0,0,0-.34.18,1.18,1.18,0,0,1-.29.16,4.65,4.65,0,0,1-.79.28l-.24.13a.73.73,0,0,1-.42.16.94.94,0,0,0-.37.11,1.53,1.53,0,0,1-.68.23.31.31,0,0,0-.1,0,.07.07,0,0,0,0,.1.09.09,0,0,0,.07.06h.06a2.2,2.2,0,0,0,.71-.15,4.2,4.2,0,0,1,.85-.27.24.24,0,0,0,.13-.09.24.24,0,0,1,.09-.06,5.55,5.55,0,0,0,.6-.29l.21-.08a2.76,2.76,0,0,0,.77-.33l.34-.2a1,1,0,0,0,.41-.36s0,0,.08,0,0,0,0,0l0,0ZM68,33l-.13.24h0c-.08,0-.18,0-.24.12a1.84,1.84,0,0,1-.19.2,1.13,1.13,0,0,1-.43.35.13.13,0,0,0-.06.14.21.21,0,0,1,0,.11.07.07,0,0,1-.07.06h0a.41.41,0,0,0-.16,0c-.06,0-.06.09-.09.13l-.08.08-.1,0a.59.59,0,0,0-.33.29A1.19,1.19,0,0,0,66,35a1,1,0,0,1-.25.43s0,0,0,0h.06l.1,0c.07-.08.14-.17.22-.25a.51.51,0,0,1,.23-.15l.05,0a3,3,0,0,0,.43-.44.46.46,0,0,1,.15-.16l.32-.22a.23.23,0,0,0,.1-.12c.09-.17.27-.26.36-.43a.16.16,0,0,1,.1,0,.67.67,0,0,0,.28-.19,2,2,0,0,0,.18-.21,1.05,1.05,0,0,1,.27-.2l.1,0a.27.27,0,0,0,.08-.07.49.49,0,0,1,.23-.24.52.52,0,0,0,.19-.2.51.51,0,0,1,.29-.25l0,0a.09.09,0,0,0,0-.1s-.06-.05-.1,0l-.2.09a.41.41,0,0,0-.2.19,1,1,0,0,1-.23.24,3.57,3.57,0,0,0-.28.27.39.39,0,0,1-.35.15A.27.27,0,0,0,68,33ZM86.92,58.9a.2.2,0,0,0,.11,0,2.2,2.2,0,0,1,.56-.26,1.29,1.29,0,0,0,.35-.18,1.4,1.4,0,0,1,.43-.24c.23-.14.45-.28.68-.4a3.91,3.91,0,0,1,.44-.26c.16-.05.28-.18.44-.23a1.34,1.34,0,0,0,.23-.16l.26-.1,0,0c.08-.12.22-.14.32-.23a1.25,1.25,0,0,1,.38-.23l.66-.44a1.42,1.42,0,0,1,.45-.32l.35-.19c.13-.07.21-.21.37-.24l.4-.31a1.29,1.29,0,0,0,.17-.16c.06-.07.16-.08.24-.14a.29.29,0,0,0,.1-.12c0-.09.06-.18.09-.27a.13.13,0,0,0-.08-.13.11.11,0,0,0-.1,0l-.43.26a6.73,6.73,0,0,1-.83.46l-.14.09-.2.2a.86.86,0,0,1-.18.14,2,2,0,0,0-.41.3,1.89,1.89,0,0,1-.27.2,1.27,1.27,0,0,0-.37.25,1.14,1.14,0,0,1-.23.15,5,5,0,0,0-.63.37.71.71,0,0,1-.14.1,5.71,5.71,0,0,0-.91.56c-.17.12-.35.21-.52.32a1.71,1.71,0,0,0-.55.29,2.12,2.12,0,0,1-.49.27l-.25.13a.57.57,0,0,0-.16.15c0,.06-.09.12-.13.19a.32.32,0,0,0,0,.27s0,0,0,0ZM54.75,55.1a2.26,2.26,0,0,1,.45,0,.18.18,0,0,1,.1,0,.08.08,0,0,1,0,.1s0,0,0,0l-.9,0a.91.91,0,0,1-.23,0,.86.86,0,0,0-.39,0,2.47,2.47,0,0,1-.61,0H53s-.11.11-.08.17a.17.17,0,0,0,.17.13c.19,0,.37,0,.56,0a3.08,3.08,0,0,0,.61,0l.68,0h.22c.19,0,.37-.08.56-.09s.37,0,.56,0,.3,0,.44,0a3.57,3.57,0,0,1,.56-.07l.11,0a.07.07,0,0,0,0-.08.08.08,0,0,0,0,0c-.09-.05-.19,0-.28,0a3.42,3.42,0,0,0-.78-.06h-.06s-.08,0-.07-.06,0-.05.09-.05a3.38,3.38,0,0,0,.45,0,3.75,3.75,0,0,1,.67,0,1,1,0,0,0,.39,0c.05,0,.08,0,.08,0l0,0a.42.42,0,0,0-.14.09.16.16,0,0,0,0,.16.12.12,0,0,0,.1,0,4.17,4.17,0,0,1,.78-.1l.34,0a.82.82,0,0,1,.27,0,.33.33,0,0,0,.22-.05.38.38,0,0,1,.33,0l.1.05a.26.26,0,0,0,.21,0,.66.66,0,0,0,.26-.11.26.26,0,0,1,.21,0,.33.33,0,0,0,.17,0A.5.5,0,0,0,61,55a.05.05,0,0,0,0-.09l-.1-.05a.07.07,0,0,1-.05-.08.08.08,0,0,1,.06-.09l.16,0a.66.66,0,0,0,.36-.16.13.13,0,0,0,0-.1.08.08,0,0,0-.06-.08,1.51,1.51,0,0,0-.67,0l-.67.07a5.57,5.57,0,0,1-.71.14.83.83,0,0,1-.22,0l-.28,0c-.32.07-.64.07-.95.11a1.87,1.87,0,0,1-.34,0,2,2,0,0,0-.55,0,.45.45,0,0,1-.23,0,.55.55,0,0,0-.38,0l-.67.1-.5,0-.27.07a.22.22,0,0,0-.14.16h0Zm45.79-1.48h0l0,.13a.1.1,0,0,0-.09,0l0,0s.06,0,.06-.06l.33,0a.14.14,0,0,0,.11-.11.19.19,0,0,1,.17-.19c.25-.07.49-.17.75-.22a1.17,1.17,0,0,0,.36-.16.35.35,0,0,0,.16-.16c0-.16.13-.31.19-.46a.09.09,0,0,0,0-.1.18.18,0,0,0-.08-.07,2.38,2.38,0,0,0-.38-.11,4.07,4.07,0,0,0-.5,0c-.15,0-.3,0-.44,0l-.33.09-.38.11c-.27.07-.53.17-.8.26a7.55,7.55,0,0,0-.72.32l-.69.37a.21.21,0,0,0-.1.19c0,.09,0,.18.07.27a.29.29,0,0,1-.13.3l-.18.13s0,0,0,0,0,0,.09,0l.1,0,.11,0c.06,0,.09,0,.06.11s0,.08,0,.1a.11.11,0,0,0,.11,0l.15-.08s0-.1.07-.14a.1.1,0,0,1,0,0L99,54a.48.48,0,0,1,.17,0,.26.26,0,0,0,.25-.08.24.24,0,0,1,.14-.09,1.23,1.23,0,0,0,.33-.08.22.22,0,0,1,.25.07l0,0h0l.07-.08a.33.33,0,0,1,.27-.15h.11Zm13.33,2.74a.88.88,0,0,1,.32-.12.56.56,0,0,0,.3-.12.85.85,0,0,1,.3-.15.33.33,0,0,0,.16-.07.85.85,0,0,1,.35-.15.19.19,0,0,0,.1,0,.88.88,0,0,1,.41-.17l.53-.17c.14-.14.34-.16.49-.28A.72.72,0,0,1,117,55a.77.77,0,0,0,.4-.18l.1-.05a2.3,2.3,0,0,1,.42-.14.39.39,0,0,0,.29-.17l0,0,.16-.05a.87.87,0,0,0,.46-.2,1.75,1.75,0,0,1,.68-.26.34.34,0,0,0,.15-.07,1.42,1.42,0,0,1,.44-.23.85.85,0,0,0,.26-.11.87.87,0,0,1,.45-.2.54.54,0,0,0,.3-.15.56.56,0,0,1,.2-.11l.53-.17a.75.75,0,0,0,.2-.1.73.73,0,0,1,.3-.16.85.85,0,0,0,.46-.18.44.44,0,0,1,.27-.07.54.54,0,0,0,.32-.11s.08-.08.13-.09c.2,0,.38-.16.58-.21a1.66,1.66,0,0,0,.31-.12,2,2,0,0,1,.79-.28c.18-.07.36-.09.54-.16a4.75,4.75,0,0,1,.64-.2.19.19,0,0,0,.1,0,.14.14,0,0,0,.08-.07,1,1,0,0,0,.09-.21.17.17,0,0,0,0-.15.14.14,0,0,0-.15-.06,2.88,2.88,0,0,1-.31.13,14.44,14.44,0,0,0-1.67.49,3.27,3.27,0,0,0-.53.17,1.21,1.21,0,0,0-.32.11c-.11.06-.24.08-.36.14a3.76,3.76,0,0,1-.46.2l-.48.18a1.91,1.91,0,0,1-.52.19,2.1,2.1,0,0,0-.3.15,1.42,1.42,0,0,1-.51.21,2.27,2.27,0,0,0-.58.23c-.58.3-1.17.58-1.77.85a2,2,0,0,0-.55.28.35.35,0,0,1-.15.07.72.72,0,0,0-.2.09.85.85,0,0,1-.3.15,4.78,4.78,0,0,0-.61.28c-.2.14-.45.2-.64.35a.26.26,0,0,1-.15.07,2.36,2.36,0,0,0-.52.21,3.62,3.62,0,0,1-.4.19,1.92,1.92,0,0,0-.35.18,1.14,1.14,0,0,1-.47.19.47.47,0,0,0-.25.11.18.18,0,0,0-.08.07.9.9,0,0,0-.16.41h-.09ZM74.19,35.14l.09.07c.07,0,.1,0,.13,0a.45.45,0,0,1,.11-.19.19.19,0,0,1,.14-.07.07.07,0,0,0,.07-.06v0a.22.22,0,0,1,.07-.2s.11-.1.16-.16a.35.35,0,0,1,.31-.1h.11a.19.19,0,0,0,.15-.22.08.08,0,0,1,0,0l0,0a.15.15,0,0,0-.16,0,3.83,3.83,0,0,1-.69.37l-.15.08a1.14,1.14,0,0,0-.23.15,1.25,1.25,0,0,1-.47.31c-.27.19-.58.34-.84.56a.67.67,0,0,1-.14.09,4.07,4.07,0,0,1-.55.28.54.54,0,0,0-.2.1c-.17.15-.39.22-.57.37a6.59,6.59,0,0,1-.57.34c-.22.15-.48.22-.69.37a.48.48,0,0,1-.16.08,3.77,3.77,0,0,0-.59.32l-.57.35a1.69,1.69,0,0,0-.29.17,1.93,1.93,0,0,1-.49.26c-.45.17-.82.47-1.25.65s-.68.39-1,.59a.4.4,0,0,1-.2.09.84.84,0,0,0-.4.2,1.14,1.14,0,0,1-.34.19.72.72,0,0,0-.24.14l-.1,0a.71.71,0,0,0-.41.17.54.54,0,0,0-.29.15.24.24,0,0,1-.1.05,1.5,1.5,0,0,0-.4.2A1.05,1.05,0,0,1,63,41l-.21.08c-.1,0-.15.12-.23.16a3,3,0,0,1-.41.18,3.09,3.09,0,0,0-.67.41,4.25,4.25,0,0,1-.47.48.29.29,0,0,0-.08.14,2.25,2.25,0,0,0,0,.22.31.31,0,0,0-.41.14v0a.08.08,0,0,0,0,0,1.86,1.86,0,0,0,.39-.21l.21,0a.2.2,0,0,0,.14-.06.16.16,0,0,0,0-.14.41.41,0,0,1,0-.11.09.09,0,0,1,.11-.07h0a.41.41,0,0,1,.13.1c-.05,0-.06,0,0,0v-.05h.06a3.76,3.76,0,0,1,.46-.2.84.84,0,0,0,.32-.3.09.09,0,0,1,.1,0,.65.65,0,0,0,.46-.16l.12-.11a.21.21,0,0,1,.1-.06l.1,0,.22,0a.17.17,0,0,1,.22.12.1.1,0,0,0,.1,0h0a.07.07,0,0,0,0-.08h0l0-.1a.2.2,0,0,1,.16-.23h0a.25.25,0,0,0,.29-.19h0a.14.14,0,0,1,.12-.09h.12a.08.08,0,0,0,.08-.06.21.21,0,0,1,.15-.14,1.16,1.16,0,0,0,.32-.08,1.23,1.23,0,0,1,.37-.12.37.37,0,0,0,.2-.09l.18-.14.21-.17c.08-.06.18-.06.26-.11a1.11,1.11,0,0,1,.34-.18.31.31,0,0,0,.1-.05,3.87,3.87,0,0,1,.43-.27l.34-.2.26-.2A1.8,1.8,0,0,1,68.1,39h.05l.09-.06a.89.89,0,0,1,.35-.23.07.07,0,0,0,0-.09,1.09,1.09,0,0,0-.08-.15.09.09,0,0,1,.07-.11h0l.11,0c.15.06.16.06.26,0l.14-.09a.15.15,0,0,0,.08-.18c0-.08,0-.1.1-.1h.33a.15.15,0,0,0,.14-.09,1.85,1.85,0,0,1,.34-.5.09.09,0,0,1,.1,0l.23.16h0s0-.08,0-.11.06-.1.11-.09l.1,0a.1.1,0,0,0,.14,0h0l.06-.09a.25.25,0,0,1,.22-.13c.16,0,.23-.09.26-.25v0a.16.16,0,0,1,.14-.15l.16,0a.52.52,0,0,0,.42-.14.74.74,0,0,1,.3-.13l.1-.05a1.26,1.26,0,0,0,.22-.24.11.11,0,0,0,0-.11c0-.1,0-.12,0-.14a.12.12,0,0,1,.15,0,.19.19,0,0,0,.16,0c.19-.07.39-.11.58-.19a.41.41,0,0,1,0-.11,3.62,3.62,0,0,1,.22-.32l.12-.12.1,0a.1.1,0,0,1,.09.06h0ZM35.89,51.67h0a.44.44,0,0,0,.34.23l.15,0s0,0,0,0h0s0,0-.07,0a1,1,0,0,1,.25-.2,2.21,2.21,0,0,0,.34-.18.52.52,0,0,1,.32-.07.52.52,0,0,0,.32-.07.33.33,0,0,1,.26,0h0a.27.27,0,0,0,.2.16.24.24,0,0,0,.2-.07s.06,0,0-.07,0,0,0,0l-.05,0a.11.11,0,0,1,0-.14.1.1,0,0,1,.07-.08.45.45,0,0,1,.16,0,.32.32,0,0,0,.18-.12h0a.17.17,0,0,0,.15,0l.06-.09a.19.19,0,0,1,.19-.09l.56.06a.18.18,0,0,0,.1,0s.06-.06.09-.06a.12.12,0,0,1,.1,0s.05,0,.07.08l.07.09a.1.1,0,0,0,.15,0,.07.07,0,0,0,0-.09h0a.1.1,0,0,1,0-.14.27.27,0,0,1,.07-.08l.1-.05.16-.07a.28.28,0,0,0,.14-.16l.05,0s.07,0,.07.06a.32.32,0,0,0,0,.17s0,0,0,0a.1.1,0,0,0,.09-.06c0-.09,0-.19,0-.28A.21.21,0,0,1,40.9,50a1.19,1.19,0,0,1,.32-.1.06.06,0,0,1,.05,0,0,0,0,0,1,0,0,.27.27,0,0,1-.07.08.11.11,0,0,0,0,.1.05.05,0,0,0,0,0h.33l.15.05s.06,0,.08,0v0c0-.23,0-.23.18-.3a2.48,2.48,0,0,1,.59-.17l.06,0a.55.55,0,0,1,.38,0,.14.14,0,0,0,.15,0l.13-.1c.2-.06.37-.18.56-.25a.19.19,0,0,0,.1-.13c0-.1.08-.13.15-.09s.33.09.46.21a.12.12,0,0,0,.1,0,1.26,1.26,0,0,1,.27,0,.19.19,0,0,0,.12-.11l.08-.21a.31.31,0,0,1,0-.1.16.16,0,0,1,.15,0s.06.06.09.06.06-.08.09-.12a.31.31,0,0,1,.4-.11c.08,0,.12,0,.17-.06s.13-.06.2-.08a6.56,6.56,0,0,1,1.08-.27.19.19,0,0,0,.14-.09.69.69,0,0,1,.11-.13,1.38,1.38,0,0,1,.24-.14.11.11,0,0,1,.11,0l.1,0a.15.15,0,0,0,.16,0,.75.75,0,0,1,.16-.15l.3-.15a.79.79,0,0,1,.22-.06.45.45,0,0,1,.16,0l.15.08h0a.37.37,0,0,1,.07-.14,1,1,0,0,1,.38-.24l.59-.17a.14.14,0,0,1,.11,0l.13.1a.07.07,0,0,0,.1,0h0a.39.39,0,0,1,.28-.25.44.44,0,0,0,.25-.21.24.24,0,0,1,.24-.13.56.56,0,0,0,.31-.09.23.23,0,0,1,.11,0,.69.69,0,0,0,.37-.1.82.82,0,0,1,.26-.1c.22-.06.43-.12.64-.2a.33.33,0,0,1,.17,0,.24.24,0,0,0,.28-.13.62.62,0,0,1,.38-.2.2.2,0,0,0,.11,0,2.56,2.56,0,0,0,.55-.27,2.2,2.2,0,0,0,.78-.64,4.47,4.47,0,0,1,.42-.45.07.07,0,0,0,0-.05.06.06,0,0,0-.07,0h0l-.32.11a.83.83,0,0,0-.3.14,1.87,1.87,0,0,1-.39.22c-.23.08-.46.15-.69.25a.83.83,0,0,1-.21.06,1.24,1.24,0,0,0-.53.18c-.17.08-.34.15-.5.24a1.07,1.07,0,0,1-.31.13,1.46,1.46,0,0,0-.57.21.85.85,0,0,1-.37.12,1.9,1.9,0,0,0-.63.23l-.2.11a1.14,1.14,0,0,1-.36.15c-.16,0-.32.1-.48.13a2.35,2.35,0,0,0-.89.34.91.91,0,0,1-.31.12c-.14,0-.25,0-.37.1a1.94,1.94,0,0,1-.36.15,3.28,3.28,0,0,0-.52.2,4.72,4.72,0,0,1-.53.18l0,0a.29.29,0,0,1-.08-.14.17.17,0,0,0-.23-.09h0l-.1.05a1.24,1.24,0,0,0-.18.14c0-.06,0-.07,0,0l.05,0c0,.1.08.11.16.11s.08,0,.07.05,0,0,0,0a.42.42,0,0,0-.2.1.16.16,0,0,1-.08.06,3.71,3.71,0,0,0-.68.27.23.23,0,0,1-.11,0,4,4,0,0,1-.5.09,1.3,1.3,0,0,0-.43.11c-.06,0-.09,0-.09-.1s-.05-.17-.16-.15a1.68,1.68,0,0,0-.32.09l-.37.14c-.14.06-.28.1-.42.15a.52.52,0,0,0-.26.2h0a4,4,0,0,0-1.07.31.86.86,0,0,1-.21.07l-.16,0q-.34.14-.69.24l-.21.07-.3.15c-.12.06-.26.05-.37.12a1.06,1.06,0,0,1-.43.12,1.31,1.31,0,0,0-.27.06,1.62,1.62,0,0,1-.43.12.5.5,0,0,0-.2.08.85.85,0,0,1-.3.15c-.28.09-.57.16-.85.28a.42.42,0,0,1-.16,0,1.43,1.43,0,0,0-.54.13.44.44,0,0,1-.16,0,.31.31,0,0,0-.21.07.88.88,0,0,1-.35.17l-.27.06a1.75,1.75,0,0,1-.59.14l-.11,0c-.21.13-.46.17-.65.31h0l-.34,0a4.25,4.25,0,0,1-.6.12.52.52,0,0,0-.16.06c-.06,0-.12.08-.19.11a.32.32,0,0,1-.16,0,.4.4,0,0,0-.32.05,2,2,0,0,1-.25.14c-.06,0-.15,0-.21,0a1.94,1.94,0,0,0-.24.15.22.22,0,0,1-.11,0,.36.36,0,0,0-.32,0,1.61,1.61,0,0,0-.53.15l-.05,0a.68.68,0,0,1-.27.07.59.59,0,0,0-.26.1.48.48,0,0,1-.37.11.39.39,0,0,0-.21.06.34.34,0,0,1-.2.09c-.22,0-.44.09-.65.15a1.62,1.62,0,0,1-.43.12l-.41.17a4.17,4.17,0,0,1-.9.31l-.16,0-.58.2a.79.79,0,0,1-.22.06,1.92,1.92,0,0,0-.7.19l-.22,0a2.53,2.53,0,0,0-.7.2,5.58,5.58,0,0,1-.91.26,2,2,0,0,0-.54.16l-.21.06-.54.15a.65.65,0,0,1-.28,0,.3.3,0,0,0-.25.09.4.4,0,0,1-.2.09l-.38.08c-.13,0-.25.08-.38.1a1.6,1.6,0,0,0-.37.12l-.16,0-.33.08-.38.08-.16,0a6,6,0,0,1-1.19.33.33.33,0,0,0-.28.24c0,.07,0,.08-.11,0a.19.19,0,0,0-.16-.05,1.69,1.69,0,0,1-.5.08.84.84,0,0,0-.27,0,.48.48,0,0,0-.29.17l0,0-.33.09s-.05.05-.07.08l0,.1a.07.07,0,0,1-.08,0l0,0c-.08-.1-.16-.16-.28-.11a.16.16,0,0,0-.12.17c0,.07,0,.14.05.22s.09.1.13.07a5.44,5.44,0,0,1,.54-.15,5.59,5.59,0,0,0,.71-.15.1.1,0,0,0,.05-.14l-.06-.1a.07.07,0,0,1,0-.08.24.24,0,0,1,.33,0l0,0a.2.2,0,0,0,.25,0,.31.31,0,0,1,.32,0,.08.08,0,0,0,.1,0,.5.5,0,0,1,.27-.07.3.3,0,0,0,.15-.07.61.61,0,0,1,.41-.15,1.41,1.41,0,0,0,.74-.24.18.18,0,0,1,.16,0l.11,0a.18.18,0,0,0,.16,0,1.12,1.12,0,0,0,.4-.38s0,0,0,0l.24.15a.13.13,0,0,0,.19,0l0-.1c0-.07.06-.08.13,0s.11,0,.15,0a.43.43,0,0,1,.27-.06c.08,0,.14,0,.22,0a1.46,1.46,0,0,1,.22,0l.22,0h.05a1.73,1.73,0,0,0,.44-.25h0l.09.06a.15.15,0,0,0,.16,0l.15-.07c.13-.08.3-.06.41-.17l.05,0,.11,0c.21,0,.41,0,.62-.06a.31.31,0,0,1,.21.05l.1.07a.21.21,0,0,0,.16,0,.49.49,0,0,0,.32-.29.28.28,0,0,1,.07-.09.44.44,0,0,1,.25-.11.3.3,0,0,1,.2.06c.07.07.08.07.1,0a.27.27,0,0,1,.14-.23.73.73,0,0,1,.38-.11.71.71,0,0,0,.32-.07,1.14,1.14,0,0,1,.54-.14.49.49,0,0,0,.16,0l.25-.12a.14.14,0,0,1,.11,0,.49.49,0,0,0,.25.12,1.26,1.26,0,0,0,.28,0,2.28,2.28,0,0,0,.51-.21l0,0h0a6.75,6.75,0,0,1,.76-.14h.11a.17.17,0,0,0,.14-.07l.1-.14a.17.17,0,0,1,.2,0s.06,0,.1,0a.38.38,0,0,0,.3-.11h0a.62.62,0,0,0,.32-.09l.23-.14s0,0,0,0h0l.36-.27c.07,0,.17,0,.21.09s0,.08.07.06,0,0,0,0a.08.08,0,0,1,0-.05.1.1,0,0,1,.14,0h0c.09.08.18.14.29,0s.25-.09.35-.19a.18.18,0,0,1,.16,0l.16,0a.16.16,0,0,0,.14-.08v0l0,0c.07,0,.13,0,.15,0s0,0,0,0a.46.46,0,0,1,.13-.18.39.39,0,0,1,.46-.06l.17.14a.11.11,0,0,0,.11,0l.12-.11c.05-.15.19-.22.3-.31h0a.18.18,0,0,1,.1,0,.21.21,0,0,1,.06.1.14.14,0,0,0,0,.08s0-.07,0-.08c.17-.08.36-.09.53-.16l.52-.21a.11.11,0,0,0,.07-.08l.09-.17Zm13.35,5.7c0-.06,0-.11,0-.16a.08.08,0,0,0-.08-.07,3.39,3.39,0,0,0-.78.08c-.17,0-.32.1-.5.08a2.52,2.52,0,0,1-.78.06.86.86,0,0,0-.27,0,.36.36,0,0,1-.27,0,.28.28,0,0,0-.22,0,.72.72,0,0,0-.21.18,5,5,0,0,1-.49.54,1.13,1.13,0,0,0-.1.13l-.47.63a2.64,2.64,0,0,1-.43.51c-.18.22-.38.42-.54.66a1.75,1.75,0,0,1-.4.46l-.07.09a1.27,1.27,0,0,1-.26.36c-.13.16-.26.32-.38.49a2.61,2.61,0,0,0-.19.27,1.05,1.05,0,0,1-.2.27,3,3,0,0,0-.3.4L41.9,63a4.59,4.59,0,0,1-.35.51c-.15.16-.2.4-.4.54a2.87,2.87,0,0,1-.36.5,1.08,1.08,0,0,0-.2.4.93.93,0,0,1-.18.34,2.65,2.65,0,0,0-.38.62,3.55,3.55,0,0,1-.28.55l-.28.42a2.72,2.72,0,0,1-.21.46,4.07,4.07,0,0,1-.31.53.33.33,0,0,0-.07.21.5.5,0,0,1-.08.32.47.47,0,0,0,0,.1,1.16,1.16,0,0,1-.2.47.77.77,0,0,0-.12.37.43.43,0,0,0,0,.16s.08.1.12.1.25-.07.38-.08a1.68,1.68,0,0,0,.61-.27l.57-.37.26-.2c.2-.16.41-.32.61-.5a4.32,4.32,0,0,0,.7-.65.57.57,0,0,1,.22-.16.62.62,0,0,0,.18-.14.8.8,0,0,1,.15-.17,4.23,4.23,0,0,0,.65-.62c.14-.15.28-.3.43-.44a3.26,3.26,0,0,0,.31-.33,6.56,6.56,0,0,1,.73-.76,1.29,1.29,0,0,0,.16-.17.89.89,0,0,1,.26-.29,1.5,1.5,0,0,0,.34-.37,1.61,1.61,0,0,1,.36-.42A3.29,3.29,0,0,0,46,63a3,3,0,0,1,.4-.54,1.13,1.13,0,0,0,.1-.13,4.25,4.25,0,0,1,.43-.59c.2-.25.36-.53.57-.77,0-.17.18-.28.25-.44a1,1,0,0,1,.24-.37,1.35,1.35,0,0,0,.3-.47,1.19,1.19,0,0,1,.13-.25c.1-.16.18-.33.26-.49a.9.9,0,0,0,.08-.21,1,1,0,0,1,.16-.36.66.66,0,0,0,.13-.31,1.48,1.48,0,0,1,.15-.48.78.78,0,0,0,0-.22Zm77.55-2.6a.56.56,0,0,0,.31-.09.9.9,0,0,1,.21-.08,2.4,2.4,0,0,0,.78-.31,1.26,1.26,0,0,0,.44-.24.42.42,0,0,1,.14-.09,1,1,0,0,0,.34-.19,3,3,0,0,1,.41-.18l.15-.09a2.1,2.1,0,0,1,.3-.15,1.57,1.57,0,0,0,.46-.2,3.05,3.05,0,0,0,.74-.38.55.55,0,0,1,.15-.08,1.07,1.07,0,0,0,.28-.19.35.35,0,0,1,.26-.07.25.25,0,0,0,.17,0l.5-.24a.71.71,0,0,0,.14-.1.28.28,0,0,1,.24-.13.39.39,0,0,0,.25-.1l.24-.14a4.37,4.37,0,0,0,.78-.31l.11,0a1.82,1.82,0,0,0,.58-.2,1.86,1.86,0,0,1,.57-.21l.22,0a2,2,0,0,0,.25-.14l.11,0a.42.42,0,0,0,.2-.1.4.4,0,0,1,.19-.11,2.24,2.24,0,0,0,.62-.25.31.31,0,0,0,.16-.22.11.11,0,0,0,0-.05.15.15,0,0,0-.12-.17h0a.41.41,0,0,0-.16,0,2.39,2.39,0,0,1-.37.15,7.47,7.47,0,0,0-.79.29l-.21.07c-.37.09-.72.23-1.07.35a2.39,2.39,0,0,1-.54.15.18.18,0,0,0-.09.06s0,.06-.08.07a3.9,3.9,0,0,0-.35.19,1.11,1.11,0,0,1-.26.07,1.08,1.08,0,0,0-.55.26.55.55,0,0,1-.15.08l-.62.27a4.89,4.89,0,0,0-.64.34l-.2.1-.46.22-.61.29a1.06,1.06,0,0,0-.43.26,2.11,2.11,0,0,1-.3.16,2.1,2.1,0,0,0-.3.15,2.11,2.11,0,0,1-.3.16,12.18,12.18,0,0,0-1.25.63.14.14,0,0,0-.07.08.3.3,0,0,1-.17.21l-.22.16a.09.09,0,0,0,0,.1.07.07,0,0,0,.1,0ZM86.65,51.49a.43.43,0,0,0,0-.11.14.14,0,0,0-.12-.09,2.11,2.11,0,0,0-.61.1.42.42,0,0,0-.14.09l-.19.12-.41.19a1,1,0,0,1-.38.08.48.48,0,0,0-.3.13,1.31,1.31,0,0,1-.49.27c-.07,0-.13.07-.2.09a1.59,1.59,0,0,0-.46.21,1,1,0,0,0-.43.25.42.42,0,0,1-.14.09c-.14.05-.26.15-.4.21a3.32,3.32,0,0,1-.6.29.45.45,0,0,0-.19.11,2.3,2.3,0,0,1-.58.35,3.7,3.7,0,0,0-.43.25c-.14.1-.3.15-.43.26s-.38.25-.55.4-.41.26-.59.43a.61.61,0,0,0-.14.1,4.33,4.33,0,0,1-.52.42c-.19.15-.4.27-.59.42s-.26.15-.38.24a1.36,1.36,0,0,1-.38.24.27.27,0,0,0-.08.07.18.18,0,0,0,0,.1.13.13,0,0,0,.1.12.4.4,0,0,1,.11,0c.12,0,.13,0,.15-.1s.05-.13.15-.1h0a2.36,2.36,0,0,0,.57-.35.4.4,0,0,1,.2-.09.21.21,0,0,0,.15-.07.84.84,0,0,1,.31-.31l.2-.12a5.35,5.35,0,0,1,.56-.36,1.64,1.64,0,0,1,.5-.36,3.48,3.48,0,0,0,.51-.34.41.41,0,0,1,.13-.1,2.38,2.38,0,0,0,.44-.25,1.73,1.73,0,0,1,.44-.25,10.53,10.53,0,0,1,.93-.52.42.42,0,0,0,.14-.09.72.72,0,0,1,.24-.14.55.55,0,0,0,.15-.08,1.4,1.4,0,0,1,.54-.28,2.83,2.83,0,0,0,.66-.31,1.39,1.39,0,0,1,.4-.21l.46-.2a3.62,3.62,0,0,0,.4-.19,4.58,4.58,0,0,0,.46-.2,2,2,0,0,1,.31-.12,4.09,4.09,0,0,0,.42-.16.14.14,0,0,0,.1-.13ZM113.87,51h-.23a1.24,1.24,0,0,0-.66.13,1,1,0,0,1-.44.07,3,3,0,0,0-.5.07,8.12,8.12,0,0,0-1,.25l-.32.1-.33.07-.33.08a2.13,2.13,0,0,1-.43.13,2.78,2.78,0,0,0-.69.22.44.44,0,0,1-.16.06c-.27.05-.55.12-.82.16a1.3,1.3,0,0,0-.33.07c-.28.1-.57.17-.86.25a.86.86,0,0,1-.28,0,.46.46,0,0,0-.21.08.25.25,0,0,1-.15.05.65.65,0,0,0-.27.08.5.5,0,0,1-.26.08c-.24,0-.48.09-.72.12l0,0a.17.17,0,0,0,0,.24.05.05,0,0,0,0,0c.11,0,.22,0,.33,0h.34c.13,0,.25-.06.39,0a.2.2,0,0,0,.15,0l.16-.07c.25,0,.5-.15.75-.22a.8.8,0,0,1,.21,0,1.75,1.75,0,0,0,.4,0,2.93,2.93,0,0,0,.4-.19l0,0a.2.2,0,0,1,.11,0,1.28,1.28,0,0,0,.6-.13c.08,0,.18,0,.27,0a5,5,0,0,1,.76-.21l.27-.08a2.46,2.46,0,0,1,.53-.15l.28-.06.21-.07a1.32,1.32,0,0,1,.31-.12,6.6,6.6,0,0,0,.77-.17.44.44,0,0,1,.16,0,.88.88,0,0,0,.28-.06,1.14,1.14,0,0,1,.33-.07.66.66,0,0,0,.27-.06l.16,0h.06a.68.68,0,0,0,.31-.11.62.62,0,0,1,.26-.09l.28,0,0,0,0-.1c0-.05,0-.08-.06-.08h-.44ZM98.05,57.09s0,0,0-.05a.36.36,0,0,0-.27,0c-.28.06-.56,0-.84.1a.82.82,0,0,1-.27,0,2.78,2.78,0,0,0-.5,0l-.5,0H95.6a.21.21,0,0,0-.17.12,8.28,8.28,0,0,0-.34,1,.45.45,0,0,0,0,.16.26.26,0,0,0,.26.24h.06l.16,0a.36.36,0,0,1,.32,0,.2.2,0,0,0,.17,0,.43.43,0,0,0,.24-.22.28.28,0,0,1,.15-.15,3.11,3.11,0,0,0,.4-.22c.24-.13.47-.29.71-.45a1.85,1.85,0,0,0,.5-.34.08.08,0,0,0,0,0Zm20.43-2.2c-.16,0-.17,0-.26.07l-.18.13a.31.31,0,0,1-.26.07.23.23,0,0,0-.16,0,.42.42,0,0,1-.14.09c-.21.07-.4.2-.62.27a.4.4,0,0,0-.23.23.09.09,0,0,0,0,.1.07.07,0,0,0,.08,0h0a.9.9,0,0,1,.32-.09l.11,0,.2-.11a.7.7,0,0,1,.42-.13.3.3,0,0,0,.16,0,2.35,2.35,0,0,1,.45-.22,1.06,1.06,0,0,1,.43-.12l.36-.15a.75.75,0,0,0,.2-.1,1.92,1.92,0,0,0,.42-.28.14.14,0,0,1,.11,0l0,0a.56.56,0,0,0,.37-.11.08.08,0,0,0,0,0,.42.42,0,0,0,0-.1.11.11,0,0,1,.12-.1,1.31,1.31,0,0,0,.55-.1.76.76,0,0,1,.16,0,.13.13,0,0,0,.09-.12,1.7,1.7,0,0,0-.1-.32.17.17,0,0,0-.14-.07l-.76.22a.28.28,0,0,0-.09.07,1.47,1.47,0,0,0-.1.13.29.29,0,0,1-.17.14.79.79,0,0,1-.26.08,2.72,2.72,0,0,0-.49.13.41.41,0,0,0-.24.13l-.21.25a.25.25,0,0,1-.25.09ZM65.64,51l0,0a3.89,3.89,0,0,0-.77.56,3.57,3.57,0,0,0-.53.5.33.33,0,0,0-.06.1.09.09,0,0,0,0,0,.05.05,0,0,0,0,0l0,0c.14-.06.21-.22.35-.27a4.76,4.76,0,0,1,.62-.57l.36-.35a.07.07,0,0,0,0-.06ZM64,41.61v.1s.08.08.13,0a.43.43,0,0,0,.16-.14.25.25,0,0,1,.28-.12.14.14,0,0,0,.11,0L65,41.3a.09.09,0,0,0,0-.1A.2.2,0,0,0,64.8,41l-.07,0c-.22.1-.42.23-.63.35a.17.17,0,0,0,0,.2Zm36.75,12.81-.19.08-.16,0a4.94,4.94,0,0,1-.65.12c-.05,0-.08,0-.08.06a.08.08,0,0,0,.06.08c.12.05.25,0,.38.09a.27.27,0,0,0,.21,0l.08-.08a.48.48,0,0,1,.28-.15.51.51,0,0,0,.17,0,.2.2,0,0,0,.11-.11.09.09,0,0,0,0-.1.07.07,0,0,0-.1,0Zm-11.93,4a.78.78,0,0,0,.36-.13,1.74,1.74,0,0,1,.49-.25l.1-.12a.08.08,0,0,0,0-.1.07.07,0,0,0-.1,0,6.48,6.48,0,0,0-.84.51.08.08,0,0,0,0,0,0,0,0,0,0,0,.05ZM14.42,57.24h-.06c-.23.06-.44.18-.67.23s-.1.06-.08.17.07.11.11.09h.06c.11-.09.29-.07.36-.23h0l.21.06a.11.11,0,0,0,.13-.08,0,0,0,0,0,0-.05.17.17,0,0,0,0-.1A.27.27,0,0,0,14.42,57.24Zm96.08-4.31a.49.49,0,0,0,.41-.1.77.77,0,0,1,.25-.1.31.31,0,0,0,.1,0,.11.11,0,0,0,0,0,.07.07,0,0,0-.07-.07l-.26.08-.1,0a.66.66,0,0,1-.27.06h-.27s-.07,0,0,.08a.16.16,0,0,0,.07.07l.17,0Zm-11.92,1.8h-.36a.06.06,0,0,0-.07.06h0s0,0,0,0a.52.52,0,0,0,.36.11h.27a1,1,0,0,0,.37-.11s0,0,0,0a0,0,0,0,0,0,0h-.56ZM68.7,33.46h.16a.14.14,0,0,0,.12-.1.34.34,0,0,1,.13-.18l.08-.07a.09.09,0,0,0,0-.13h0a.27.27,0,0,0-.3.07,3.85,3.85,0,0,1-.35.35s0,0,0,0a.05.05,0,0,0,.05,0Zm70.92,25.22-.42,0s0,0,0,.05a.07.07,0,0,0,0,0,.1.1,0,0,0,.1,0,.22.22,0,0,1,.23.13.42.42,0,0,0,0,.1c0,.08.1.08.17,0l.1-.13a.19.19,0,0,0-.08-.24ZM82.64,54a.13.13,0,0,1,0,.06.07.07,0,0,0,0,.1.1.1,0,0,0,.1,0,.63.63,0,0,1,.26-.2.25.25,0,0,0,.11-.12l.07-.15s0-.07,0-.09a0,0,0,0,0,0,0l-.3.12a.28.28,0,0,0-.18.2S82.65,54,82.64,54Zm2.56-1.26a.43.43,0,0,0,.16,0,.68.68,0,0,0,.28-.18.07.07,0,0,0,0-.09h0a.34.34,0,0,0-.22,0l-.1.05-.35.17c-.11.06-.16.14,0,.25s0,0,0,0,0,0,.07-.06S85.08,52.72,85.2,52.73Zm5.66,4.44h0a.39.39,0,0,1-.33.18l-.1,0a.2.2,0,0,0-.09.06.08.08,0,0,0,.06.14l.27-.06a.62.62,0,0,0,.28-.17.15.15,0,0,0,0-.16l0,0ZM68,52.07a.31.31,0,0,0,.13-.06.84.84,0,0,1,.44-.22s.07,0,.06-.08a.1.1,0,0,0-.08-.06,1.4,1.4,0,0,0-.57.21.22.22,0,0,0-.07.09,0,0,0,0,0,0,0s0,.06.09.07ZM56,43.65a.09.09,0,0,0-.07-.06.1.1,0,0,0-.1,0,.32.32,0,0,1-.4.07l-.06,0a.11.11,0,0,0-.1,0,.06.06,0,0,0,0,.09l.05,0a.2.2,0,0,0,.25,0,.31.31,0,0,1,.2-.07h.11c.05,0,.09-.08.09-.13Zm53.18,9.4a0,0,0,0,0,0,0,.22.22,0,0,0-.21-.13l-.16,0c-.06,0-.1.07-.08.12l.09.2a.1.1,0,0,0,.12.05h0l.21-.16a.08.08,0,0,0,0,0Zm-81,1.71a0,0,0,0,0,0,0s0,0,0-.05L28,54.53a.07.07,0,0,0-.11,0,.05.05,0,0,0,0,0c0,.06,0,.1-.1.11h-.11c-.07,0-.11.06-.09.11a.08.08,0,0,0,.09,0l.5-.07s0,0,0,0ZM54.6,44.31l.2-.08.09-.07a.06.06,0,0,0,0-.09.05.05,0,0,0,0,0h-.33c-.13,0-.15.07-.14.19s.07.13.16.1l.05,0Zm-39.33,13h.05a.07.07,0,0,0,.09,0s0-.05-.07-.06a.82.82,0,0,0-.49,0,.07.07,0,0,0-.06.07.36.36,0,0,0,0,.11.1.1,0,0,0,.11.08l.06,0a.16.16,0,0,1,.18-.08Zm10.9-2h.06l0,0,.16-.16a.12.12,0,0,0,0-.15.17.17,0,0,0-.15,0l-.1,0a.18.18,0,0,0-.1.24.08.08,0,0,0,0,0S26.14,55.3,26.17,55.32Zm81.56-3.12.38-.08,0,0a.09.09,0,0,0,0-.09.05.05,0,0,0,0,0h0l-.43.13a.18.18,0,0,0-.08.07s0,0,.15,0ZM65.93,36.65l0,0a.43.43,0,0,0,.16-.14l0-.05a.16.16,0,0,0,0-.15.1.1,0,0,0-.14,0h0s0,.1-.12.06-.1,0-.09.08a.28.28,0,0,0,.09.18ZM84.11,57.32l.13-.1a1.78,1.78,0,0,0,.17-.27.07.07,0,0,0,0-.09.07.07,0,0,0-.09,0h0a1.72,1.72,0,0,0-.23.42l.05,0ZM53.92,47.85s0,0,0-.06a2.44,2.44,0,0,1-.1-.24s-.09,0-.14,0a.13.13,0,0,0,0,.14,1.14,1.14,0,0,0,.1.19.06.06,0,0,0,.09,0h0Zm-41.86,10s0,0,0,0a1,1,0,0,0-.6,0s0,0,0,0,0,.07.06.05a.39.39,0,0,1,.21,0A1.26,1.26,0,0,1,12,58a.07.07,0,0,0,.1,0v-.06ZM136.45,51h0c-.05.05-.11.1-.16.16a.09.09,0,0,0,0,.1.13.13,0,0,0,.14.06.36.36,0,0,0,.16-.22.1.1,0,0,0-.08-.11ZM47.77,61.38l0,0c.08-.12.17-.24.24-.37a.07.07,0,0,0,0-.09h0l0,0a.47.47,0,0,0-.1.2c0,.09-.15.12-.18.21a.09.09,0,0,0,0,0h.05ZM76.21,34.62s0-.08,0-.08a.11.11,0,0,0-.1,0,.41.41,0,0,0-.1.13,0,0,0,0,0,0,0,.07.07,0,0,0,.08.05c.12,0,.18-.06.18-.16ZM112.3,50.9l-.19.05s0,0,0,0,0,0,.08,0a.82.82,0,0,0,.22,0s.06-.05,0-.08,0,0,0,0h-.08Zm-45-16a.23.23,0,0,0-.06-.2.07.07,0,0,0-.1,0s0,0,0,.09a.43.43,0,0,0,.16.14S67.3,34.86,67.32,34.85ZM49,53.33l-.06.1a.05.05,0,0,0,0,0h0c.07,0,.06-.13.11-.18s.05-.07,0-.09-.06,0-.09,0l0,.09Zm39,5.6,0,0a.24.24,0,0,0-.22.15.07.07,0,0,0,0,0s.08.05.1,0a1.09,1.09,0,0,0,.13-.17Zm-29.6-4.87s-.09,0-.14,0a.08.08,0,0,0,0,.09.05.05,0,0,0,.06.05h0l.15,0,.1,0c.06,0,.06,0-.14,0Zm3.9-11.53a0,0,0,0,0,0-.05.14.14,0,0,0-.18-.08.17.17,0,0,0-.07.13.1.1,0,0,0,.08.12.07.07,0,0,0,.06,0,.17.17,0,0,0,.11-.11Zm53.42,13.72.2-.08a.07.07,0,0,0,0-.09h0a.09.09,0,0,0-.1,0h0a.39.39,0,0,0-.17.14,0,0,0,0,0,0,.05s0,0,0,0Zm-5.93-3.2a.13.13,0,0,0-.07-.09s-.1,0-.12.09a.13.13,0,0,0,0,.06.09.09,0,0,0,.09.08h0a.12.12,0,0,0,.08-.14Zm-66.4,7,0,0c-.08,0-.1.09-.13.15h.05l.07-.07,0,0Zm22.86-9.55s-.06-.06-.09,0l-.17.15a.06.06,0,0,0,0,.09h0a.23.23,0,0,0,.21-.15v-.05Zm.26.28,0,0c0,.06-.11.1-.12.17a.06.06,0,0,0,.08.07l0,0a.28.28,0,0,0,.08-.2s0,0,0,0ZM43.66,58.1v-.05s0-.07-.07-.06l-.05,0,0,0a.09.09,0,0,0,0,.1.08.08,0,0,0,.1,0,.1.1,0,0,0,0-.08ZM61.85,42.75s0-.1-.09-.13a.11.11,0,0,0-.15,0v.05c0,.1.1.14.2.08s0,0,0,0Zm13-7.27a.07.07,0,0,0,0-.08h0a.21.21,0,0,0-.23.1,0,0,0,0,0,0,0,.05.05,0,0,0,0,0c.13,0,.2,0,.24-.09ZM40.74,61.89h-.05a.19.19,0,0,0-.1.13s0,.07,0,.09h0a.26.26,0,0,0,.13-.1V62a.11.11,0,0,0-.07-.08Zm45.68-3.61,0,0h0c-.06,0-.09.06-.13.1s0,.06,0,.09h.06a.25.25,0,0,0,.16-.14ZM65,36.69a.17.17,0,0,0-.15.05.06.06,0,0,0,0,.09h0a.11.11,0,0,0,.09,0,.12.12,0,0,0,.12-.1A.1.1,0,0,0,65,36.69Zm14.09-4.2a.1.1,0,0,0,0-.08.08.08,0,0,0-.1,0,.09.09,0,0,0,0,.09.11.11,0,0,0,.13.07l0,0,0,0ZM31.76,53.69h.1l0,0s0,0-.06,0h-.1s0,0,0,0,0,0,.08,0Zm31-11.32a.08.08,0,0,0-.14,0s0,0,0,0a0,0,0,0,0,0,0,.07.07,0,0,0,.09,0s.08,0,.08-.07ZM62,54.8s0,0,0,0a.14.14,0,0,0-.18.07h0a0,0,0,0,0,0,0l0,0c.08,0,.15,0,.18-.12ZM22.19,56.28l0,0,0,0a.2.2,0,0,0,0,.15h0a.19.19,0,0,0,0-.15ZM49,47.85l0,0A.2.2,0,0,0,49,48l0,0a.08.08,0,0,0,.09,0,.15.15,0,0,0,0-.14A.06.06,0,0,0,49,47.85ZM41.94,69.56l0,0a.09.09,0,0,0-.1,0,.07.07,0,0,0,0,.09h0s.06,0,.08,0Zm70.79-17.45h0s0,0,0,0,.06,0,.08,0l0,0ZM84.3,25.85s0-.05-.07,0a.05.05,0,0,0,0,0s0,.05,0,.06h0a.05.05,0,0,0,0-.07ZM9.77,58h0s-.07,0-.06,0l0,0a.1.1,0,0,0,.09,0l0,0ZM101,54s0,0,0,0a.19.19,0,0,0-.15,0s0,0,0,0h.11l0,0ZM10.46,58.07l.06-.08a.09.09,0,0,0,0-.05l0,0c-.05,0-.07.06-.05.12s0,0,0,0Zm.54-.23a.09.09,0,0,0-.08,0,.12.12,0,0,0-.09,0s0,0,0,.05a.12.12,0,0,0,.14,0,0,0,0,0,1,0,0Zm51.35-3.49c.06,0,.11-.08.09-.12l0,0a.09.09,0,0,0-.12.06v0s0,0,0,.05Zm38.19,2.28s0,0,0,0l0,0a.08.08,0,0,0,0,0l0,0a.08.08,0,0,0,.05-.07Zm26.34-1.42s0,0,0,0a.09.09,0,0,0,.1,0s0-.07,0-.09-.06,0-.08,0l0,0ZM59.42,41.29s0,0,0,0-.13,0-.13.1,0,0,0,0S59.42,41.36,59.42,41.29Zm19.75,14.8,0,0,0,0a.07.07,0,0,0,.1,0h0s0,0,0,0l0,0ZM116.28,56s-.06,0,0,.06,0,0,0,0a.06.06,0,0,0,.06-.05h0l0,0Zm-17.9-.53a.09.09,0,0,0,0,.08h0s0,0,0,0a.05.05,0,0,0,.07-.05.06.06,0,0,0-.06-.06h0Zm-5,.07s0,.06.07.05l0,0s0-.07,0-.07h0s-.06,0-.06.06Zm-17.18,0s0,0,0,0a.06.06,0,0,0-.07,0h0s0,0,0,0a.05.05,0,0,0,.07,0ZM64,52.45A.07.07,0,0,0,64,52.4a.06.06,0,0,0,0,0s0-.06-.07,0l-.06.08Zm51.22,3.91h0l0,0,0,0h0ZM73.78,28.27l0,0a.05.05,0,0,0-.08,0h0s0,0,0,0ZM97.66,54.75s0,0,0,0a.09.09,0,0,0,.13,0h0a.11.11,0,0,0,0,0,.08.08,0,0,0-.09,0s0,0,0,0Zm-43.77-.07s0,0,0,0a.08.08,0,0,0,0-.09.08.08,0,0,0-.1,0,.06.06,0,0,0,0,.09h0a.08.08,0,0,0,.09,0Zm-.38,0s0,0,0,0,0,0,0,0l0,0S53.5,54.66,53.51,54.66Zm.9-.27s0,0,0,0a.07.07,0,0,0,0,0Zm15.43,2.47s0,0,0,0h0s0,.06,0,.06l0,0Zm-2.48-17a.06.06,0,0,0,.06,0h0l0,0a.07.07,0,0,0,0-.08h0s-.06,0-.06.07Zm-4.44-.26,0,0a0,0,0,0,0,0,0s0,0,0,0a.05.05,0,0,0,0,0l0,0Zm3.34,14.32a.06.06,0,0,0-.08,0s0,0,0,0a.06.06,0,0,0,.07,0h0l0,0ZM50.51,45.8v0h0s0-.05,0-.07l0,0ZM31.08,53.89h0l0,0h0l0,0ZM73,29.75a.07.07,0,0,0,0-.06h0s0,0,0,0,0,.08,0,.08.07,0,.07-.06ZM8.9,58.15a.06.06,0,0,0-.08.05.08.08,0,0,0,0,.09s.08,0,.09,0,0-.07,0-.09l0,0ZM63.41,39l0,0a.09.09,0,0,0,0,0s0,0,0,0,0,0,0,0Zm73.15,19.52a.06.06,0,0,0-.07-.06s0,0,0,0a.08.08,0,0,0,0,.09.06.06,0,0,0,.07-.06ZM49.63,52.68l0,0s0,0,0,.06l0,0a.11.11,0,0,0,0,0s0,0,0,0Zm.38-.36h0l0,0s0,0,0,0l0,0v0Zm36,7.1,0,0h0l0,0h0s0,0,0,0ZM70,32.07l0,0h0s0,.06.06,0l0,0Zm-.52.52,0,0s0,.05.07,0a.06.06,0,0,0,0,0Zm8.22,1s0,0,0,0,0,0,0,0a0,0,0,0,0,0,.08l0,0ZM41.15,61.41s0,0,0,0a.07.07,0,0,0-.08.05s0,.06.05.06a.08.08,0,0,0,.07-.07h0Zm1-10.88v0s-.07,0,0,0Zm24.44-.08a.09.09,0,0,0,.1,0s0,0,0,0a.08.08,0,0,0-.1,0v0l0,0Zm9.92-16.06s0,0-.08,0a.06.06,0,0,0,0,.08h0s0,0,0,0a0,0,0,0,0,0,0,0,0,0,0,0,0,0ZM44.23,49.75l0,0s-.08,0-.09,0a.06.06,0,0,0,.06.07S44.23,49.79,44.23,49.75Zm4-1.32s0,0,0,0,0,0,0,0a.06.06,0,0,0-.08,0v0a.07.07,0,0,0,0,.05s.06,0,.09,0ZM42.37,61.37a.08.08,0,0,0-.07.05,0,0,0,0,0,0,0s.05,0,.06,0h0l0,0ZM53,48.57h0l0,0Zm-12.73,14s0,0,0,0l0,0a0,0,0,0,0,0,0Zm27.4-28,0,0,0,0Zm-25.8,25.8,0,0s0,0,0,0,0,0,0,0ZM139,59.9h0v0ZM69.7,38.59q0-.08-.06,0s0,0,0,0l0,0ZM64,58.53s0,0,0,0h0s0,0,0,0Zm78.58-.24,0,0v0Zm-94.05-10a.06.06,0,0,0,0,0h0c.05,0,0,0,0-.06Zm13.75-8.83,0,0h0ZM10.09,58l.05,0v0ZM77,57.49h0l0,0ZM62.21,39.72l0,0h0s0,0,0,0l.05,0s0,0,0,0ZM113,50.86l0,0h0s0,.05,0,.05l0,0ZM40.79,51h0v0h.05ZM23.55,56s0,0,0,0-.06,0,0,0l0,0Zm47.83-.1,0,0h0Zm28.34-.52s0-.05,0,0,0,0,0,0Zm-1.59.06,0,0,0,0,0,0Zm29.34-.37h0v0l0,0ZM73.2,55a.07.07,0,0,0-.08,0h0l0,0a.06.06,0,0,0,.08,0h0s0,0,0,0ZM55.33,54.7s0,0,0,0l0,0,0,0s0,0,0,0Zm.9-.34,0,0v0Zm3-10.38,0,0,0,0Zm41.07,10.14,0,0v0ZM50.24,45.9h0a.1.1,0,0,0,0,0h0s0,0,0,0Zm58.34,7.77h0v0s0,0,0,0a.06.06,0,0,0,0,0ZM54.82,45.9l0,0v0ZM32.9,53.11v0h0s0,0,0,0Zm48.65-22.6,0,0,0,0,0,0ZM34.48,52.9l0,0h0Zm100.13-.36-.05,0v0Zm-28.37,0v0h0s0,0,0,0Zm-20.11-.14v0l0,0Zm26.16-.09v0h-.05ZM65.8,36h0v0h0S65.8,35.93,65.8,36Zm69.84,16.18,0,0s0,0,0,0l0,0Zm-20.28,2.53,0,0h0ZM92.74,55.93l0,0v0Zm-44.48,4.7,0,0h0ZM39.6,63.71l0,0h0ZM81.68,23.5l0,0v0Z"/>
      <path d="M157.25,59.4a.48.48,0,0,1,0-.17.42.42,0,0,1,0-.16,1.86,1.86,0,0,1,.31-.46c.16-.16.28-.35.43-.52a.61.61,0,0,1,.17-.15l.28-.18a.92.92,0,0,1,.32-.1.32.32,0,0,1,.16,0,1,1,0,0,1,.28.27.64.64,0,0,1,.08.14.41.41,0,0,0,.2.26l.09.06a.42.42,0,0,1,.09.14,8.41,8.41,0,0,1,.19.87c0,.18.06.37.11.55a.47.47,0,0,1,0,.33,1.92,1.92,0,0,1-.58.8.24.24,0,0,1-.16.05h-.05l-.33-.07a.61.61,0,0,0-.33,0l-.17,0a.14.14,0,0,1-.14-.07,1.13,1.13,0,0,0-.28-.34c-.12-.12-.22-.25-.35-.36a.3.3,0,0,1-.08-.08.88.88,0,0,1-.26-.71S157.24,59.52,157.25,59.4Z"/>
      <path d="M148.27,59.26l-.24,0a.08.08,0,0,1-.07-.08.05.05,0,0,1,0,0,.76.76,0,0,1,.19-.12,2.58,2.58,0,0,0,.26-.08,2.69,2.69,0,0,1,.74-.25,1.32,1.32,0,0,0,.46-.19.24.24,0,0,1,.16,0,.53.53,0,0,0,.33,0h.11l0,0a.06.06,0,0,1,0,0,.42.42,0,0,1-.27.18c-.21,0-.39.13-.6.14a.44.44,0,0,0-.16.06l-.2.1a.61.61,0,0,1-.32.08h-.05c-.08,0-.15.12-.25.12Z"/>
      <path d="M149.27,56.55a.72.72,0,0,0-.48.05.28.28,0,0,1-.22,0l0,0,0,0a.27.27,0,0,1,.1-.06l1.13-.29h.16s0,0,0,0,0,0,0,0a.3.3,0,0,1-.19.1l-.32.06a.47.47,0,0,0-.2.1Z"/>
      <path d="M152.3,56.29a.41.41,0,0,1-.26.27l-.16.06a.45.45,0,0,1-.16,0c-.2,0-.4.11-.6.1a0,0,0,0,1,0,0l0,0a.72.72,0,0,1,.2-.09c.21,0,.38-.14.59-.18l.37-.12Z"/>
      <path d="M145.15,59.23a1,1,0,0,1,.39.05l0,0a0,0,0,0,1,0,.07h0a1.26,1.26,0,0,0-.37.13.23.23,0,0,1-.29-.1s0-.14.05-.14Z"/>
      <path d="M151.5,55.82a1.5,1.5,0,0,1-.47.28.62.62,0,0,0-.19.12h0a2.55,2.55,0,0,0-.39,0c-.05,0-.07,0-.07,0a.08.08,0,0,1,0,0l.43-.13a1.1,1.1,0,0,1,.44-.07.4.4,0,0,0,.21-.07Z"/>
      <path d="M143.68,59.89h-.05a.19.19,0,0,1-.06-.24.13.13,0,0,1,.09-.07,1.33,1.33,0,0,0,.37-.12.14.14,0,0,1,.15,0,.07.07,0,0,1,0,.09h0a.28.28,0,0,1-.09.07,1.14,1.14,0,0,0-.38.23Z"/>
      <path d="M61.73,53.28l-.2,0a.07.07,0,0,1-.06-.07h0a.08.08,0,0,1,.07-.07h0a.84.84,0,0,0,.27,0c.08,0,.13-.07.2-.08h.06a.1.1,0,0,1,0,.1.1.1,0,0,1-.08.07Z"/>
      <path d="M140.93,59.46a.24.24,0,0,1-.25.15.16.16,0,0,1-.06-.08.21.21,0,0,1,0-.11.14.14,0,0,1,.16-.13l.08,0A.17.17,0,0,1,140.93,59.46Z"/>
      <path d="M151,58a1.37,1.37,0,0,1-.47.19s-.06,0-.08,0v0a.07.07,0,0,1,0,0,.17.17,0,0,1,.14-.09h.4Z"/>
      <path d="M79.73,54a1.47,1.47,0,0,1-.1.13.38.38,0,0,0,0,.1h0a.34.34,0,0,0-.22,0,.06.06,0,0,1-.08-.05s0,0,0,0a.67.67,0,0,0,.14-.09.3.3,0,0,1,.26,0Z"/>
      <path d="M147.47,58.89a.41.41,0,0,1-.39.15s0,0,0,0l0,0s0,0,0,0l.38,0Z"/>
      <path d="M153.1,55.73l.16,0a.54.54,0,0,0,.25-.09,1.14,1.14,0,0,1,.26-.09h0a.36.36,0,0,1-.24.18,1.06,1.06,0,0,1-.43,0Z"/>
      <path d="M146.26,59.23l-.19.1a.08.08,0,0,1-.1,0s0-.08,0-.1a.12.12,0,0,1,.18-.05h0l.08.08Z"/>
      <path d="M147.48,58.9a.5.5,0,0,0,.15-.17s0,0,.06,0a.13.13,0,0,1,0,.06s0,0,0,0l0,0-.17,0Z"/>
      <path d="M47.39,53.13s0,.07,0,.1a.24.24,0,0,1-.15.25.09.09,0,0,1-.1,0,.09.09,0,0,1,0-.13h0l.07-.08.09-.06.09-.06Z"/>
      <path d="M129.36,52.38a.54.54,0,0,1,.22-.23.07.07,0,0,1,.09,0h0a.07.07,0,0,1,0,.09l-.09,0a.17.17,0,0,1-.1,0l-.1,0Z"/>
      <path d="M117,53.83V54h0a.8.8,0,0,1-.26.05l0,0s0-.06,0-.08a.34.34,0,0,1,.26,0Z"/>
      <path d="M123,51.23a.06.06,0,0,1,0,.08s0,0,0,0,0-.06,0-.07S123,51.23,123,51.23Z"/>
      <path d="M143.11,60s.06,0,0,.06a0,0,0,0,1,0,.05h0l0,0s0,0,0-.06Z"/>
      <path d="M75.68,51.92a.23.23,0,0,1-.07-.07.08.08,0,0,1,0-.11h0a.29.29,0,0,1,.23.08h0a.55.55,0,0,0-.24.12Z"/>
      <path d="M118.39,53.21s0,.07-.11.09a.06.06,0,0,1-.08,0h0s0,0,0,0a.14.14,0,0,1,.14,0Z"/>
      <path d="M80.27,53.74l-.07-.07a.1.1,0,0,1,0-.14l.16,0h0c0,.08-.09.17-.13.25Z"/>
      <path d="M151.51,55.83l.16,0a.05.05,0,0,1,.08,0l0,0h-.06l-.16,0Z"/>
      <path d="M147.17,58.74l0,0c-.06,0,0,0,0,0Z"/>
      <path d="M133,50.61a.43.43,0,0,0,0,0h0S133,50.61,133,50.61Z"/>
      <path d="M110.71,50.89c-.11,0-.12,0-.12,0l0,0,.07.06Z"/>
      <path d="M152.31,56.29h0Z"/>
      <path d="M85.57,51.15l0,0c-.05,0-.05,0,0-.08h0a.78.78,0,0,0,0,.14Z"/>
      <path d="M85.29,51.22h-.1s0,0,0,0h.06Z"/>
      <path d="M68.52,55.72h-.06s-.06,0,0,0h.07Z"/>
      <path d="M17.56,55.59s0,0,0,0-.08,0-.08-.05.05,0,.09,0S17.55,55.58,17.56,55.59Z"/>
      <path d="M153.77,55.5h0Z"/>
      <path d="M69.69,55s0,0,0,0a.15.15,0,0,1,.21,0h0a.76.76,0,0,1-.26,0Z"/>
      <path d="M84.28,51.5v0l-.05,0v0Z"/>
      <path d="M70.44,54.71h0s-.06,0,0,0h.06Z"/>
      <path d="M117,53.84a.06.06,0,0,1,.05-.07s0,0,0,0,0,0-.1,0Z"/>
      <path d="M130.85,51.59l0,0h0Z"/>
      <path d="M81.69,52.77s0,0,0,0h0s0,0,0,0Z"/>
      <path d="M75.5,52h0s0,0,0,0h.06Z"/>
      <path d="M74.88,52.15h.24a.33.33,0,0,0-.24,0Z"/>
      <path d="M74.38,52.42v0h0Z"/>
      <path d="M106.65,52h0Z"/>
      <path d="M72.66,53.43v0Z"/>
      <path d="M80.4,53.51h0Z"/>
      <path d="M79.74,54v0Z"/>
      <path d="M116.19,54.17h0Z"/>
      <path d="M130.84,51.59v0Z"/>
      <path d="M69.7,55l0,0v0Z"/>
      <path d="M85.59,51a0,0,0,0,1,0-.07h0l0,0a.08.08,0,0,1-.07.05h0Z"/>
      <path d="M149.64,58h0Z"/>
      <path d="M151,58v0Z"/>
      <path d="M149.63,58v0l0,0Z"/>
      <path d="M17.58,58.35h0s0,0,0,0Z"/>
      <path d="M146.25,59.25h0v0Z"/>
      <path d="M142.85,60.27h0Z"/>
      <path d="M72.08,34.6l-.1,0a.2.2,0,0,0-.13.08l-.08-.08a.09.09,0,0,1,0-.13h0l.19-.11s.08,0,.1,0,0,.06,0,.1A.37.37,0,0,0,72.08,34.6Z"/>
      <path d="M65.79,38.18h0Z"/>
      <path d="M41.62,49.28a.41.41,0,0,1,0,.09.54.54,0,0,1-.37.19.09.09,0,0,1-.1,0,.07.07,0,0,1,0-.1s0,0,0,0a1.24,1.24,0,0,1,.4-.16A.12.12,0,0,1,41.62,49.28Z"/>
      <path d="M39.18,50.17l0,0s0-.05,0-.05a.92.92,0,0,1,.33-.19h.11l.1,0s0,.12-.08.14l-.37.1Z"/>
      <path d="M42.76,48.73V49l-.24.14a.18.18,0,0,1-.16,0,.07.07,0,0,1,0-.08l0,0a.23.23,0,0,1,.14-.08.42.42,0,0,0,.27-.18Z"/>
      <path d="M16.59,56.64l.13.1a.09.09,0,0,1,0,.12h0a.32.32,0,0,1-.16,0,.08.08,0,0,1-.1,0,.06.06,0,0,1,0-.08h0a.39.39,0,0,0,.14-.17Z"/>
      <path d="M49.08,47.26l-.1.12a.08.08,0,0,1-.1,0,.08.08,0,0,1,0-.09.07.07,0,0,1,0-.08.14.14,0,0,1,.15,0Z"/>
      <path d="M43.9,48.52c-.06.07-.15.1-.17,0a0,0,0,0,1,0,0,.14.14,0,0,1,.15,0S43.89,48.51,43.9,48.52Z"/>
      <path d="M30.45,53.37l-.16,0a0,0,0,0,1,0,0s0-.07.07,0l.1.11Z"/>
      <path d="M44.75,49.2s0,0,0,0,0-.05.06,0a0,0,0,0,1,0,0S44.8,49.21,44.75,49.2Z"/>
      <path d="M45.56,48.53l-.05,0s0-.06.05,0a0,0,0,0,1,0,0S45.57,48.52,45.56,48.53Z"/>
      <path d="M38.56,51s-.09,0-.13,0l0,0,.09,0Z"/>
      <path d="M35.9,51.67a.08.08,0,0,0,.09,0v0H35.9Z"/>
      <path d="M28.76,53.82l-.08,0h0l0,0Z"/>
      <path d="M32.9,52.7h0Z"/>
      <path d="M50.51,46.72v0h0Z"/>
      <path d="M34.22,51.49h0Z"/>
      <path d="M22.78,55.29h0Z"/>
      <path d="M37.86,51.39v0Z"/>
      <path d="M81.41,28.64l.12-.13Z"/>
      <path d="M66.9,39.26a.08.08,0,0,1,0,.09h-.05a.07.07,0,0,1,0-.09.06.06,0,0,1,.08,0h0Z"/>
      <path d="M67.33,39l0,0,0,0Z"/>
      <path d="M100.55,53.62h0Z"/>
      <path d="M59.87,54.88a.07.07,0,0,1,0,0,.88.88,0,0,1-.42.11.05.05,0,0,1-.06,0h0s0,0,0,0l.05,0a1,1,0,0,1,.37,0Z"/>
      <path d="M58.71,55l.13,0s0,0,0,.07h0l0,0a.45.45,0,0,1-.36,0s0,0,0,0a.05.05,0,0,1,0,0s0,0,.05,0Z"/>
      <path d="M60.27,54.85a.08.08,0,0,1,.06-.08.08.08,0,0,1,.09,0,0,0,0,0,1,0,0,.09.09,0,0,1-.12,0h0S60.28,54.86,60.27,54.85Z"/>
      <path d="M134,52.26h0Z"/>
      <path d="M122.25,53.63s0-.07,0-.1,0,0,0-.05.06,0,.05.06a.93.93,0,0,1-.05.1Z"/>
      <path d="M72.3,54.42v0h0Z"/>
      <path d="M68,33h0s0,0,0,0Z"/>
      <path d="M67.9,33.25h0v0Z"/>
      <path d="M50.9,49.67l.12-.11h.11v.23A.29.29,0,0,1,50.9,49.67Z"/>
      <path d="M51.14,49.57c0-.09,0-.09.11-.11h0a.1.1,0,0,1-.09.11h0Z"/>
      <path d="M51.25,49.45s0-.06,0-.05v0l0,0Z"/>
      <path d="M51.46,49.11h.13C51.52,49.17,51.52,49.17,51.46,49.11Z"/>
      <path d="M51.58,49.12V49a.11.11,0,0,0,.11,0h0A.26.26,0,0,0,51.58,49.12Z"/>
      <path d="M51.68,49h0Z"/>
      <path d="M52.15,48.42h0Z"/>
      <path d="M49,52v0Z"/>
      <path d="M49.22,51.58v.13s-.08,0-.08-.06S49.18,51.59,49.22,51.58Z"/>
      <path d="M49.34,51.59h-.13A.15.15,0,0,1,49.34,51.59Z"/>
      <path d="M50.66,49.9h0Z"/>
      <path d="M60.36,40.33h.12l-.12.12Z"/>
      <path d="M61.68,39.1h0Z"/>
      <path d="M62.16,38.64l.12.12Z"/>
      <path d="M105,54.16a.27.27,0,0,1,.28-.09s0,0,0,0l0,0s0,0,0,0a.39.39,0,0,1-.26,0Z"/>
      <path d="M56.75,43.93l.13.12Z"/>
      <path d="M63.85,37.06v0h0Z"/>
    </g>
  </g>
</svg>
