<svg xmlns="http://www.w3.org/2000/svg" viewBox="0 0 120 33.53">
  <title>logo-header</title>
  <g>
    <path d="M59.32,18.14,51.39,0H46.57v33.5H52V15.14l8,18.39h4.7V0H59.32Z"/>
    <path d="M115,0l-5,9.92L105,0H99.83v33.5h5.47V12.92l3.33,6.61h2.64L114.53,13V33.53H120V0Z"/>
    <path d="M88.17,0H76.46L74,2.45V31l2.54,2.54H88.09L90.62,31,90.56,2.42Zm-8.66,28V5.49H85.1l.05,22.57Z"/>
    <path d="M28.66,28.06V19.53h6.59V14.06H28.66V5.49h8.55V0H25.73L23.2,2.56V31.05l2.47,2.48h11.6V28.06Z"/>
    <g>
      <rect x="5.47" y="14.06" width="6.61" height="5.47"/>
      <rect y="19.53" width="5.47" height="14"/>
      <path d="M14,5.47V0H2.52L0,2.52V14.06H5.47V5.47Z"/>
    </g>
  </g>
</svg>
