<svg xmlns="http://www.w3.org/2000/svg" viewBox="0 0 60.01 31.3">
  <title>logo-nike</title>
  <g>
    <polygon points="14.66 9.07 14.19 16.27 18.33 16.27 24.43 0 20.59 0 17.85 7.3 18.32 0 14.23 0 8.13 16.27 11.97 16.27 14.66 9.07"/>
    <polygon points="22.68 16.27 28.78 0 24.93 0 18.83 16.27 22.68 16.27"/>
    <path d="M59.58,9.74,42.44,14.38l.45-1.27H38.41l1.47-3.94h3.7l1.14-3H41l1.26-3.43h3.9l1-2.71H35.48l-4,4.88L33.31,0h-3.9L23.36,16.27h3.85l2.58-6.8.18,6.8h5.54L15.09,21.79c-5.63,1.58-12-1.86-7.4-11.13C2.31,17-2.76,25.37,1.72,29.23s9.76,1.53,13.46.05S59.75,10.06,59.75,10.06C60.15,9.86,60.07,9.61,59.58,9.74Zm-26-3L39.35.32,33.78,15.18Z"/>
  </g>
</svg>
