<svg xmlns="http://www.w3.org/2000/svg" viewBox="0 0 400.01 30.01">
  <title>paiement-livraison</title>
  <g>
    <g opacity="0.4">
      <g>
        <g>
          <path d="M161.63,28.33a1,1,0,0,1,.89-1h.08a1,1,0,0,1,1,.94s0,0,0,.07a1,1,0,0,1-.88,1h-.07a1,1,0,0,1-1-.94v-.08m2.57,0V26.75h-.69v.38a1.17,1.17,0,0,0-1-.46,1.58,1.58,0,0,0-1.58,1.59v.07A1.58,1.58,0,0,0,162.44,30h.07a1.18,1.18,0,0,0,1-.47v.39h.69Zm23.32,0a1,1,0,0,1,.89-1h.08a1,1,0,0,1,1,.94.17.17,0,0,1,0,.07,1,1,0,0,1-.88,1h-.07a1,1,0,0,1-1-.94v-.08m2.58,0V25.47h-.7v1.66a1.17,1.17,0,0,0-1-.46,1.58,1.58,0,0,0-1.58,1.59v.07A1.58,1.58,0,0,0,188.33,30h.07a1.18,1.18,0,0,0,1-.46v.38h.69Zm-17.33-1a.8.8,0,0,1,.8.77h-1.65a.83.83,0,0,1,.85-.77m0-.61a1.54,1.54,0,0,0-1.58,1.51.75.75,0,0,0,0,.15A1.57,1.57,0,0,0,172.66,30h.17a1.94,1.94,0,0,0,1.3-.44l-.34-.52a1.56,1.56,0,0,1-.93.34.88.88,0,0,1-.94-.78h2.35a2.28,2.28,0,0,0,0-.27,1.53,1.53,0,0,0-1.37-1.66h-.14m8.33,1.66a1,1,0,0,1,.89-1h.07a.94.94,0,0,1,1,.94v.07a1,1,0,0,1-.88,1h-.08a1,1,0,0,1-1-.94v-.08m2.57,0V26.75H183v.38a1.18,1.18,0,0,0-1-.46,1.59,1.59,0,0,0-1.59,1.59v.07A1.6,1.6,0,0,0,181.92,30H182a1.19,1.19,0,0,0,1-.47v.39h.69Zm-6.47,0A1.61,1.61,0,0,0,178.74,30h.17a1.64,1.64,0,0,0,1.14-.38l-.33-.56a1.39,1.39,0,0,1-.83.29,1,1,0,0,1-1-.94v-.08a1,1,0,0,1,.88-1h.08a1.38,1.38,0,0,1,.83.28l.33-.56a1.63,1.63,0,0,0-1.14-.37,1.6,1.6,0,0,0-1.69,1.5v.16m8.9-1.66a.94.94,0,0,0-.84.46v-.38h-.68v3.17h.69V28.14c0-.52.23-.82.68-.82a1.26,1.26,0,0,1,.43.08l.21-.65a1.62,1.62,0,0,0-.49-.08m-18.5.33a2.35,2.35,0,0,0-1.29-.33c-.8,0-1.32.38-1.32,1s.38.84,1.1.94l.32.05c.38,0,.56.15.56.33s-.25.38-.72.38a1.67,1.67,0,0,1-1.06-.33l-.33.54a2.35,2.35,0,0,0,1.38.41c.92,0,1.45-.43,1.45-1s-.42-.85-1.11-.95l-.33,0c-.3,0-.54-.1-.54-.31s.23-.38.6-.38a2,2,0,0,1,1,.28l.3-.56Zm8.9-.33a.92.92,0,0,0-.83.46v-.38H175v3.17h.69V28.14c0-.52.23-.82.68-.82a1.31,1.31,0,0,1,.43.08l.21-.65a1.62,1.62,0,0,0-.49-.08m-5.89.08H169.5v-1h-.7v1h-.64v.63h.64v1.45c0,.74.29,1.18,1.1,1.18a1.63,1.63,0,0,0,.86-.25l-.2-.59a1.28,1.28,0,0,1-.61.18c-.34,0-.45-.21-.45-.53V27.38h1.12v-.63Zm-10.32,3.17v-2a1.18,1.18,0,0,0-1.1-1.26h-.15a1.22,1.22,0,0,0-1.11.57,1.17,1.17,0,0,0-1-.57,1,1,0,0,0-.93.47v-.39h-.69v3.18h.7V28.17a.73.73,0,0,1,.63-.84h.14c.46,0,.69.3.69.84v1.77h.7V28.17a.75.75,0,0,1,.65-.84h.13c.47,0,.7.3.7.84v1.77Z" fill="#222"/>
          <g>
            <path d="M168.05,12a11.93,11.93,0,0,1,4.57-9.4A11.95,11.95,0,0,0,153.28,12h0a11.94,11.94,0,0,0,11.95,12h0a11.88,11.88,0,0,0,7.39-2.55,12,12,0,0,1-4.57-9.4" fill="#222"/>
            <g opacity="0.6">
              <path d="M192,12a12,12,0,0,1-12,12h0a11.85,11.85,0,0,1-7.39-2.55,12,12,0,0,0,0-18.8A11.95,11.95,0,0,1,192,12h0" fill="#222"/>
            </g>
          </g>
        </g>
        <g opacity="0.8">
          <path d="M177.18,12a11.92,11.92,0,0,0-4.56-9.4,12,12,0,0,0,0,18.8h0A11.93,11.93,0,0,0,177.18,12Z" fill="#222"/>
        </g>
      </g>
    </g>
    <g opacity="0.4">
      <g>
        <path d="M92.46,5.35,89.32,24.67h5L97.49,5.35Z" fill="#222"/>
        <path d="M125.25,5.35h-4a2.3,2.3,0,0,0-2.32,1.44l-7.5,17.88h5.24l1-2.87h6.4l.59,2.87h4.62Zm-6.13,12.48,2.64-7.23,1.49,7.23Z" fill="#222"/>
        <path d="M104.72,10.71c0-2.18,4.9-1.9,7-.71l.72-4.15A14.59,14.59,0,0,0,108,5c-2.5,0-8.42,1.09-8.42,6.4,0,5,7,5.06,7,7.68s-6.24,2.15-8.3.5l-.75,4.34A14.19,14.19,0,0,0,103.13,25c3.43,0,8.61-1.78,8.61-6.62C111.74,13.36,104.72,12.9,104.72,10.71Z" fill="#222"/>
        <path d="M85.09,5.35l-4.8,13.29-.57-2.86h0L78,7.09a2.15,2.15,0,0,0-2.39-1.74H67.71l-.09.32a18.92,18.92,0,0,1,5.26,2.22h0l4.37,16.78H82.5l8-19.32Z" fill="#222"/>
      </g>
    </g>
    <g opacity="0.4">
      <g>
        <path d="M48.56,9.67A4.76,4.76,0,0,0,43.73,5H26.14v9.35H43.73A4.76,4.76,0,0,0,48.56,9.67Z" fill="#222"/>
        <path d="M48.56,20.27a4.75,4.75,0,0,0-4.83-4.67H26.14v9.34H43.73A4.75,4.75,0,0,0,48.56,20.27Z" fill="#222"/>
        <path d="M12.89,15.6V14.35H25.8v-.49A8.8,8.8,0,0,0,17,5.06H8.8A8.8,8.8,0,0,0,0,13.86v2.35A8.79,8.79,0,0,0,8.8,25H17a8.8,8.8,0,0,0,8.79-8.79V15.6Z" fill="#222"/>
      </g>
    </g>
    <g opacity="0.4">
      <g>
        <path d="M279.05,9.48h-4.53a.62.62,0,0,0-.62.53l-1.84,11.62a.38.38,0,0,0,.32.43h2.38a.44.44,0,0,0,.44-.37l.52-3.3a.62.62,0,0,1,.62-.53h1.43c3,0,4.71-1.45,5.16-4.31a3.45,3.45,0,0,0-.58-2.93,4.18,4.18,0,0,0-3.3-1.16m.53,4.25c-.25,1.63-1.49,1.63-2.69,1.63h-.69l.48-3a.38.38,0,0,1,.37-.32h.32c.81,0,1.59,0,2,.47a1.48,1.48,0,0,1,.22,1.26" fill="#222" opacity="0.6" style="isolation: isolate"/>
        <path d="M246.72,9.48h-4.53a.62.62,0,0,0-.62.53l-1.83,11.62a.37.37,0,0,0,.31.43h2.22a.64.64,0,0,0,.63-.53l.49-3.14a.63.63,0,0,1,.62-.53h1.44c3,0,4.71-1.44,5.16-4.31a3.5,3.5,0,0,0-.58-2.92,4.21,4.21,0,0,0-3.3-1.16m.52,4.24c-.25,1.63-1.49,1.63-2.69,1.63h-.68l.47-3a.38.38,0,0,1,.38-.31H245c.82,0,1.59,0,2,.46a1.49,1.49,0,0,1,.22,1.26" fill="#222"/>
        <path d="M260.27,13.67H258.1a.37.37,0,0,0-.37.32l-.1.6-.16-.22a3.08,3.08,0,0,0-2.56-.91,5,5,0,0,0-4.84,4.37,4.1,4.1,0,0,0,.8,3.33,3.39,3.39,0,0,0,2.74,1.1,4.12,4.12,0,0,0,3-1.24l-.1.6a.39.39,0,0,0,.31.44h2a.63.63,0,0,0,.62-.53l1.18-7.43a.38.38,0,0,0-.32-.43h-.06m-3,4.23A2.42,2.42,0,0,1,254.8,20a1.68,1.68,0,0,1-1.85-1.5,1.58,1.58,0,0,1,.05-.61,2.43,2.43,0,0,1,2.43-2.09,1.84,1.84,0,0,1,1.45.59,1.89,1.89,0,0,1,.36,1.54" fill="#222"/>
        <path d="M292.6,13.67h-2.17a.37.37,0,0,0-.37.32l-.1.6-.15-.22a3.11,3.11,0,0,0-2.57-.91,5,5,0,0,0-4.84,4.37,4.09,4.09,0,0,0,.81,3.34,3.39,3.39,0,0,0,2.73,1.1,4.16,4.16,0,0,0,3-1.24l-.1.6a.38.38,0,0,0,.31.43h2a.62.62,0,0,0,.62-.53L293,14.1a.37.37,0,0,0-.31-.43h-.06m-3,4.22A2.42,2.42,0,0,1,287.12,20a1.68,1.68,0,0,1-1.85-1.49,1.62,1.62,0,0,1,.05-.62,2.43,2.43,0,0,1,2.43-2.09,1.82,1.82,0,0,1,1.45.6,1.86,1.86,0,0,1,.36,1.53" fill="#222" opacity="0.6" style="isolation: isolate"/>
        <path d="M271.83,13.67h-2.18a.63.63,0,0,0-.52.27l-3,4.44-1.27-4.26a.64.64,0,0,0-.6-.45H262.1a.38.38,0,0,0-.38.38.5.5,0,0,0,0,.12l2.4,7-2.26,3.19a.37.37,0,0,0,.09.52.35.35,0,0,0,.22.08h2.18a.64.64,0,0,0,.52-.28l7.25-10.47a.37.37,0,0,0-.09-.52.36.36,0,0,0-.22-.07" fill="#222"/>
        <path d="M295.16,9.8,293.3,21.63a.39.39,0,0,0,.31.44h1.93a.64.64,0,0,0,.63-.53L298,9.91a.38.38,0,0,0-.31-.43h-2.16a.4.4,0,0,0-.38.32" fill="#222" opacity="0.6" style="isolation: isolate"/>
        <path d="M230.85,10.08A4,4,0,0,0,230,6.51c-.92-1-2.6-1.51-4.74-1.51h-6.21a.88.88,0,0,0-.88.75l-2.59,16.42a.53.53,0,0,0,.44.61h3.92l-.26,1.68a.47.47,0,0,0,.39.54h3.3a.78.78,0,0,0,.77-.65l0-.17.61-3.86,0-.22a.78.78,0,0,1,.77-.65h.48c3.14,0,5.59-1.28,6.3-5a4.19,4.19,0,0,0-.64-3.72,3.18,3.18,0,0,0-.89-.69" fill="#222" opacity="0.6" style="isolation: isolate"/>
        <path d="M230.85,10.08A4,4,0,0,0,230,6.51c-.92-1-2.6-1.51-4.74-1.51h-6.21a.88.88,0,0,0-.88.75l-2.59,16.42a.53.53,0,0,0,.44.61h3.92l1-6.11,0,.19a.88.88,0,0,1,.87-.75h1.83c3.58,0,6.38-1.45,7.2-5.66,0-.13.05-.25.07-.37" fill="#222" opacity="0.6" style="isolation: isolate"/>
        <path d="M221.94,10.11a.78.78,0,0,1,.77-.66h4.87a8.67,8.67,0,0,1,1.61.12l.41.07.39.1.18.06a4.48,4.48,0,0,1,.68.29A4,4,0,0,0,230,6.51c-.92-1-2.6-1.51-4.74-1.51h-6.21a.88.88,0,0,0-.88.75l-2.59,16.42a.53.53,0,0,0,.44.61h3.92l1-6.11Z" fill="#222"/>
      </g>
    </g>
    <g opacity="0.4">
      <g>
        <path d="M338.63,9.34l-.12.07-5.35,3.12-.1.05a.33.33,0,0,0-.15.27,5.06,5.06,0,0,0,0,.55.32.32,0,0,0,.17.26l.42.25a.32.32,0,0,0,.35,0l1.09-.64L339,11l.12-.06v8.73a.71.71,0,0,1-.13.44.69.69,0,0,1-.24.21l-3.33,2-4.51,2.67a.71.71,0,0,1-.55.08.88.88,0,0,1-.2-.09l-4.23-2.5-3.6-2.12a.79.79,0,0,1-.3-.3.6.6,0,0,1-.07-.3V10.89l.14.07,4.32,2.52,3.18,1.85a.31.31,0,0,1,.17.29q0,3.2,0,6.39a.43.43,0,0,0,.28.46c.1.06.21.11.31.18a.37.37,0,0,0,.38,0l.41-.23a.34.34,0,0,0,.18-.3V14.76a.35.35,0,0,0-.19-.33L330,13.8l-7.54-4.39-.1-.06.1-.07L328.55,6l1.56-.85a.74.74,0,0,1,.76,0l7.65,4.17Z" fill="#222" opacity="0.6" style="isolation: isolate"/>
        <path d="M350.8,16.28a3.88,3.88,0,0,1,.4-1.83,3.41,3.41,0,0,1,1.94-1.73,4,4,0,0,1,3,0,3.41,3.41,0,0,1,2.15,2.59,4.06,4.06,0,0,1-.16,2.34,3.5,3.5,0,0,1-2.56,2.2,4,4,0,0,1-2.41-.15,3.46,3.46,0,0,1-2.23-2.58A3.8,3.8,0,0,1,350.8,16.28Zm5.59-.17a2.57,2.57,0,0,0-.15-.78,1.73,1.73,0,0,0-2-1.16,1.66,1.66,0,0,0-1.34,1.09,2.71,2.71,0,0,0-.05,1.8,1.72,1.72,0,0,0,1.76,1.28,1.7,1.7,0,0,0,1.56-1.07,2.71,2.71,0,0,0,.2-1.16Z" fill="#222"/>
        <path d="M392.44,16.28a4,4,0,0,1,.4-1.83,3.41,3.41,0,0,1,1.94-1.73,4,4,0,0,1,3,0,3.41,3.41,0,0,1,2.15,2.59,4,4,0,0,1-.16,2.34,3.49,3.49,0,0,1-2.55,2.2,4,4,0,0,1-2.42-.15,3.45,3.45,0,0,1-2.23-2.58A3.8,3.8,0,0,1,392.44,16.28Zm5.59-.17a2.57,2.57,0,0,0-.15-.78,1.73,1.73,0,0,0-2-1.16,1.65,1.65,0,0,0-1.33,1.09,2.65,2.65,0,0,0-.06,1.8,1.72,1.72,0,0,0,1.76,1.28,1.69,1.69,0,0,0,1.56-1.07,2.71,2.71,0,0,0,.2-1.16Z" fill="#222"/>
        <path d="M370.82,14.63l-.11-.07A4.09,4.09,0,0,0,369.5,14a2.86,2.86,0,0,0-1-.06,1.09,1.09,0,0,0-.38.14.55.55,0,0,0-.18.75.46.46,0,0,0,.15.16,1.29,1.29,0,0,0,.35.18l.71.18a4.13,4.13,0,0,1,.92.3,3.62,3.62,0,0,1,.43.24,1.7,1.7,0,0,1,.73,1.08,2.64,2.64,0,0,1,0,1.25,1.93,1.93,0,0,1-1.08,1.34,3,3,0,0,1-.94.29,5.31,5.31,0,0,1-2.41-.2,3.55,3.55,0,0,1-.63-.28.11.11,0,0,1-.07-.13v-1.6a.25.25,0,0,1,0-.08l.09.06a4.32,4.32,0,0,0,1.82.7,2.12,2.12,0,0,0,.87,0,.52.52,0,0,0,.15-.06.54.54,0,0,0,.36-.47.57.57,0,0,0-.29-.57,1.81,1.81,0,0,0-.52-.2l-.81-.18a3.58,3.58,0,0,1-.79-.3,1.75,1.75,0,0,1-1-1.31,2.91,2.91,0,0,1,0-1.21,2,2,0,0,1,1-1.26,2.8,2.8,0,0,1,1.05-.33,4.52,4.52,0,0,1,1.72.09,3.67,3.67,0,0,1,.92.36.13.13,0,0,1,.09.13v1.53S370.83,14.6,370.82,14.63Z" fill="#222"/>
        <path d="M376.75,14.63l-.11-.07a4,4,0,0,0-1.22-.53,2.8,2.8,0,0,0-1-.06,1,1,0,0,0-.38.14.54.54,0,0,0-.18.75A.46.46,0,0,0,374,15a1.06,1.06,0,0,0,.35.18c.23.07.47.12.7.18a3.67,3.67,0,0,1,.92.3,3.75,3.75,0,0,1,.44.24,1.74,1.74,0,0,1,.73,1.08,2.93,2.93,0,0,1,0,1.25,1.93,1.93,0,0,1-1.08,1.34,3.17,3.17,0,0,1-.95.29,5.32,5.32,0,0,1-2.41-.2,3.55,3.55,0,0,1-.63-.28.11.11,0,0,1-.07-.13v-1.6a.22.22,0,0,1,0-.08l.09.05a4.2,4.2,0,0,0,1.83.71,2.13,2.13,0,0,0,.87,0l.15,0a.52.52,0,0,0,.35-.47.58.58,0,0,0-.28-.57,1.87,1.87,0,0,0-.53-.2l-.81-.18a3.78,3.78,0,0,1-.79-.3,1.74,1.74,0,0,1-1-1.31A2.75,2.75,0,0,1,372,14a1.94,1.94,0,0,1,1-1.26,2.75,2.75,0,0,1,1-.33,4.79,4.79,0,0,1,1.73.08,4.32,4.32,0,0,1,.92.37.13.13,0,0,1,.08.13v1.53S376.75,14.6,376.75,14.63Z" fill="#222"/>
        <path d="M350.31,14.82l-.1-.07a2.72,2.72,0,0,0-1.27-.54,2.57,2.57,0,0,0-1.2.08,1.77,1.77,0,0,0-1.28,1.48,2.33,2.33,0,0,0,0,1.05A1.85,1.85,0,0,0,348,18.24a2.81,2.81,0,0,0,2.23-.44l.19-.12v1.71a.12.12,0,0,1-.08.14A3.71,3.71,0,0,1,349,20a5.06,5.06,0,0,1-1.6,0,3.45,3.45,0,0,1-2.31-1.5,3.71,3.71,0,0,1-.52-1.4,4.43,4.43,0,0,1,.08-1.88,3.42,3.42,0,0,1,2.66-2.56,4.21,4.21,0,0,1,2.28.06,3,3,0,0,1,.69.3.12.12,0,0,1,.08.14v1.62A.41.41,0,0,1,350.31,14.82Z" fill="#222"/>
        <path d="M363.91,9.81a1,1,0,0,1,1,1,1,1,0,0,1-1.92,0h0A1,1,0,0,1,363.91,9.81Z" fill="#222"/>
        <rect x="362.96" y="12.69" width="1.91" height="7.15" fill="#222"/>
        <path d="M378.9,9.81a1,1,0,0,1,1,1,1,1,0,0,1-1.93,0h0A1,1,0,0,1,378.9,9.81Z" fill="#222"/>
        <rect x="377.95" y="12.69" width="1.91" height="7.15" fill="#222"/>
        <path d="M362.09,18.19l-.13,0-.14,0a1,1,0,0,1-.75-.79,2.18,2.18,0,0,1,0-.44V9.43h-1.91V9.6h0v7.27c0,.2,0,.39,0,.59a3.12,3.12,0,0,0,.14.8,2.1,2.1,0,0,0,.55.93,2.32,2.32,0,0,0,.84.5,4.39,4.39,0,0,0,1.4.2h0Z" fill="#222"/>
        <path d="M391.65,15.41c0-.2,0-.4,0-.6a3.68,3.68,0,0,0-.14-.75,2,2,0,0,0-1.37-1.38,3.59,3.59,0,0,0-.86-.14,5.66,5.66,0,0,0-.92,0,5,5,0,0,0-.66.11,6,6,0,0,0-1.1.38l-.1,0-.07-.05a2.55,2.55,0,0,0-.46-.25,3.54,3.54,0,0,0-1.16-.25,8,8,0,0,0-1.76.13,9.82,9.82,0,0,0-1.61.44l-.11.05c0,.1,0,5.66,0,6.5h0v.16h1.91v-.16h0V14.4s0,0,0,0l.09,0a3.87,3.87,0,0,1,1.12-.14,1.27,1.27,0,0,1,.28,0,.85.85,0,0,1,.72.66.3.3,0,0,1,0,.1,2.12,2.12,0,0,1,0,.44v4.22h0v.15h1.92v-.12h0V15.23a1.93,1.93,0,0,0-.12-.67.24.24,0,0,0,0-.08l.19-.08a3.35,3.35,0,0,1,1.33-.18.88.88,0,0,1,.33.07.82.82,0,0,1,.49.46,1.28,1.28,0,0,1,.07.28,2.6,2.6,0,0,1,0,.4v4.23h0v.15h1.93V15.4Z" fill="#222"/>
      </g>
    </g>
  </g>
</svg>
